<?xml version="1.0" encoding="UTF-8" standalone="no"?>
<!-- Created with Inkscape (http://www.inkscape.org/) -->

<svg
   xmlns:dc="http://purl.org/dc/elements/1.1/"
   xmlns:cc="http://creativecommons.org/ns#"
   xmlns:rdf="http://www.w3.org/1999/02/22-rdf-syntax-ns#"
   xmlns:svg="http://www.w3.org/2000/svg"
   xmlns="http://www.w3.org/2000/svg"
   xmlns:sodipodi="http://sodipodi.sourceforge.net/DTD/sodipodi-0.dtd"
   xmlns:inkscape="http://www.inkscape.org/namespaces/inkscape"
   width="135.46664mm"
   height="118.28893mm"
   viewBox="0 0 135.46665 118.28893"
   version="1.1"
   id="svg8"
   inkscape:version="0.92.5 (2060ec1f9f, 2020-04-08)"
   sodipodi:docname="adendo-preenchido.svg">
  <defs
     id="defs2" />
  <sodipodi:namedview
     id="base"
     pagecolor="#ffffff"
     bordercolor="#666666"
     borderopacity="1.0"
     inkscape:pageopacity="0.0"
     inkscape:pageshadow="2"
     inkscape:zoom="0.9899495"
     inkscape:cx="-118.25662"
     inkscape:cy="275.21345"
     inkscape:document-units="mm"
     inkscape:current-layer="g1272"
     showgrid="false"
     fit-margin-top="-0.1"
     fit-margin-left="0"
     fit-margin-right="0"
     fit-margin-bottom="0"
     inkscape:window-width="1294"
     inkscape:window-height="731"
     inkscape:window-x="72"
     inkscape:window-y="180"
     inkscape:window-maximized="1" />
  <metadata
     id="metadata5">
    <rdf:RDF>
      <cc:Work
         rdf:about="">
        <dc:format>image/svg+xml</dc:format>
        <dc:type
           rdf:resource="http://purl.org/dc/dcmitype/StillImage" />
        <dc:title />
      </cc:Work>
    </rdf:RDF>
  </metadata>
  <g
     inkscape:label="Camada 1"
     inkscape:groupmode="layer"
     id="layer1"
     transform="translate(-30.949475,-12.984202)">
    <g
       id="g1272"
       transform="matrix(0.26458333,0,0,0.26458333,30.949431,4.3453038)">
      <g
         id="g1254">
        <path
           id="path1252"
           d="M 504.579,111.303 300.984,454.12 c -20.291,34.167 -69.704,34.119 -89.966,0 L 96.281595,260.9234 7.425,111.304 C -13.306,76.399 11.834,32.273 52.406,32.273 h 407.19 c 40.599,-0.001 65.697,44.149 44.983,79.03 z"
           inkscape:connector-curvature="0"
           style="fill:#ec816c;fill-opacity:1"
           sodipodi:nodetypes="cccccscc" />
      </g>
      <path
         id="path1256"
         d="M 255.83,454.12 52.238,111.304 C 31.507,76.399 56.647,32.273 97.219,32.273 H 52.406 c -40.572,0 -65.712,44.126 -44.981,79.031 L 211.018,454.12 c 14.598,24.581 44.325,31.473 67.393,20.63 -8.958,-4.208 -16.911,-11.083 -22.581,-20.63 z"
         inkscape:connector-curvature="0"
         style="fill:#ec816c;fill-opacity:1" />
      <path
         id="path1258"
         d="M 459.596,67.698 H 85.978 c -7.574,4.603 -10.907,14.848 -5.83,23.396 L 277.762,423.841 474.118,93.214 c 6.696,-11.272 -1.423,-25.516 -14.522,-25.516 z"
         inkscape:connector-curvature="0"
         style="fill:#f5f5f5;fill-opacity:1" />
      <path
         id="path1260"
         d="M 82.697,93.214 C 76.006,81.949 84.111,67.698 97.219,67.698 H 52.406 c -13.108,0 -21.213,14.251 -14.522,25.516 l 203.594,342.817 c 6.553,11.034 22.503,11.017 29.045,0 v -0.001 l 7.884,-13.274 z"
         inkscape:connector-curvature="0"
         style="fill:#f5f5f5;fill-opacity:1" />
      <path
         id="path1262"
         d="m 255.873,124.009 c -13.276,0 -24.037,10.762 -24.037,24.037 v 82.767 c 0,13.276 10.762,24.037 24.037,24.037 13.275,0 24.037,-10.762 24.037,-24.037 v -82.767 c 10e-4,-13.274 -10.761,-24.037 -24.037,-24.037 z"
         inkscape:connector-curvature="0"
         style="fill:#ec816c;fill-opacity:1" />
      <circle
         id="circle1264"
         r="24.037001"
         cy="312.88599"
         cx="255.873"
         style="fill:#ff7f87" />
      <g
         id="g1270"
         style="fill:#ec816c;fill-opacity:1">
        <path
           id="path1266"
           d="m 257.03,230.814 v -82.767 c 0,-8.655 4.577,-16.24 11.44,-20.472 -3.663,-2.259 -7.977,-3.565 -12.597,-3.565 -13.276,0 -24.037,10.762 -24.037,24.037 v 82.767 c 0,13.276 10.762,24.037 24.037,24.037 4.62,0 8.934,-1.306 12.597,-3.565 -6.863,-4.232 -11.44,-11.817 -11.44,-20.472 z"
           inkscape:connector-curvature="0"
           style="fill:#ec816c;fill-opacity:1" />
        <path
           id="path1268"
           d="m 257.03,312.886 c 0,-8.656 4.577,-16.24 11.44,-20.472 -3.663,-2.259 -7.977,-3.565 -12.597,-3.565 -13.275,0 -24.037,10.762 -24.037,24.037 0,13.275 10.762,24.037 24.037,24.037 4.62,0 8.934,-1.306 12.597,-3.565 -6.863,-4.232 -11.44,-11.817 -11.44,-20.472 z"
           inkscape:connector-curvature="0"
           style="fill:#ec816c;fill-opacity:1" />
      </g>
      <path
         style="fill:#ffffff;stroke-width:1.01015258"
         d="m 248.24509,409.24173 c -1.82333,-0.9299 -4.14794,-2.87702 -5.16582,-4.32692 C 241.11022,402.11003 49.213993,79.113672 40.838666,64.506983 37.520222,58.71957 35.892661,54.725555 35.892661,52.369548 c 0,-5.194438 3.604432,-11.79407 7.900354,-14.465364 l 3.7164,-2.310935 206.432605,-0.262138 c 137.83721,-0.175032 207.70287,0.07991 210.25542,0.76724 8.53706,2.298794 14.17799,13.383804 10.83281,21.287585 -1.26418,2.986929 -199.6751,337.665874 -205.06771,345.907584 -3.26863,4.99558 -6.66889,6.93553 -12.80057,7.30313 -3.80802,0.22831 -6.66327,-0.20555 -8.91688,-1.35492 z m 18.54055,-107.26871 c 22.47428,-11.55498 14.55729,-45.86347 -10.58341,-45.86347 -14.14615,0 -24.26697,9.98639 -24.31779,23.99482 -0.0529,14.5974 11.05641,25.26206 25.30475,24.2918 3.09594,-0.21082 7.41434,-1.30123 9.59645,-2.42315 z m 0.42263,-82.38689 c 5.19511,-2.6062 10.55923,-9.07121 12.08508,-14.56531 1.4122,-5.0849 1.4122,-91.33363 0,-96.41854 -1.5622,-5.62501 -6.91942,-11.965747 -12.5636,-14.870103 -12.06202,-6.206831 -27.26418,-0.87582 -32.96958,11.561593 -1.71288,3.73396 -1.85523,7.62716 -1.87573,51.29769 -0.0245,52.09322 -0.0975,51.42381 6.34246,58.13751 7.94106,8.27863 18.60015,10.06505 28.98137,4.85716 z"
         id="path80"
         inkscape:connector-curvature="0"
         transform="translate(1.6629921e-4,32.650954)" />
      <path
         style="fill:#ffffff;stroke-width:1.01015258"
         d="m 248.24509,409.18495 c -1.82333,-0.89868 -4.13946,-2.82024 -5.14697,-4.27014 C 241.37212,402.43093 222.23063,370.2567 91.887616,150.75064 62.525937,101.30367 37.844497,59.023826 37.039974,56.795427 c -0.953499,-2.641036 -1.212139,-5.38762 -0.742886,-7.888953 0.9396,-5.008499 6.767307,-11.450091 11.564322,-12.782495 5.161473,-1.433636 409.07756,-1.377491 415.32577,0.05773 2.50013,0.574281 5.78768,2.231473 7.30568,3.682649 3.62498,3.465428 6.2648,10.456447 5.46272,14.466883 -0.69154,3.457673 0.18669,1.960922 -119.10528,202.990489 -46.65062,78.61512 -85.95497,144.45263 -87.34302,146.30559 -5.22066,6.96927 -13.83156,9.22004 -21.26219,5.55763 z m 17.92826,-106.8938 c 14.06076,-7.2711 18.09499,-23.34636 9.12928,-36.37757 -8.27531,-12.02776 -27.55132,-13.06515 -37.26195,-2.00536 -4.6078,5.24798 -6.17843,9.4212 -6.17843,16.41624 0,10.74209 6.49598,19.81406 16.53299,23.08918 4.86013,1.58588 13.60888,1.0335 17.77811,-1.12249 z m -0.36483,-81.82342 c 3.78543,-1.57661 9.80251,-7.42244 12.25055,-11.90187 1.63697,-2.99532 1.78543,-7.29888 1.78543,-51.75431 v -48.48732 l -2.72787,-4.64015 C 270.32188,92.126075 256.46478,87.825184 244.94904,93.700079 239.9841,96.233 234.23927,102.8351 232.94526,107.49512 c -0.68249,2.45782 -1.07174,20.36899 -1.07174,49.31643 0,28.94745 0.38925,46.85862 1.07174,49.31644 1.89725,6.83238 9.73253,13.92743 17.60482,15.94159 3.6804,0.94165 10.99533,0.17373 15.25844,-1.60185 z"
         id="path82"
         inkscape:connector-curvature="0"
         transform="translate(1.6629921e-4,32.650954)" />
    </g>
  </g>
</svg>
