<?xml version="1.0" encoding="UTF-8" standalone="no"?>
<!-- Created with Inkscape (http://www.inkscape.org/) -->

<svg
   xmlns:dc="http://purl.org/dc/elements/1.1/"
   xmlns:cc="http://creativecommons.org/ns#"
   xmlns:rdf="http://www.w3.org/1999/02/22-rdf-syntax-ns#"
   xmlns:svg="http://www.w3.org/2000/svg"
   xmlns="http://www.w3.org/2000/svg"
   xmlns:sodipodi="http://sodipodi.sourceforge.net/DTD/sodipodi-0.dtd"
   xmlns:inkscape="http://www.inkscape.org/namespaces/inkscape"
   width="135.46664mm"
   height="118.28893mm"
   viewBox="0 0 135.46665 118.28893"
   version="1.1"
   id="svg8"
   inkscape:version="0.92.5 (2060ec1f9f, 2020-04-08)"
   sodipodi:docname="adendo-preenchido (1).svg">
  <defs
     id="defs2" />
  <sodipodi:namedview
     id="base"
     pagecolor="#ffffff"
     bordercolor="#666666"
     borderopacity="1.0"
     inkscape:pageopacity="0.0"
     inkscape:pageshadow="2"
     inkscape:zoom="0.49497475"
     inkscape:cx="186.6739"
     inkscape:cy="306.12903"
     inkscape:document-units="mm"
     inkscape:current-layer="g1272"
     showgrid="false"
     fit-margin-top="-0.1"
     fit-margin-left="0"
     fit-margin-right="0"
     fit-margin-bottom="0"
     inkscape:window-width="1360"
     inkscape:window-height="704"
     inkscape:window-x="0"
     inkscape:window-y="27"
     inkscape:window-maximized="1" />
  <metadata
     id="metadata5">
    <rdf:RDF>
      <cc:Work
         rdf:about="">
        <dc:format>image/svg+xml</dc:format>
        <dc:type
           rdf:resource="http://purl.org/dc/dcmitype/StillImage" />
        <dc:title></dc:title>
      </cc:Work>
    </rdf:RDF>
  </metadata>
  <g
     inkscape:label="Camada 1"
     inkscape:groupmode="layer"
     id="layer1"
     transform="translate(-30.949475,-12.984202)">
    <g
       id="g1272"
       transform="matrix(0.26458333,0,0,0.26458333,30.949431,4.3453038)">
      <g
         id="g1254">
        <path
           id="path1252"
           d="M 504.579,111.303 300.984,454.12 c -20.291,34.167 -69.704,34.119 -89.966,0 L 96.281595,260.9234 7.425,111.304 C -13.306,76.399 11.834,32.273 52.406,32.273 h 407.19 c 40.599,-0.001 65.697,44.149 44.983,79.03 z"
           inkscape:connector-curvature="0"
           style="fill:#ec816c;fill-opacity:1"
           sodipodi:nodetypes="cccccscc" />
      </g>
      <path
         id="path1256"
         d="M 255.83,454.12 52.238,111.304 C 31.507,76.399 56.647,32.273 97.219,32.273 H 52.406 c -40.572,0 -65.712,44.126 -44.981,79.031 L 211.018,454.12 c 14.598,24.581 44.325,31.473 67.393,20.63 -8.958,-4.208 -16.911,-11.083 -22.581,-20.63 z"
         inkscape:connector-curvature="0"
         style="fill:#ec816c;fill-opacity:1" />
      <path
         id="path1258"
         d="M 459.596,67.698 H 85.978 c -7.574,4.603 -10.907,14.848 -5.83,23.396 L 277.762,423.841 474.118,93.214 c 6.696,-11.272 -1.423,-25.516 -14.522,-25.516 z"
         inkscape:connector-curvature="0"
         style="fill:#f5f5f5;fill-opacity:1" />
      <path
         id="path1260"
         d="M 82.697,93.214 C 76.006,81.949 84.111,67.698 97.219,67.698 H 52.406 c -13.108,0 -21.213,14.251 -14.522,25.516 l 203.594,342.817 c 6.553,11.034 22.503,11.017 29.045,0 v -0.001 l 7.884,-13.274 z"
         inkscape:connector-curvature="0"
         style="fill:#f5f5f5;fill-opacity:1" />
      <path
         id="path1262"
         d="m 255.873,124.009 c -13.276,0 -24.037,10.762 -24.037,24.037 v 82.767 c 0,13.276 10.762,24.037 24.037,24.037 13.275,0 24.037,-10.762 24.037,-24.037 v -82.767 c 10e-4,-13.274 -10.761,-24.037 -24.037,-24.037 z"
         inkscape:connector-curvature="0"
         style="fill:#ec816c;fill-opacity:1" />
      <circle
         id="circle1264"
         r="24.037001"
         cy="312.88599"
         cx="255.873"
         style="fill:#ff7f87" />
      <g
         id="g1270"
         style="fill:#ec816c;fill-opacity:1">
        <path
           id="path1266"
           d="m 257.03,230.814 v -82.767 c 0,-8.655 4.577,-16.24 11.44,-20.472 -3.663,-2.259 -7.977,-3.565 -12.597,-3.565 -13.276,0 -24.037,10.762 -24.037,24.037 v 82.767 c 0,13.276 10.762,24.037 24.037,24.037 4.62,0 8.934,-1.306 12.597,-3.565 -6.863,-4.232 -11.44,-11.817 -11.44,-20.472 z"
           inkscape:connector-curvature="0"
           style="fill:#ec816c;fill-opacity:1" />
        <path
           id="path1268"
           d="m 257.03,312.886 c 0,-8.656 4.577,-16.24 11.44,-20.472 -3.663,-2.259 -7.977,-3.565 -12.597,-3.565 -13.275,0 -24.037,10.762 -24.037,24.037 0,13.275 10.762,24.037 24.037,24.037 4.62,0 8.934,-1.306 12.597,-3.565 -6.863,-4.232 -11.44,-11.817 -11.44,-20.472 z"
           inkscape:connector-curvature="0"
           style="fill:#ec816c;fill-opacity:1" />
      </g>
    </g>
  </g>
</svg>
