<svg id="Capa_1" enable-background="new 0 0 512.043 512.043" height="512" viewBox="0 0 512.043 512.043" width="512" xmlns="http://www.w3.org/2000/svg"><g><path d="m37.847 101.831 197.63 332.775c9.256 15.585 31.821 15.611 41.091 0l197.632-332.774c9.477-15.955-2.01-36.099-20.545-36.099h-395.263c-18.542 0-30.019 20.147-20.545 36.098zm423.456-7.659-197.632 332.775c-3.447 5.804-11.841 5.818-15.298-.001l-197.63-332.774c-3.528-5.939.733-13.438 7.648-13.438h395.263c6.906-.001 11.181 7.49 7.649 13.438z"/><path d="m255.899 342.071c17.002 0 30.834-13.832 30.834-30.833s-13.832-30.833-30.834-30.833c-17.001 0-30.833 13.832-30.833 30.833s13.832 30.833 30.833 30.833zm0-46.666c8.73 0 15.834 7.103 15.834 15.833s-7.104 15.833-15.834 15.833-15.833-7.103-15.833-15.833 7.102-15.833 15.833-15.833z"/><path d="m453.654 31.345h-180.132c-4.143 0-7.5 3.358-7.5 7.5s3.357 7.5 7.5 7.5h180.133c33.588 0 54.379 36.486 37.216 65.386l-197.632 332.775c-16.768 28.234-57.643 28.272-74.434 0l-197.628-332.775c-17.152-28.881 3.603-65.386 37.215-65.386h180.13c4.143 0 7.5-3.358 7.5-7.5s-3.357-7.5-7.5-7.5h-180.13c-45.216 0-73.222 49.138-50.111 88.046l197.629 332.774c22.574 38.016 77.617 38.073 100.227.001l197.63-332.776c23.089-38.877-4.859-88.045-50.113-88.045z"/><path d="m255.899 262.403c17.002 0 30.834-13.832 30.834-30.833v-22.671c0-4.143-3.357-7.5-7.5-7.5s-7.5 3.357-7.5 7.5v22.671c0 8.73-7.104 15.833-15.834 15.833s-15.833-7.103-15.833-15.833v-80.342c0-8.73 7.103-15.833 15.833-15.833s15.834 7.103 15.834 15.833v22.671c0 4.142 3.357 7.5 7.5 7.5s7.5-3.358 7.5-7.5v-22.671c0-17.001-13.832-30.833-30.834-30.833-17.001 0-30.833 13.832-30.833 30.833v80.342c0 17.001 13.832 30.833 30.833 30.833z"/></g></svg>