<?xml version="1.0" encoding="UTF-8" standalone="no"?>
<svg
   xmlns:dc="http://purl.org/dc/elements/1.1/"
   xmlns:cc="http://creativecommons.org/ns#"
   xmlns:rdf="http://www.w3.org/1999/02/22-rdf-syntax-ns#"
   xmlns:svg="http://www.w3.org/2000/svg"
   xmlns="http://www.w3.org/2000/svg"
   xmlns:sodipodi="http://sodipodi.sourceforge.net/DTD/sodipodi-0.dtd"
   xmlns:inkscape="http://www.inkscape.org/namespaces/inkscape"
   width="180.6106mm"
   height="180.52162mm"
   viewBox="0 0 180.6106 180.52162"
   version="1.1"
   id="svg8"
   inkscape:version="1.0.1 (0767f8302a, 2020-10-17)"
   sodipodi:docname="balao-de-coracao-preenchido.svg">
  <defs
     id="defs2" />
  <sodipodi:namedview
     id="base"
     pagecolor="#ffffff"
     bordercolor="#666666"
     borderopacity="1.0"
     inkscape:pageopacity="0.0"
     inkscape:pageshadow="2"
     inkscape:zoom="0.175"
     inkscape:cx="66.208991"
     inkscape:cy="-197.46595"
     inkscape:document-units="mm"
     inkscape:current-layer="g4608"
     showgrid="false"
     fit-margin-top="-0.1"
     fit-margin-left="0"
     fit-margin-right="0"
     fit-margin-bottom="0"
     inkscape:window-width="1280"
     inkscape:window-height="987"
     inkscape:window-x="1366"
     inkscape:window-y="0"
     inkscape:window-maximized="1"
     inkscape:document-rotation="0" />
  <metadata
     id="metadata5">
    <rdf:RDF>
      <cc:Work
         rdf:about="">
        <dc:format>image/svg+xml</dc:format>
        <dc:type
           rdf:resource="http://purl.org/dc/dcmitype/StillImage" />
        <dc:title />
      </cc:Work>
    </rdf:RDF>
  </metadata>
  <g
     inkscape:label="Camada 1"
     inkscape:groupmode="layer"
     id="layer1"
     transform="translate(0.34696342,0.34176142)">
    <g
       id="layer1-3"
       inkscape:label="Camada 1"
       transform="translate(-14.363094,-53.67262)">
      <g
         transform="matrix(0.35277727,0,0,0.35277727,14.015786,53.230514)"
         id="g4608">
        <path
           style="fill:#ffffff;stroke:#000000;stroke-opacity:1"
           inkscape:connector-curvature="0"
           d="m 197.17187,118.92578 c -11.375,0 -21.63281,4.96094 -28.8789,12.91406 -7.2461,-7.95312 -17.50391,-12.91406 -28.87891,-12.91406 -21.95703,0 -39.75781,18.48047 -39.75781,41.27344 0,38.42578 68.63672,75.91015 68.63672,75.91015 0,0 68.63672,-37.48437 68.63672,-75.91015 -0.004,-22.79297 -17.80078,-41.27344 -39.75782,-41.27344 z m 0,0"
           id="path4578" />
        <path
           style="fill:#ffffff;stroke:#000000;stroke-opacity:1"
           inkscape:connector-curvature="0"
           d="m 464.44922,165.45703 c 50.02344,50.02344 50.02344,131.12891 0,181.14844 l -68.09375,68.09765 c -12.41406,12.41407 -32.54297,12.41407 -44.95703,0 l -68.09375,-68.09765 c -50.02344,-50.01953 -50.02344,-131.125 0,-181.14453 50.01953,-50.02344 131.125,-50.02344 181.14453,-0.004 z m 0,0"
           id="path4580" />
        <path
           inkscape:connector-curvature="0"
           d="m 127.60547,220.27344 c 17.6914,14.61718 35.15625,24.21093 35.89453,24.61328 1.49219,0.8125 3.14062,1.22265 4.79297,1.22265 1.64844,0 3.29687,-0.40625 4.79297,-1.22265 0.73437,-0.40235 18.19922,-9.9961 35.89453,-24.61328 25.17969,-20.80078 37.94922,-41.01172 37.94922,-60.07422 0,-28.27344 -22.32032,-51.27344 -49.75782,-51.27344 -10.38671,0 -20.50781,3.39453 -28.8789,9.53125 -8.3711,-6.13672 -18.49219,-9.53125 -28.87891,-9.53125 -27.4375,0 -49.75781,23 -49.75781,51.27344 0,19.0625 12.76953,39.27344 37.94922,60.07422 z m 11.80859,-91.34766 c 8.1875,0 15.81641,3.42969 21.48828,9.64844 1.89453,2.08203 4.57813,3.26562 7.39063,3.26562 2.8125,0 5.49609,-1.18359 7.39062,-3.26562 5.67188,-6.21875 13.30078,-9.64844 21.48828,-9.64844 16.41016,0 29.75391,14.03125 29.75391,31.27344 0,24.43359 -38.66797,52.5 -58.625,64.3789 -19.28125,-11.55078 -58.64062,-40.10156 -58.64062,-64.3789 -0.004,-17.24219 13.34765,-31.27344 29.7539,-31.27344 z m 0,0"
           id="path4584"
           style="stroke:none;stroke-opacity:1;fill:#ec816c;fill-opacity:1" />
        <path
           inkscape:connector-curvature="0"
           d="M 471.52344,158.38672 C 433.55859,120.42188 378.8125,109.23047 330.94922,124.80078 323.34766,96.273438 308.40234,70.289062 287.34766,49.234375 c -65.64844,-65.644531 -172.46094,-65.644531 -238.113285,0 -65.644531,65.648435 -65.644531,172.464845 0,238.113285 l 8.121094,8.12109 c 1.953125,1.94922 4.511719,2.92969 7.074219,2.92969 2.558593,0 5.117187,-0.98047 7.070312,-2.92969 3.90625,-3.90625 3.90625,-10.23828 0,-14.14844 l -8.121094,-8.11719 c -57.847656,-57.84765 -57.847656,-151.97656 0,-209.824214 57.851564,-57.847656 151.976564,-57.847656 209.824214,0 19.16407,19.164063 32.60157,42.949224 39.07813,69.050784 -13.01953,6.47265 -25.21875,15.12109 -36.05078,25.95703 -26.08203,26.08203 -40.44531,60.75781 -40.44531,97.64453 0,16.125 2.74218,31.82812 8.01171,46.57812 l -54.78515,54.78516 c -5.53516,5.53516 -12.89453,8.58203 -20.71875,8.58203 -7.82813,0 -15.1875,-3.04687 -20.72266,-8.58203 l -23.22656,-23.22656 c -3.90625,-3.90235 -10.23828,-3.90235 -14.14453,0 -3.90235,3.90625 -3.90625,10.23828 0,14.14453 l 23.23047,23.22656 c 7.05859,7.0586 15.74609,11.51563 24.85937,13.39063 V 502 c 0,5.52344 4.48047,10 10.00391,10 5.52344,0 10,-4.47656 10,-10 V 384.92969 c 9.11719,-1.875 17.80469,-6.33203 24.86328,-13.39063 l 49.41016,-49.41015 c 6.25781,11.44531 14.18359,22.0664 23.66406,31.55078 l 68.09765,68.09375 c 5.47657,5.47656 12.21094,9.24219 19.54688,11.03906 V 502 c 0,5.51953 4.47656,10 10,10 5.52734,0 10.00391,-4.48047 10.00391,-10 v -69.1875 c 7.33593,-1.79688 14.07031,-5.5625 19.54687,-11.03906 l 68.09766,-68.09375 c 26.08203,-26.08203 40.44531,-60.76172 40.44531,-97.64844 0,-36.88281 -14.36328,-71.5625 -40.44531,-97.64453 z m -14.14453,181.14844 -68.09766,68.09375 c -4.11328,4.11718 -9.58594,6.38281 -15.40625,6.38281 -5.81641,0 -11.28906,-2.26563 -15.40625,-6.38281 L 290.375,339.53516 c -22.30469,-22.30469 -34.58984,-51.96094 -34.58984,-83.50391 0,-31.54297 12.28515,-61.19531 34.58984,-83.5 23.01953,-23.02344 53.26172,-34.53516 83.5,-34.53516 30.24219,0 60.48047,11.51563 83.50391,34.53516 22.30468,22.30469 34.58984,51.95703 34.58984,83.50391 0,31.53906 -12.28516,61.19531 -34.58984,83.5 z m 0,0"
           id="path4586"
           style="stroke:#ec816c;stroke-opacity:1;fill:#ec816c;fill-opacity:1" />
        <path
           inkscape:connector-curvature="0"
           d="m 400.39844,203.29297 c -9.51563,0 -18.78907,3.05078 -26.52344,8.5664 -7.73047,-5.51562 -17.00391,-8.5664 -26.51953,-8.5664 -25.64844,0 -46.51172,21.49219 -46.51172,47.90625 0,17.76172 11.82422,36.53515 35.14844,55.80078 16.30468,13.47266 32.41406,22.32031 33.08984,22.69141 1.4961,0.8125 3.14453,1.22265 4.79297,1.22265 1.65234,0 3.30078,-0.40625 4.79688,-1.22265 0.67578,-0.3711 16.78515,-9.21875 33.08984,-22.69141 23.32422,-19.26563 35.14844,-38.03906 35.14844,-55.80078 0,-26.41406 -20.86328,-47.90625 -46.51172,-47.90625 z M 373.875,309.36328 c -17.72656,-10.71094 -53.03125,-36.46875 -53.03125,-58.16406 0,-15.38672 11.89453,-27.90234 26.51172,-27.90234 7.28515,0 14.07812,3.05468 19.1289,8.59375 1.89454,2.08203 4.57813,3.26562 7.39063,3.26562 2.81641,0 5.5,-1.18359 7.39453,-3.26562 5.05078,-5.53907 11.84375,-8.59375 19.12891,-8.59375 14.61718,0 26.50781,12.51953 26.50781,27.90234 0,21.69531 -35.30469,47.45703 -53.03125,58.16406 z m 0,0"
           id="path4588"
           style="stroke:none;stroke-opacity:1;fill:#ec816c;fill-opacity:1" />
        <path
           inkscape:connector-curvature="0"
           d="m 100.50781,310.32812 c -3.906248,-3.90234 -10.238279,-3.90234 -14.144529,0 -3.90625,3.90625 -3.90625,10.23829 0,14.14454 l 0.164063,0.16797 c 1.953125,1.95312 4.511718,2.92968 7.070312,2.92968 2.5625,0 5.121094,-0.97656 7.074224,-2.92968 3.90625,-3.90625 3.90625,-10.23829 0,-14.14454 z m 0,0"
           id="path4590"
           style="stroke:#ec816c;stroke-opacity:1;fill:#ec816c;fill-opacity:1" />
      </g>
    </g>
  </g>
</svg>
