<svg id="Capa_1" enable-background="new 0 0 511.989 511.989" height="512" viewBox="0 0 511.989 511.989" width="512" xmlns="http://www.w3.org/2000/svg"><g><g><path d="m255.995 392c-91.533 0-166-74.468-166-166s74.467-166 166-166c91.532 0 166 74.468 166 166s-74.468 166-166 166zm0-302c-74.991 0-136 61.01-136 136s61.009 136 136 136c74.99 0 136-61.01 136-136s-61.01-136-136-136z"/></g><g><path d="m270.995 271h-30v-60h15c16.817 0 30.5-13.683 30.5-30.5s-13.683-30.5-30.5-30.5c-16.818 0-30.5 13.683-30.5 30.5h-30c0-33.359 27.14-60.5 60.5-60.5 33.359 0 60.5 27.141 60.5 60.5 0 28.184-19.372 51.929-45.5 58.618z"/></g><g><path d="m240.995 301h30v30h-30z"/></g><g><path d="m255.995 511.989-60.675-68.233c-97.579-27.1-165.325-115.978-165.325-217.756 0-60.367 23.508-117.12 66.194-159.807 42.685-42.685 99.439-66.193 159.806-66.193s117.12 23.508 159.807 66.193c42.686 42.687 66.193 99.439 66.193 159.807 0 101.778-67.746 190.656-165.325 217.756zm0-481.989c-108.075 0-196 87.925-196 196 0 89.622 60.556 167.709 147.261 189.892l4.444 1.137 44.295 49.814 44.296-49.814 4.443-1.137c86.705-22.183 147.261-100.27 147.261-189.892 0-108.075-87.925-196-196-196z"/></g></g></svg>