<?xml version="1.0" encoding="UTF-8" standalone="no"?>
<svg
   xmlns:dc="http://purl.org/dc/elements/1.1/"
   xmlns:cc="http://creativecommons.org/ns#"
   xmlns:rdf="http://www.w3.org/1999/02/22-rdf-syntax-ns#"
   xmlns:svg="http://www.w3.org/2000/svg"
   xmlns="http://www.w3.org/2000/svg"
   xmlns:sodipodi="http://sodipodi.sourceforge.net/DTD/sodipodi-0.dtd"
   xmlns:inkscape="http://www.inkscape.org/namespaces/inkscape"
   version="1.1"
   id="Capa_1"
   x="0px"
   y="0px"
   viewBox="0 0 471.2 471.2"
   style="enable-background:new 0 0 471.2 471.2;"
   xml:space="preserve"
   sodipodi:docname="upload2.svg"
   inkscape:version="1.0.1 (0767f8302a, 2020-10-17)"><metadata
   id="metadata981"><rdf:RDF><cc:Work
       rdf:about=""><dc:format>image/svg+xml</dc:format><dc:type
         rdf:resource="http://purl.org/dc/dcmitype/StillImage" /><dc:title></dc:title></cc:Work></rdf:RDF></metadata><defs
   id="defs979" /><sodipodi:namedview
   pagecolor="#ffffff"
   bordercolor="#666666"
   borderopacity="1"
   objecttolerance="10"
   gridtolerance="10"
   guidetolerance="10"
   inkscape:pageopacity="0"
   inkscape:pageshadow="2"
   inkscape:window-width="1294"
   inkscape:window-height="704"
   id="namedview977"
   showgrid="false"
   inkscape:zoom="0.69397284"
   inkscape:cx="235.6"
   inkscape:cy="235.6"
   inkscape:window-x="72"
   inkscape:window-y="283"
   inkscape:window-maximized="1"
   inkscape:current-layer="Capa_1" />
<g
   id="g944"
   style="fill:#ffffff;fill-opacity:1">
	<g
   id="g942"
   style="fill:#ffffff;fill-opacity:1">
		<path
   d="M457.7,230.15c-7.5,0-13.5,6-13.5,13.5v122.8c0,33.4-27.2,60.5-60.5,60.5H87.5c-33.4,0-60.5-27.2-60.5-60.5v-124.8    c0-7.5-6-13.5-13.5-13.5s-13.5,6-13.5,13.5v124.8c0,48.3,39.3,87.5,87.5,87.5h296.2c48.3,0,87.5-39.3,87.5-87.5v-122.8    C471.2,236.25,465.2,230.15,457.7,230.15z"
   id="path938"
   style="fill:#ffffff;fill-opacity:1" />
		<path
   d="M159.3,126.15l62.8-62.8v273.9c0,7.5,6,13.5,13.5,13.5s13.5-6,13.5-13.5V63.35l62.8,62.8c2.6,2.6,6.1,4,9.5,4    c3.5,0,6.9-1.3,9.5-4c5.3-5.3,5.3-13.8,0-19.1l-85.8-85.8c-2.5-2.5-6-4-9.5-4c-3.6,0-7,1.4-9.5,4l-85.8,85.8    c-5.3,5.3-5.3,13.8,0,19.1C145.5,131.35,154.1,131.35,159.3,126.15z"
   id="path940"
   style="fill:#ffffff;fill-opacity:1" />
	</g>
</g>
<g
   id="g946">
</g>
<g
   id="g948">
</g>
<g
   id="g950">
</g>
<g
   id="g952">
</g>
<g
   id="g954">
</g>
<g
   id="g956">
</g>
<g
   id="g958">
</g>
<g
   id="g960">
</g>
<g
   id="g962">
</g>
<g
   id="g964">
</g>
<g
   id="g966">
</g>
<g
   id="g968">
</g>
<g
   id="g970">
</g>
<g
   id="g972">
</g>
<g
   id="g974">
</g>
</svg>
