<?xml version="1.0" encoding="UTF-8" standalone="no"?>
<svg
   xmlns:dc="http://purl.org/dc/elements/1.1/"
   xmlns:cc="http://creativecommons.org/ns#"
   xmlns:rdf="http://www.w3.org/1999/02/22-rdf-syntax-ns#"
   xmlns:svg="http://www.w3.org/2000/svg"
   xmlns="http://www.w3.org/2000/svg"
   xmlns:sodipodi="http://sodipodi.sourceforge.net/DTD/sodipodi-0.dtd"
   xmlns:inkscape="http://www.inkscape.org/namespaces/inkscape"
   version="1.1"
   id="svg833"
   width="706"
   height="847"
   viewBox="0 0 706 847"
   sodipodi:docname="imagemextra2.svg"
   inkscape:version="1.0.1 (3bc2e813f5, 2020-09-07)">
  <metadata
     id="metadata839">
    <rdf:RDF>
      <cc:Work
         rdf:about="">
        <dc:format>image/svg+xml</dc:format>
        <dc:type
           rdf:resource="http://purl.org/dc/dcmitype/StillImage" />
        <dc:title></dc:title>
      </cc:Work>
    </rdf:RDF>
  </metadata>
  <defs
     id="defs837">
    <inkscape:perspective
       sodipodi:type="inkscape:persp3d"
       inkscape:vp_x="0 : 473 : 1"
       inkscape:vp_y="0 : 1000 : 0"
       inkscape:vp_z="1000 : 473 : 1"
       inkscape:persp3d-origin="500 : 348.33333 : 1"
       id="perspective1098" />
    <filter
       inkscape:collect="always"
       style="color-interpolation-filters:sRGB"
       id="filter1065"
       x="-1.5333162e-05"
       width="1.0000308"
       y="-2.5674899e-05"
       height="1.0000513">
      <feGaussianBlur
         inkscape:collect="always"
         stdDeviation="0.025227475"
         id="feGaussianBlur1067" />
    </filter>
    <filter
       inkscape:collect="always"
       style="color-interpolation-filters:sRGB"
       id="filter1065-0"
       x="-1.5333162e-05"
       width="1.0000308"
       y="-2.5674899e-05"
       height="1.0000513">
      <feGaussianBlur
         inkscape:collect="always"
         stdDeviation="0.025227475"
         id="feGaussianBlur1067-3" />
    </filter>
    <filter
       inkscape:collect="always"
       style="color-interpolation-filters:sRGB"
       id="filter1065-9"
       x="-1.5333162e-05"
       width="1.0000308"
       y="-2.5674899e-05"
       height="1.0000513">
      <feGaussianBlur
         inkscape:collect="always"
         stdDeviation="0.025227475"
         id="feGaussianBlur1067-4" />
    </filter>
    <filter
       inkscape:collect="always"
       style="color-interpolation-filters:sRGB"
       id="filter1065-9-4"
       x="-1.5333162e-05"
       width="1.0000308"
       y="-2.5674899e-05"
       height="1.0000513">
      <feGaussianBlur
         inkscape:collect="always"
         stdDeviation="0.025227475"
         id="feGaussianBlur1067-4-1" />
    </filter>
  </defs>
  <sodipodi:namedview
     pagecolor="#ffffff"
     bordercolor="#666666"
     borderopacity="1"
     objecttolerance="10"
     gridtolerance="10"
     guidetolerance="10"
     inkscape:pageopacity="0"
     inkscape:pageshadow="2"
     inkscape:window-width="1366"
     inkscape:window-height="705"
     id="namedview835"
     showgrid="false"
     inkscape:zoom="0.0625"
     inkscape:cx="-1383.6512"
     inkscape:cy="63.512475"
     inkscape:window-x="-8"
     inkscape:window-y="240"
     inkscape:window-maximized="1"
     inkscape:current-layer="g841"
     inkscape:document-rotation="0"
     showguides="false" />
  <g
     inkscape:groupmode="layer"
     id="layer3"
     inkscape:label="mancha">
    <path
       style="fill:#cf988d;fill-opacity:1;stroke:none;stroke-width:1px;stroke-linecap:butt;stroke-linejoin:miter;stroke-opacity:1"
       d="M 124.82791,733.93323 C 43.189352,475.03888 78.73208,276.03823 157.75639,99.261889 199.07537,11.750714 286.24298,22.730532 370.53703,27.537431 442.54568,43.438683 494.98051,37.251108 602.6661,147.50449 714.69755,375.7715 609.37601,530.1388 557.21588,752.38983 Z"
       id="path1243"
       sodipodi:nodetypes="cccccc" />
  </g>
  <g
     inkscape:groupmode="layer"
     id="layer1"
     inkscape:label="corpo">
    <path
       style="opacity:1;fill:#eb6142;fill-opacity:0.996078;stroke:none;stroke-width:0.836411px;stroke-linecap:butt;stroke-linejoin:miter;stroke-opacity:1;filter:url(#filter1065)"
       d="m 429.14261,584.81359 0.55613,63.19886 c 123.53945,25.81369 215.33925,80.37252 245.78577,194.72657 L 49.424901,839.95354 C 97.105381,721.99576 184.52876,676.49839 286.31626,651.32382 l 2.60653,-66.96148 c 45.37124,16.45634 91.43291,17.37371 140.21982,0.45125 z"
       id="path1059"
       sodipodi:nodetypes="ccccccc" />
    <path
       style="opacity:0.993;fill:#b0c7ad;fill-opacity:1;stroke:none;stroke-width:1px;stroke-linecap:butt;stroke-linejoin:miter;stroke-opacity:1;filter:url(#filter1065)"
       d="m 429.69874,648.01245 c 164.27667,29.80026 221.80982,105.82384 245.78577,194.72657 L 49.424901,839.95354 C 100.46862,712.13853 200.69293,669.40692 286.31626,651.32382 c -4.90883,54.05135 14.01556,109.05118 68.77578,107.78232 84.05761,0.95497 76.25562,-81.06749 74.6067,-111.09369 z"
       id="path1236"
       sodipodi:nodetypes="cccccc" />
    <path
       style="fill:none;stroke:#000000;stroke-width:2.132;stroke-linecap:butt;stroke-linejoin:miter;stroke-miterlimit:4;stroke-dasharray:none;stroke-opacity:1"
       d="M 465.5368,656.37137 C 460.23915,727.62216 445.72224,787.71023 360.67966,785.80832 239.90792,787.94961 263.36201,668.30186 257.69867,658.85681"
       id="path1241"
       sodipodi:nodetypes="ccc" />
  </g>
  <g
     inkscape:groupmode="layer"
     id="layer4"
     inkscape:label="chápeu">
    <path
       style="opacity:1;fill:#b0c7ad;fill-opacity:1;stroke:none;stroke-width:1px;stroke-linecap:butt;stroke-linejoin:miter;stroke-opacity:1;filter:url(#filter1065)"
       d="m 514.42806,422.96685 c -1.37568,-13.8433 152.27259,-191.79181 11.02701,-293.18692 -62.68931,-38.416702 -199.9807,-73.577802 -331.08411,7.9007 -108.604309,80.00981 -47.76844,202.43521 -1.29391,284.78441 z"
       id="path1019"
       sodipodi:nodetypes="ccccc" />
    <path
       style="opacity:1;fill:#ffffff;fill-opacity:1;stroke:none;stroke-width:1px;stroke-linecap:butt;stroke-linejoin:miter;stroke-opacity:1;filter:url(#filter1065)"
       d="m 145.33856,321.29484 c 185.22311,-94.90957 325.04436,-101.86217 436.06475,-43.49045 8.00488,-43.23319 1.28839,-66.55999 -0.3492,-70.65115 -195.60093,-103.93257 -325.70528,-14.94441 -447.60867,39.03962 -0.0497,12.4377 0.32427,37.62302 11.89312,75.10198 z"
       id="path1053"
       sodipodi:nodetypes="ccccc" />
  </g>
  <g
     inkscape:groupmode="layer"
     id="layer2"
     inkscape:label="rosto">
    <path
       style="opacity:0.988;fill:#ffffff;fill-opacity:1;stroke:none;stroke-width:1.24398px;stroke-linecap:butt;stroke-linejoin:miter;stroke-opacity:1;filter:url(#filter1065)"
       d="m 456.69878,414.88096 c -12.97751,-7.23395 -37.32055,-9.06117 -66.30225,7.48164 -8.59578,9.28592 -7.69937,17.11979 0.0166,23.95755 27.50286,17.1558 54.0089,5.08047 64.50374,-16.73759 2.76109,-7.89237 3.20998,-12.20751 1.78188,-14.7016 z"
       id="path1002-0-6"
       sodipodi:nodetypes="ccccc" />
    <path
       style="opacity:0.988;fill:#1b212d;fill-opacity:0.996078;stroke:none;stroke-width:1.24398px;stroke-linecap:butt;stroke-linejoin:miter;stroke-opacity:1;filter:url(#filter1065)"
       d="m 438.68946,409.71261 c 6.91281,9.11531 4.23121,25.06809 -9.46068,32.73178 -22.33216,7.56501 -33.65985,-7.98725 -33.18127,-22.95751 11.60767,-6.40635 27.35175,-12.07688 42.64195,-9.77427 z"
       id="path1004-21-9"
       sodipodi:nodetypes="cccc" />
    <path
       style="opacity:0.995;fill:#ec6c4f;fill-opacity:1;stroke:none;stroke-width:1.28041px;stroke-linecap:butt;stroke-linejoin:miter;stroke-opacity:1;filter:url(#filter1065)"
       d="m 495.15579,341.89507 c -48.92327,-4.3997 -172.46629,-0.53466 -278.81879,0.10304 -6.90725,21.23012 -15.35268,174.38501 33.6849,220.89113 28.58666,25.16533 70.59201,35.7993 101.89283,35.91466 45.87815,-1.15377 86.05371,-4.31978 114.07039,-39.89964 45.21267,-56.17032 48.44873,-171.66179 29.17067,-217.00919 z"
       id="path979-0-9"
       sodipodi:nodetypes="cccccc" />
    <path
       style="opacity:1;fill:#1b212d;fill-opacity:0.996078;stroke:none;stroke-width:1.40393px;stroke-linecap:butt;stroke-linejoin:miter;stroke-opacity:1;filter:url(#filter1065)"
       d="m 375.63413,395.73849 c -8.60386,-7.6952 0.49334,-14.4435 3.11013,-15.2018 37.91745,-11.3663 97.32398,-1.1718 99.29718,7.731 0.11912,0.5363 -0.46943,1.8358 -1.93278,1.6599 -45.02904,-4.1984 -98.64513,10.553 -100.47453,5.8109 z"
       id="path1184-3"
       sodipodi:nodetypes="ccscc"
       inkscape:transform-center-x="9.6112635"
       inkscape:transform-center-y="-19.357411" />
    <path
       style="opacity:0.988;fill:#ffffff;fill-opacity:1;stroke:none;stroke-width:1.24939px;stroke-linecap:butt;stroke-linejoin:miter;stroke-opacity:1;filter:url(#filter1065)"
       d="m 264.85333,415.75609 c 13.44825,-7.45175 45.20672,-12.35092 66.19431,7.73865 8.53073,9.39934 7.58706,17.30619 -0.1637,24.18829 -27.58245,17.24436 -53.98956,4.97878 -64.34064,-17.07874 -2.71005,-7.9761 -3.13204,-12.33407 -1.68997,-14.8482 z"
       id="path1002-0-6-1"
       sodipodi:nodetypes="ccccc" />
    <path
       style="opacity:0.988;fill:#1b212d;fill-opacity:0.996078;stroke:none;stroke-width:1.24939px;stroke-linecap:butt;stroke-linejoin:miter;stroke-opacity:1;filter:url(#filter1065)"
       d="m 284.2792,409.85649 c -6.96231,9.18384 -4.35031,27.06529 9.28174,34.841 22.26482,7.70017 35.19206,-8.161 34.80583,-23.27681 -10.26114,-11.13316 -29.56774,-13.70662 -44.08757,-11.56419 z"
       id="path1004-21-9-5"
       sodipodi:nodetypes="cccc" />
    <path
       style="opacity:1;fill:#1b212d;fill-opacity:0.996078;stroke:none;stroke-width:1.39804px;stroke-linecap:butt;stroke-linejoin:miter;stroke-opacity:1;filter:url(#filter1065)"
       d="m 341.43497,398.17501 c 8.53182,-7.6952 -0.48921,-14.4435 -3.0841,-15.2018 -37.59999,-11.3663 -96.50916,-1.1718 -98.46584,7.731 -0.11812,0.5363 0.4655,1.8358 1.9166,1.6599 44.65205,-4.1984 97.81925,10.553 99.63334,5.8109 z"
       id="path1184-3-7"
       sodipodi:nodetypes="ccscc"
       inkscape:transform-center-x="-9.5307946"
       inkscape:transform-center-y="-19.357411" />
    <path
       style="opacity:0.995;fill:none;fill-opacity:0.996078;stroke:#1b212d;stroke-width:2.24306;stroke-linecap:butt;stroke-linejoin:miter;stroke-miterlimit:4;stroke-dasharray:none;stroke-opacity:0.996078;filter:url(#filter1065)"
       d="m 361.84573,449.23262 c 0.32453,15.20953 -27.6583,47.88733 -22.60707,57.06514 5.84222,5.7393 10.51141,4.64286 25.65231,6.2994"
       id="path2876-1-1"
       sodipodi:nodetypes="ccc" />
    <path
       style="opacity:1;fill:#1c222d;fill-opacity:1;stroke:none;stroke-width:1.10599px;stroke-linecap:butt;stroke-linejoin:miter;stroke-opacity:1;filter:url(#filter1065)"
       d="m 324.61631,549.33014 c 20.42862,1.54909 41.21318,1.92949 62.52874,-0.58428 2.89659,-0.68034 4.96741,3.13962 1.84056,4.35949 -37.8905,2.85979 -27.979,2.72709 -62.59076,0.65249 -3.46956,-1.43815 -4.18254,-4.39886 -1.7785,-4.4277 z"
       id="path1939-2-4-2"
       sodipodi:nodetypes="cccccc" />
    <path
       style="opacity:0.988;fill:#ffffff;fill-opacity:1;stroke:none;stroke-width:1.24939px;stroke-linecap:butt;stroke-linejoin:miter;stroke-opacity:1;filter:url(#filter1065-0)"
       d="m 427.9054,329.4899 c 13.44825,-7.45175 45.20672,-12.35092 66.19431,7.73865 8.53073,9.39934 7.58706,17.30619 -0.1637,24.18829 -27.58245,17.24436 -53.98956,4.97878 -64.34064,-17.07874 -2.71005,-7.9761 -3.13204,-12.33407 -1.68997,-14.8482 z"
       id="path1002-0-6-1-7"
       sodipodi:nodetypes="ccccc"
       transform="matrix(-0.96365063,0,0,1,869.76054,86.122305)" />
    <path
       style="opacity:0.988;fill:#1b212d;fill-opacity:0.996078;stroke:none;stroke-width:1.24939px;stroke-linecap:butt;stroke-linejoin:miter;stroke-opacity:1;filter:url(#filter1065-0)"
       d="m 447.33127,323.5903 c -6.96231,9.18384 -4.35031,27.06529 9.28174,34.841 22.26482,7.70017 35.40436,-8.5403 35.01813,-23.65611 -12.52811,-12.84662 -29.99587,-13.55291 -44.29987,-11.18489 z"
       id="path1004-21-9-5-0"
       sodipodi:nodetypes="cccc"
       transform="matrix(-0.96365063,0,0,1,869.76054,86.122305)" />
  </g>
  <g
     inkscape:groupmode="layer"
     inkscape:label="cabelo frente"
     id="g841"
     style="opacity:0.993;filter:url(#filter1065)">
    <path
       style="opacity:1;fill:#1b212d;fill-opacity:0.996078;stroke:none;stroke-width:1px;stroke-linecap:butt;stroke-linejoin:miter;stroke-opacity:1;filter:url(#filter1065)"
       d="m 288.88848,341.95744 c 0.25421,19.1287 -0.0708,30.6637 -21.91053,42.0603 -8.05264,6.7975 -12.59648,15.9181 -5.48988,32.7525 2.29253,13.2425 -10.72671,19.1604 -20.03439,26.8537 -12.42578,6.6831 -9.81895,20.3333 -6.90548,34.1257 -0.31743,5.6597 1.3061,9.1546 -4.63273,21.0841 1.73885,12.7355 -0.3319,22.3456 10.24028,42.3277 6.34402,15.681 -4.63461,24.689 -15.41291,33.7741 -1.41295,1.7492 -11.35547,5.1388 -0.56354,25.0137 4.18182,8.17774 5.28599,17.596 -8.53687,36.7404 -3.22882,5.3879 -11.85718,7.9098 -12.74292,14.6502 -0.92532,7.0416 6.62301,20.2439 7.14344,26.868 3.35171,14.6213 0.18205,18.3813 -3.63289,21.0666 -14.84577,4.9738 -20.34765,-5.6859 -24.81914,-18.0696 -11.02078,-29.5363 -7.09898,-46.215 3.83141,-56.8632 8.43882,-9.3934 15.9759,-18.8242 8.67428,-28.8681 -10.06315,-20.9257 2.62301,-30.9689 14.78209,-41.2642 8.81194,-11.1555 0.2127,-24.3055 -1.17661,-35.2829 -1.57575,2.9844 -5.71677,6.6194 -4.33873,19.407 0.30183,6.7983 4.22307,14.7184 -1.40145,24.1798 -36.96955,14.2876 -23.42981,30.945 -24.16294,38.0437 3.61478,23.9026 -11.04244,30.7301 -21.39368,41.5815 -24.36959,18.5656 -29.90447,15.0189 -33.83776,9.592 -10.89957,-7.6443 -1.61229,-15.6409 4.08919,-23.5749 11.89045,-9.4682 30.59888,-15.597 23.40297,-34.4137 -11.07711,-19.5302 7.35636,-36.9269 8.003,-36.9381 l 13.32352,-10.229 c 3.24571,-2.627 2.04049,-5.7316 1.70121,-8.7433 -1.41944,1.3712 -2.20325,2.9421 -4.9251,3.9043 -12.86479,3.3413 -27.66897,4.8494 -20.73317,17.6378 4.35205,14.4518 5.39061,27.7174 -11.36733,34.6126 -24.71142,5.2704 -20.74355,13.9191 -20.92741,28.0767 -0.0871,15.3763 0.70297,21.4593 -3.73276,21.978 -7.02074,0.8209 -18.945779,1.236 -21.134029,-14.4268 -6.13238,-34.8077 -0.81351,-40.3249 4.09108,-46.9018 13.050129,-9.3828 32.829289,-16.4113 25.428839,-32.9488 -2.21908,-10.533 1.24123,-19.0685 15.58744,-23.7756 15.01537,-1.349 15.5217,-12.009 13.57901,-24.2407 -0.0298,-14.6254 5.22686,-26.4707 19.92095,-33.3528 10.57511,-3.5709 16.7142,-10.0788 12.08796,-23.7145 -0.30416,-1.66388 -5.91461,-17.66505 12.11415,-22.2148 23.1353,-2.467 16.14157,-46.27593 15.98624,-64.58173 27.16466,-11.13083 52.76459,-8.97177 79.82519,-15.92587 z"
       id="path1017"
       sodipodi:nodetypes="ccccccccccscccccccccccccccccccccscccccccccc" />
    <path
       style="opacity:1;fill:#1b212d;fill-opacity:0.996078;stroke:none;stroke-width:1px;stroke-linecap:butt;stroke-linejoin:miter;stroke-opacity:1;filter:url(#filter1065)"
       d="m 459.12637,340.71968 c -6.92148,15.9901 -15.50805,31.3658 0.97734,55.9914 5.26683,8.7981 8.0649,17.993 -0.49373,29.0131 -4.41029,10.4371 -8.72583,20.8909 7.10984,34.8812 9.43469,9.6702 2.94917,19.6182 -0.98492,29.5217 -6.34986,11.7523 -9.87585,24.8554 6.32815,47.3968 2.07833,6.3305 8.39367,8.2734 3.38349,21.9443 -1.937,11.8897 -15.65593,19.3865 -0.8453,37.5204 12.73694,15.7515 7.50833,24.5468 2.58435,33.46 -8.27982,15.8149 -9.30923,34.3115 21.63128,64.6324 5.43135,1.1821 4.59166,7.2987 14.33133,4.4894 20.91656,-6.0334 7.78514,-17.9172 1.20375,-31.2646 -21.01476,-21.7664 -9.43959,-26.258 -6.61865,-35.3899 6.65748,-10.4002 14.82974,-20.0038 1.28415,-41.0287 -9.60135,-8.5593 -6.90415,-20.7046 -2.08443,-33.4687 6.66585,-23.4249 -0.87847,-29.603 -5.6188,-35.4073 -11.44345,-8.0885 -17.22319,-16.7605 -2.6018,-34.4599 8.50755,6.7048 28.38423,11.9639 9.86378,35.0832 -1.61279,20.3365 4.58089,25.2579 14.76705,29.4968 7.22056,4.2781 12.70435,9.7583 0.47994,27.4958 -5.00698,12.2447 -4.91573,23.4101 10.54822,31.3207 4.66799,1.6536 14.87178,7.4495 5.87439,21.4007 -4.51227,18.6741 -11.98437,43.4804 17.9511,25.6906 4.89461,-7.4021 9.8472,-17.031 13.98295,-29.7485 3.77563,-9.9669 2.18028,-21.2252 -10.09194,-33.8291 -11.70966,-9.369 -9.994,-18.1036 -5.97038,-26.8999 9.90571,-17.8752 -3.16262,-19.8484 -7.4876,-27.8735 -19.50439,-6.4079 -7.05098,-22.8302 -5.02288,-29.9169 3.8053,-11.3038 0.57459,-23.9458 -11.67025,-38.3022 -12.69372,-6.3436 -9.07018,-14.3797 -4.8789,-21.6681 3.61336,-7.6319 6.93288,-15.4154 -4.41825,-23.9265 -14.18483,-3.1519 -13.80691,-19.879 -10.7022,-25.8172 6.1548,-17.12183 2.46018,-18.04702 0.74563,-25.63428 z"
       id="path911"
       sodipodi:nodetypes="ccccccccccsccccccccccccccccccccccc" />
    <path
       style="opacity:1;fill:#e86e4f;fill-opacity:1;stroke:none;stroke-width:0.933753px;stroke-linecap:butt;stroke-linejoin:miter;stroke-opacity:1;filter:url(#filter1065)"
       d="m 489.57542,393.18358 c 7.5983,14.05041 2.6479,25.60625 -7.7831,35.87159 -3.3752,5.5742 -4.5461,11.55087 6.5894,16.90431 l 7.6472,7.29584 c 45.30118,-26.78915 6.5576,-57.65066 -6.4535,-60.07174 z"
       id="path1055"
       sodipodi:nodetypes="ccccc" />
    <path
       style="opacity:1;fill:#e86e4f;fill-opacity:1;stroke:none;stroke-width:0.687042px;stroke-linecap:butt;stroke-linejoin:miter;stroke-opacity:1;filter:url(#filter1065)"
       d="m 227.05781,434.38248 c -2.58244,-6.73017 -13.51064,-20.98498 3.57741,-30.76858 4.62455,-3.15961 5.6965,-6.19168 4.6708,-9.14843 -4.48027,-0.30478 -23.38738,0.91608 -27.52561,19.67273 -1.97249,17.77828 16.94156,28.65171 20.46636,29.26574 3.07125,-2.13165 0.70902,-5.63515 -1.18896,-9.02146 z"
       id="path1057"
       sodipodi:nodetypes="cccccc" />
    <path
       style="opacity:1;fill:#b0c7ad;fill-opacity:1;stroke:none;stroke-width:1px;stroke-linecap:butt;stroke-linejoin:miter;stroke-opacity:1;filter:url(#filter1065)"
       d="m 196.82112,292.67054 321.02695,-2.77468 -5.16499,85.52704 c -55.04011,-34.35326 -103.88966,-32.36563 -152.77381,-34.45167 -63.17241,-0.37477 -109.75733,12.57959 -154.07375,34.3216 z"
       id="path1021"
       sodipodi:nodetypes="cccccc" />
    <path
       style="fill:#1b212d;fill-opacity:0.996078;stroke:none;stroke-width:1px;stroke-linecap:butt;stroke-linejoin:miter;stroke-opacity:1"
       d="m 460.01281,565.47083 c 6.55435,14.07463 6.48845,14.12149 -6.49717,28.86778 -9.6464,13.3717 -3.6634,20.17299 -0.7568,28.26752 1.4437,9.39829 5.58026,20.38335 1.03226,30.48663 l -24.09236,-5.08031 -1.01899,-61.06546 c 13.77428,-5.61572 21.45361,-10.88471 31.33304,-21.47616 z"
       id="path1164"
       sodipodi:nodetypes="cccccccc" />
    <path
       style="fill:#1b212d;fill-opacity:0.996078;stroke:none;stroke-width:1px;stroke-linecap:butt;stroke-linejoin:miter;stroke-opacity:1"
       d="m 258.19199,569.46705 c 7.99228,15.14319 2.21833,40.29691 -4.86914,46.00768 -10.7723,7.93792 -2.50678,31.95105 4.37582,43.38208 -9.12649,2.63091 -18.1198,5.51697 -26.56257,9.45766 -4.0848,-13.57517 -24.23396,-38.69778 -10.86806,-55.99526 10.0368,-13.62796 12.7481,-27.37308 4.4748,-37.38367 -4.8842,-24.72777 2.141,-29.06795 8.0468,-35.32438 5.7462,11.834 14.11965,19.50915 25.40235,29.85589 z"
       id="path1166"
       sodipodi:nodetypes="cccccccc" />
    <path
       style="fill:#b0c7ad;fill-opacity:1;stroke:none;stroke-width:1px;stroke-linecap:butt;stroke-linejoin:miter;stroke-opacity:1"
       d="m 481.09416,611.38229 -8.219,-15.06164 29.3916,-17.83979 11.96405,20.37883 c -11.2021,4.24237 -22.84395,10.18132 -33.13665,12.5226 z"
       id="path1177"
       sodipodi:nodetypes="ccccc" />
    <path
       style="opacity:0.993;fill:#b0c7ad;fill-opacity:1;stroke:none;stroke-width:1px;stroke-linecap:butt;stroke-linejoin:miter;stroke-opacity:1;filter:url(#filter1065)"
       d="m 643.07338,408.29742 -8.219,-15.06164 29.3916,-17.83979 11.96405,20.37883 c -11.2021,4.24237 -22.84395,10.18132 -33.13665,12.5226 z"
       id="path1177-6"
       sodipodi:nodetypes="ccccc"
       transform="matrix(1.0464017,-0.13179276,0.13462171,1.0244125,-215.8331,171.30718)" />
    <path
       style="opacity:0.993;fill:#b0c7ad;fill-opacity:1;stroke:none;stroke-width:1px;stroke-linecap:butt;stroke-linejoin:miter;stroke-opacity:1;filter:url(#filter1065-9)"
       d="m 643.07338,408.29742 -8.219,-15.06164 29.3916,-17.83979 11.96405,20.37883 c -11.2021,4.24237 -22.84395,10.18132 -33.13665,12.5226 z"
       id="path1177-6-0"
       sodipodi:nodetypes="ccccc"
       transform="matrix(-0.09491318,-1.0503892,1.0285131,-0.09851365,-222.84129,1309.6863)" />
    <path
       style="opacity:0.993;fill:#b0c7ad;fill-opacity:1;stroke:none;stroke-width:1px;stroke-linecap:butt;stroke-linejoin:miter;stroke-opacity:1;filter:url(#filter1065-9-4)"
       d="m 643.07338,408.29742 -8.219,-15.06164 29.3916,-17.83979 11.96405,20.37883 c -11.2021,4.24237 -22.84395,10.18132 -33.13665,12.5226 z"
       id="path1177-6-0-7"
       sodipodi:nodetypes="ccccc"
       transform="matrix(-0.85707685,-0.61460984,0.59758814,-0.84287161,514.75692,1269.2682)"
       inkscape:transform-center-x="13.219163"
       inkscape:transform-center-y="-17.455857" />
  </g>
</svg>
