<?xml version="1.0" encoding="UTF-8" standalone="no"?>
<svg
   xmlns:dc="http://purl.org/dc/elements/1.1/"
   xmlns:cc="http://creativecommons.org/ns#"
   xmlns:rdf="http://www.w3.org/1999/02/22-rdf-syntax-ns#"
   xmlns:svg="http://www.w3.org/2000/svg"
   xmlns="http://www.w3.org/2000/svg"
   xmlns:sodipodi="http://sodipodi.sourceforge.net/DTD/sodipodi-0.dtd"
   xmlns:inkscape="http://www.inkscape.org/namespaces/inkscape"
   version="1.1"
   id="svg833"
   width="580"
   height="942"
   viewBox="0 0 580 942"
   sodipodi:docname="7.svg"
   inkscape:version="1.0.1 (3bc2e813f5, 2020-09-07)">
  <metadata
     id="metadata839">
    <rdf:RDF>
      <cc:Work
         rdf:about="">
        <dc:format>image/svg+xml</dc:format>
        <dc:type
           rdf:resource="http://purl.org/dc/dcmitype/StillImage" />
        <dc:title></dc:title>
      </cc:Work>
    </rdf:RDF>
  </metadata>
  <defs
     id="defs837" />
  <sodipodi:namedview
     pagecolor="#ffffff"
     bordercolor="#666666"
     borderopacity="1"
     objecttolerance="10"
     gridtolerance="10"
     guidetolerance="10"
     inkscape:pageopacity="0"
     inkscape:pageshadow="2"
     inkscape:window-width="1366"
     inkscape:window-height="705"
     id="namedview835"
     showgrid="false"
     inkscape:zoom="0.22333998"
     inkscape:cx="106.99434"
     inkscape:cy="733.41689"
     inkscape:window-x="-8"
     inkscape:window-y="240"
     inkscape:window-maximized="1"
     inkscape:current-layer="g841" />
  <g
     inkscape:groupmode="layer"
     id="layer1"
     inkscape:label="cabelo trás">
    <path
       style="fill:#1b212d;fill-opacity:1;stroke:none;stroke-width:1px;stroke-linecap:butt;stroke-linejoin:miter;stroke-opacity:1"
       d="M 449.49532,314.44405 C 435.27924,253.9511 421.42968,180.99259 415.58179,124.25192 408.29381,53.538229 371.84467,-0.64352052 293.61578,8.7820695 204.16359,20.420729 195.04626,93.636039 196.88511,176.02525 c 0.17131,72.40573 -11.02055,115.39728 -21.71298,162.97157 23.6668,-2.91767 91.84198,-59.23488 274.32319,-24.55277 z"
       id="path918"
       sodipodi:nodetypes="cscccc" />
  </g>
  <g
     inkscape:groupmode="layer"
     inkscape:label="Image"
     id="g841">
    <path
       style="fill:#f3d9b8;fill-opacity:1;stroke:none;stroke-width:1px;stroke-linecap:butt;stroke-linejoin:miter;stroke-opacity:1"
       d="m 258.15428,179.14465 c -6.10177,47.99422 37.57955,68.40982 82.46565,66.84062 58.64136,-0.8751 82.60912,-33.37036 76.82327,-75.95525 l -9.11463,-44.27103 -10.8026,-37.480011 c -44.80367,0.50548 -84.96714,-0.84511 -127.2062,-1.36547 l -10.63096,50.185111 z"
       id="path845"
       sodipodi:nodetypes="cccccccc" />
    <path
       style="fill:#fdfdfb;fill-opacity:1;stroke:none;stroke-width:1px;stroke-linecap:butt;stroke-linejoin:miter;stroke-opacity:1"
       d="m 366.44151,151.00361 c 0.46652,-5.3503 13.67892,-19.5192 32.22671,-23.3291 -0.91157,6.3121 -0.0995,24.0462 -16.92716,31.7926 -6.24179,2.4545 -11.63975,1.9919 -15.29955,-8.4635 z"
       id="path847"
       sodipodi:nodetypes="cccc" />
    <path
       style="fill:#fdfcfa;fill-opacity:1;stroke:none;stroke-width:1px;stroke-linecap:butt;stroke-linejoin:miter;stroke-opacity:1"
       d="m 281.37168,140.93641 c 3.19066,-2.0213 32.76577,-6.7354 52.08357,7.7041 8.05085,10.9706 -12.0376,17.4119 -18.66328,16.7101 -21.47635,-1.7066 -32.69129,-22.3607 -33.42029,-24.4142 z"
       id="path849"
       sodipodi:nodetypes="cccc" />
    <path
       style="fill:#191d28;fill-opacity:1;stroke:none;stroke-width:1px;stroke-linecap:butt;stroke-linejoin:miter;stroke-opacity:1"
       d="m 333.45525,148.64051 c 3.98292,-4.7776 -28.84931,-25.8723 -62.41218,-17.0525 -5.33582,1.6691 2.70691,10.9198 4.83376,10.5115 15.8383,-2.8622 36.44993,-4.4192 57.57842,6.541 z"
       id="path851"
       sodipodi:nodetypes="cccc" />
    <path
       style="fill:#191d28;fill-opacity:1;stroke:none;stroke-width:1px;stroke-linecap:butt;stroke-linejoin:miter;stroke-opacity:1"
       d="m 366.14311,150.92221 c -4.4265,-9.6382 19.21884,-30.3971 36.71582,-34.9097 1.05849,-0.5038 2.93299,9.7835 -2.34289,11.4826 -11.88773,1.0446 -30.43337,13.2716 -34.37293,23.4271 z"
       id="path861"
       sodipodi:nodetypes="cccc" />
    <path
       style="fill:#191d28;fill-opacity:1;stroke:none;stroke-width:1px;stroke-linecap:butt;stroke-linejoin:miter;stroke-opacity:1"
       d="m 295.02205,139.41319 c -1.04181,8.63525 0.71412,19.68121 13.41394,21.44615 8.0316,1.64847 16.09486,-2.65257 15.74207,-16.53566 -11.61458,-4.48069 -20.36081,-4.65886 -29.15601,-4.91049 z"
       id="path876"
       sodipodi:nodetypes="cccc" />
    <path
       style="fill:#191d28;fill-opacity:1;stroke:none;stroke-width:0.784191px;stroke-linecap:butt;stroke-linejoin:miter;stroke-opacity:1"
       d="m 366.82515,148.85527 c 4.42669,5.17474 11.32997,10.05179 18.70546,3.1834 4.96944,-4.06413 4.55028,-15.33889 1.02088,-19.95857 -8.99769,4.41012 -16.54616,10.68586 -19.72634,16.77517 z"
       id="path876-4"
       sodipodi:nodetypes="cccc" />
    <path
       style="fill:none;stroke:#000000;stroke-width:1.5;stroke-linecap:butt;stroke-linejoin:miter;stroke-miterlimit:4;stroke-dasharray:none;stroke-opacity:1"
       d="m 355.69341,155.00144 c 0.91132,8.62764 2.44291,12.8595 10.40394,24.76306 1.04686,3.45695 -1.74999,4.23409 -4.29667,5.52429 -7.66494,2.13832 -14.10273,1.97001 -20.03875,-1.59356"
       id="path893"
       sodipodi:nodetypes="cccc" />
    <path
       style="fill:#191d28;fill-opacity:1;stroke:none;stroke-width:0.660266px;stroke-linecap:butt;stroke-linejoin:miter;stroke-opacity:1"
       d="m 329.07854,206.4149 c 15.17617,1.9155 27.72931,2.30644 38.56289,1.69794 1.49471,0.16412 1.56368,2.29566 -0.39551,2.25492 -14.26147,0.45861 -26.68709,-0.6064 -38.34678,-2.30708 -1.39044,0.0289 -1.72512,-1.76555 0.1794,-1.64578 z"
       id="path895"
       sodipodi:nodetypes="ccccc" />
    <path
       style="fill:#f1dab2;fill-opacity:1;stroke:none;stroke-width:1px;stroke-linecap:butt;stroke-linejoin:miter;stroke-opacity:1"
       d="m 407.92411,125.43621 c 4.01933,-0.53236 18.01533,3.10496 20.86956,15.34527 2.48756,6.90909 -0.95529,23.21734 -11.35047,29.24854 z"
       id="path897"
       sodipodi:nodetypes="cccc" />
    <path
       style="fill:#f6dab5;fill-opacity:1;stroke:none;stroke-width:1px;stroke-linecap:butt;stroke-linejoin:miter;stroke-opacity:1"
       d="m 258.15428,179.14465 c -15.89549,1.33287 -33.72475,-0.87401 -33.45268,-23.63171 0.53879,-18.02452 14.35315,-25.52009 34.98721,-18.41432 3.48336,14.62063 1.68035,28.44029 -1.53453,42.04603 z"
       id="path899"
       sodipodi:nodetypes="cccc" />
    <path
       style="fill:#1c212c;fill-opacity:1;stroke:none;stroke-width:0.68559px;stroke-linecap:butt;stroke-linejoin:miter;stroke-opacity:1"
       d="m 245.34442,166.92706 c -0.85575,-6.62756 3.68167,-9.35559 9.70299,-11.63803 0.81151,-0.3765 1.06423,0.61069 0.59845,0.8049 -5.72589,2.84109 -8.47647,6.27334 -9.38323,10.97689 -0.18957,0.61723 -0.85158,0.5109 -0.91821,-0.14376 z"
       id="path901"
       sodipodi:nodetypes="ccccc" />
    <path
       style="fill:#1c212c;fill-opacity:1;stroke:none;stroke-width:1px;stroke-linecap:butt;stroke-linejoin:miter;stroke-opacity:1"
       d="m 247.12759,146.86499 c 9.45952,3.28944 10.29832,10.86956 9.60997,20.04476 0,1.28207 -1.48728,0.9516 -1.4578,0.23018 -0.24852,-9.16812 -3.15201,-14.93833 -8.91943,-19.20076 -0.71275,-0.64922 -0.15595,-1.42191 0.76726,-1.07418 z"
       id="path901-1"
       sodipodi:nodetypes="ccccc" />
    <path
       style="fill:#1b212d;fill-opacity:1;stroke:none;stroke-width:1px;stroke-linecap:butt;stroke-linejoin:miter;stroke-opacity:1"
       d="m 364.24269,122.37957 c 8.5552,-4.82259 19.40339,-8.75553 32.80051,-10.16624 5.53456,-0.43478 2.6929,-4.74424 0.65217,-4.79539 -17.41407,-2.8563 -29.55834,-0.28779 -37.13555,6.98209 -1.78038,1.88187 -2.22832,9.62713 3.68287,7.97954 z"
       id="path924"
       sodipodi:nodetypes="ccccc" />
    <path
       style="fill:#1b212d;fill-opacity:1;stroke:none;stroke-width:1.132px;stroke-linecap:butt;stroke-linejoin:miter;stroke-opacity:1"
       d="m 319.67296,126.87845 c -10.90311,-3.62199 -24.32582,-5.88681 -40.26644,-5.00735 -6.55801,0.52122 -4.02728,-4.58175 -1.64819,-4.99951 19.85478,-6.14634 34.54269,-5.56771 44.75272,0.83904 2.43105,1.69065 4.38453,9.87337 -2.83809,9.16782 z"
       id="path924-2"
       sodipodi:nodetypes="ccccc" />
    <path
       style="fill:#1b212d;fill-opacity:1;stroke:none;stroke-width:1px;stroke-linecap:butt;stroke-linejoin:miter;stroke-opacity:1"
       d="m 257.9378,119.13675 c 6.1097,3.77597 9.83163,10.77542 19.60807,9.60131 9.92343,-1.19625 11.70091,-23.73087 12.72714,-41.428031 4.76621,14.876871 5.62521,18.685971 7.16149,33.562841 19.17227,-1.19223 45.5275,-6.85019 62.93432,-5.07898 0.44362,-12.28071 1.1497,-14.98209 -0.87897,-28.023501 2.93049,4.26729 10.18993,10.507 9.48509,27.229911 -0.2131,6.04343 4.55364,4.26113 8.01798,2.21929 7.45606,-4.39452 13.76967,-6.67125 20.70245,-9.80165 2.57276,-9.553891 -0.4958,-20.048001 -2.60417,-30.382081 l -83.33371,-51.64954 c -21.00399,29.31493 -47.31168,55.28015 -53.81969,93.750431 z"
       id="path957"
       sodipodi:nodetypes="cccccccscccc" />
    <path
       style="fill:#eecb9f;fill-opacity:1;stroke:none;stroke-width:1px;stroke-linecap:butt;stroke-linejoin:miter;stroke-opacity:1"
       d="m 364.8159,243.15466 15.19104,60.87267 25.17372,3.03821 c 5.38873,18.38344 7.73649,47.36817 -21.26745,55.12177 -36.66886,16.15001 -96.58808,-27.44571 -123.111,-51.29448 l 21.6225,-3.80096 0.68828,-74.11829 c 17.87319,8.56032 45.72882,16.98722 81.70291,10.18108 z"
       id="path959"
       sodipodi:nodetypes="cccccccc" />
    <path
       style="fill:#7bb29b;fill-opacity:1;stroke:none;stroke-width:0.84787px;stroke-linecap:butt;stroke-linejoin:miter;stroke-opacity:1"
       d="m 540.30366,931.17936 c -4.66296,-38.8059 -22.58929,-77.61171 -36.01478,-116.4176 L 251.65291,796.80324 c -3.92698,-0.88562 -83.48076,125.53672 -77.4994,132.57112 3.93286,4.6253 366.15015,1.805 366.15015,1.805 z"
       id="path963"
       sodipodi:nodetypes="cccsc" />
    <path
       style="fill:#a53f33;fill-opacity:1;stroke:none;stroke-width:1px;stroke-linecap:butt;stroke-linejoin:miter;stroke-opacity:1"
       d="m 405.18066,307.06554 c 28.5347,4.90575 73.30525,2.33456 98.95878,47.09222 18.14142,33.60601 25.8543,69.72014 28.96538,108.52896 0.099,83.59946 9.46,165.29762 20.02331,246.48224 0.76977,24.06164 20.32442,123.5459 -14.73146,127.6726 l 0.92072,35.2943 -16.49616,0.077 c -8.99884,-8.9725 -4.63083,-28.76985 -14.74344,-35.04774 C 435.07497,791.84509 322.62235,821.7098 250.1563,796.15417 238.53057,731.86671 201.37484,464.63627 175.17213,338.99712 c 26.6532,-11.68097 58.1807,-24.3847 85.63008,-28.10399 71.79179,63.7163 160.0605,78.76575 144.37845,-3.82729 z"
       id="path961"
       sodipodi:nodetypes="cccccccscccc" />
    <path
       style="fill:#f3d9b8;fill-opacity:1;stroke:none;stroke-width:1px;stroke-linecap:butt;stroke-linejoin:miter;stroke-opacity:1"
       d="m 539.31739,872.13586 -0.92072,18.8824 c 7.43334,11.3093 9.90428,24.8022 10.12788,39.2838 l -11.2438,-0.1983 c -3.32601,-20.7909 -9.58411,-38.6497 -14.45952,-57.8912 z"
       id="path965"
       sodipodi:nodetypes="cccccc" />
    <path
       style="fill:#1d202c;fill-opacity:1;stroke:none;stroke-width:1px;stroke-linecap:butt;stroke-linejoin:miter;stroke-opacity:1"
       d="m 484.70421,418.74196 c 41.99285,100.99591 26.98295,151.57222 23.95514,170.62634 -5.57549,30.13665 -8.50994,46.81101 -18.31275,72.86434 l -1.95313,-7.37851 c 27.03002,-89.64807 29.31896,-145.94755 -6.42846,-233.22675 -1.37622,-5.81042 2.7392,-2.88542 2.7392,-2.88542 z"
       id="path967"
       sodipodi:nodetypes="cccccc" />
    <path
       style="fill:none;stroke:#1d202c;stroke-width:2.1;stroke-linecap:butt;stroke-linejoin:miter;stroke-miterlimit:4;stroke-dasharray:none;stroke-opacity:1"
       d="m 416.78705,308.96647 c 7.88606,29.21554 -1.59856,57.28026 -26.95876,64.28002 -54.65882,16.22241 -111.98846,-31.27308 -142.1639,-57.4717"
       id="path969"
       sodipodi:nodetypes="ccc" />
    <path
       style="fill:#7bb29b;fill-opacity:1;stroke:none;stroke-width:1px;stroke-linecap:butt;stroke-linejoin:miter;stroke-opacity:1"
       d="M 501.03366,814.11072 464.20502,609.71174 203.33545,650.83706 226.66026,858.61205 Z"
       id="path989"
       sodipodi:nodetypes="ccccc" />
    <path
       style="fill:#f5dab3;fill-opacity:1;stroke:none;stroke-width:1px;stroke-linecap:butt;stroke-linejoin:miter;stroke-opacity:1"
       d="m 464.20502,609.71174 16.57289,9.20716 43.58056,217.28901 -23.32481,-22.09719 z"
       id="path991" />
    <path
       style="fill:#f5dab3;fill-opacity:1;stroke:none;stroke-width:1px;stroke-linecap:butt;stroke-linejoin:miter;stroke-opacity:1"
       d="m 226.66026,858.61195 8.59335,10.43481 289.10486,-32.83885 -23.32481,-22.09719 z"
       id="path993" />
    <path
       style="fill:#59380c;fill-opacity:1;stroke:none;stroke-width:1px;stroke-linecap:butt;stroke-linejoin:miter;stroke-opacity:1"
       d="m 428.60399,668.63757 19.02814,82.86445 -28.84911,4.29668 -13.50383,-82.86445 z"
       id="path995"
       sodipodi:nodetypes="ccccc" />
    <path
       style="fill:#1d202c;fill-opacity:1;stroke:#000000;stroke-width:1.02865px;stroke-linecap:butt;stroke-linejoin:miter;stroke-opacity:1"
       d="m 500.12267,815.07646 c -0.39417,-1.07023 1.3237,-2.40696 2.14338,-1.72626 9.36397,6.99903 15.16666,15.09385 22.08318,22.84594 -7.69066,-6.10524 -15.16257,-11.67921 -24.22656,-21.11968 z"
       id="path999"
       sodipodi:nodetypes="cccc" />
    <path
       style="fill:#1d202c;fill-opacity:1;stroke:#000000;stroke-width:1px;stroke-linecap:butt;stroke-linejoin:miter;stroke-opacity:1"
       d="m 348.34824,839.12345 c -32.19333,3.94697 -86.81893,11.3813 -119.07928,17.1867 -2.58742,-20.34948 -8.26225,-51.38847 -11.2579,-70.92146 2.93646,22.11287 5.38858,54.91492 8.6492,73.22326 40.24716,-4.11255 91.55691,-13.96873 121.68798,-19.4885 z"
       id="path1001"
       sodipodi:nodetypes="ccccc" />
    <path
       style="fill:#a53f33;fill-opacity:1;stroke:none;stroke-width:1.07521px;stroke-linecap:butt;stroke-linejoin:miter;stroke-opacity:1"
       d="M 308.38713,754.22489 271.0308,734.5859 c -6.07195,-32.43959 -8.99198,-50.58896 -26.83535,-62.39695 L 182.07446,627.3847 c 25.12832,-46.46425 29.30996,-92.72253 51.07725,-140.72319 L 175.17213,338.99682 C 146.94558,349.58166 49.642944,468.22956 18.489214,666.50954 c -3.60615,19.77386 -1.62925,35.71949 10.3535,44.80424 38.07456,31.84976 79.493976,63.69952 141.985856,95.54929 14.44101,5.77588 33.22541,-1.21363 61.80039,-10.7092 l 46.1272,19.30102 z"
       id="path1003"
       sodipodi:nodetypes="cccccccccccc" />
    <path
       style="fill:#f5dab3;fill-opacity:1;stroke:none;stroke-width:1px;stroke-linecap:butt;stroke-linejoin:miter;stroke-opacity:1"
       d="m 281.03771,810.84338 c 30.1546,13.6993 63.59105,25.1133 85.28685,50.34737 8.4411,6.38081 13.6217,10.19361 24.8164,14.34941 5.5875,1.466 13.1542,-0.5555 9.906,-8.707 5.2045,0.6765 18.9689,5.44 20.3249,-7.68541 12.6225,1.0168 11.6587,-10.55407 11.7933,-10.54387 19.89651,1.5191 12.7715,-8.8345 11.2847,-16.4931 10.32079,-0.8591 18.39875,-5.057 13.88899,-10.4167 -17.14429,-7.6062 -30.24759,-19.4556 -43.40299,-31.2501 -13.5493,-8.6681 -32.1446,-8.926 -50.7815,-9.1147 -22.1823,-3.2978 -42.04471,-10.46205 -60.76411,-19.53131 z"
       id="path1005"
       sodipodi:nodetypes="cccccscccccc" />
    <path
       style="fill:#000000;fill-opacity:1;stroke:none;stroke-width:1px;stroke-linecap:butt;stroke-linejoin:miter;stroke-opacity:1"
       d="m 457.03298,824.66838 c 0.94901,-1.4163 1.44943,-2.5322 1.96112,-2.5498 0.93335,-0.032 1.3083,2.2829 1.03121,3.5472 -2.66901,3.7304 -5.63093,6.5734 -15.57545,6.445 1.9013,2.7319 3.18273,4.5552 1.47551,13.7867 -1.4856,1.4829 -1.31553,0.7386 -1.37023,-2.2755 2.1972,-11.4189 -12.4781,-19.5266 -28.514,-28.8118 -2.5326,-2.4038 -1.09814,-3.409 1.49726,-2.0213 16.1436,8.805 31.06206,23.8944 39.49458,11.8795 z"
       id="path1007"
       sodipodi:nodetypes="csccccccc" />
    <path
       style="fill:#000000;fill-opacity:1;stroke:none;stroke-width:0.959377px;stroke-linecap:butt;stroke-linejoin:miter;stroke-opacity:1"
       d="m 412.30681,836.55338 c 7.73165,2.9714 14.0806,6.6618 19.82679,10.6658 2.31967,2.1342 -0.009,1.508 -2.03791,1.0599 -9.01391,-2.7475 -14.47261,-6.5277 -19.86425,-10.3273 -1.90817,-1.7194 -1.83934,-2.4858 2.07537,-1.3984 z"
       id="path1009"
       sodipodi:nodetypes="ccccc"
       inkscape:transform-center-x="-3.2581938"
       inkscape:transform-center-y="2.8207611" />
    <path
       style="fill:#000000;fill-opacity:1;stroke:none;stroke-width:0.968657px;stroke-linecap:butt;stroke-linejoin:miter;stroke-opacity:1"
       d="m 401.12513,846.01268 c 7.57987,3.0977 13.786,6.9344 19.39337,11.09317 2.25621,2.2143 -0.0306,1.5592 -2.02452,1.0892 -8.84744,-2.8706 -14.1745,-6.79707 -19.43526,-10.74337 -1.85644,-1.784 -1.77754,-2.5762 2.06641,-1.439 z"
       id="path1009-7"
       sodipodi:nodetypes="ccccc" />
    <path
       style="fill:#000000;fill-opacity:1;stroke:none;stroke-width:0.92408px;stroke-linecap:butt;stroke-linejoin:miter;stroke-opacity:1"
       d="m 384.52182,854.17748 c 6.42261,3.12197 11.64489,7.05718 16.34398,11.34688 1.87551,2.2996 -0.07,1.6541 -1.7692,1.1985 -7.51759,-2.8539 -11.98245,-6.90321 -16.38965,-10.97501 -1.54434,-1.85187 -1.4544,-2.69367 1.81487,-1.57037 z"
       id="path1009-7-0"
       sodipodi:nodetypes="ccccc" />
    <path
       style="fill:#000000;fill-opacity:1;stroke:none;stroke-width:0.881845px;stroke-linecap:butt;stroke-linejoin:miter;stroke-opacity:1"
       d="m 361.37687,854.76388 c 4.13961,7.12668 10.38652,9.25218 15.17354,12.18408 1.56362,2.3697 -0.21454,1.5754 -1.77729,0.9852 -6.8387,-3.4131 -10.689,-7.69151 -14.48278,-11.98611 -1.29123,-1.91147 -1.89809,-2.55477 1.08653,-1.18317 z"
       id="path1009-7-0-5"
       sodipodi:nodetypes="ccccc" />
    <path
       style="fill:#000000;fill-opacity:1;stroke:none;stroke-width:1.72257px;stroke-linecap:butt;stroke-linejoin:miter;stroke-opacity:1"
       d="m 149.2355,607.69258 c 10.74993,7.23228 22.7293,14.00187 32.83896,19.69212 3.71689,4.13477 0.13975,2.36162 -3.09512,1.61728 -14.37975,-4.83877 -23.11209,-12.05401 -31.73774,-19.31396 -3.05717,-3.3277 -4.25002,-3.88249 1.9939,-1.99544 z"
       id="path1009-7-0-51"
       sodipodi:nodetypes="ccccc" />
    <path
       style="fill:#1d202c;fill-opacity:1;stroke:none;stroke-width:1.14914px;stroke-linecap:butt;stroke-linejoin:miter;stroke-opacity:1"
       d="m 233.54623,458.1602 2.9682,1.56782 c 0.4624,-23.35053 12.64241,-110.52578 -55.30709,-123.20468 l -4.749,2.74368 c 47.2187,5.39017 62.06499,49.45067 57.08789,118.89318 z"
       id="path1071"
       sodipodi:nodetypes="ccccc" />
  </g>
</svg>
