<?xml version="1.0" encoding="UTF-8" standalone="no"?>
<svg
   xmlns:dc="http://purl.org/dc/elements/1.1/"
   xmlns:cc="http://creativecommons.org/ns#"
   xmlns:rdf="http://www.w3.org/1999/02/22-rdf-syntax-ns#"
   xmlns:svg="http://www.w3.org/2000/svg"
   xmlns="http://www.w3.org/2000/svg"
   xmlns:sodipodi="http://sodipodi.sourceforge.net/DTD/sodipodi-0.dtd"
   xmlns:inkscape="http://www.inkscape.org/namespaces/inkscape"
   width="245"
   height="199"
   viewBox="0 0 245 199"
   fill="none"
   version="1.1"
   id="svg889"
   sodipodi:docname="logo.svg"
   inkscape:version="1.0.1 (0767f8302a, 2020-10-17)">
  <metadata
     id="metadata895">
    <rdf:RDF>
      <cc:Work
         rdf:about="">
        <dc:format>image/svg+xml</dc:format>
        <dc:type
           rdf:resource="http://purl.org/dc/dcmitype/StillImage" />
        <dc:title />
      </cc:Work>
    </rdf:RDF>
  </metadata>
  <defs
     id="defs893" />
  <sodipodi:namedview
     pagecolor="#ffffff"
     bordercolor="#666666"
     borderopacity="1"
     objecttolerance="10"
     gridtolerance="10"
     guidetolerance="10"
     inkscape:pageopacity="0"
     inkscape:pageshadow="2"
     inkscape:window-width="970"
     inkscape:window-height="518"
     id="namedview891"
     showgrid="false"
     inkscape:zoom="1.0748032"
     inkscape:cx="78.600875"
     inkscape:cy="118.6303"
     inkscape:window-x="1366"
     inkscape:window-y="370"
     inkscape:window-maximized="0"
     inkscape:current-layer="svg889"
     inkscape:document-rotation="0" />
  <path
     d="m 45.703518,191.78932 c -4.1813,0 -8.0213,-0.981 -11.52,-2.944 -3.4987,-1.963 -6.272,-4.672 -8.32,-8.128 -2.048,-3.499 -3.072,-7.445 -3.072,-11.84 0,-4.352 1.024,-8.256 3.072,-11.712 2.048,-3.499 4.8213,-6.229 8.32,-8.192 3.4987,-1.963 7.3387,-2.944 11.52,-2.944 4.224,0 8.064,0.981 11.52,2.944 3.499002,1.963 6.251002,4.693 8.256002,8.192 2.048,3.456 3.072,7.36 3.072,11.712 0,4.395 -1.024,8.341 -3.072,11.84 -2.005,3.456 -4.757,6.165 -8.256002,8.128 -3.4987,1.963 -7.3387,2.944 -11.52,2.944 z m 0,-8 c 2.688,0 5.056,-0.597 7.104,-1.792 2.048,-1.237 3.648,-2.987 4.8,-5.248 1.152002,-2.261 1.728002,-4.885 1.728002,-7.872 0,-2.987 -0.576,-5.589 -1.728002,-7.808 -1.152,-2.261 -2.752,-3.989 -4.8,-5.184 -2.048,-1.195 -4.416,-1.792 -7.104,-1.792 -2.688,0 -5.0773,0.597 -7.168,1.792 -2.048,1.195 -3.648,2.923 -4.8,5.184 -1.152,2.219 -1.728,4.821 -1.728,7.808 0,2.987 0.576,5.611 1.728,7.872 1.152,2.261 2.752,4.011 4.8,5.248 2.0907,1.195 4.48,1.792 7.168,1.792 z m 49.162002,-28.416 c 4.224,0 7.637,1.344 10.24,4.032 2.603,2.645 3.904,6.357 3.904,11.136 v 20.8 h -8.96 v -19.584 c 0,-2.816 -0.704,-4.971 -2.112,-6.464 -1.408,-1.536 -3.328,-2.304 -5.76,-2.304 -2.475,0 -4.437,0.768 -5.888,2.304 -1.408,1.493 -2.112,3.648 -2.112,6.464 v 19.584 h -8.96 v -35.456 h 8.96 v 4.416 c 1.195,-1.536 2.709,-2.731 4.544,-3.584 1.877,-0.896 3.925,-1.344 6.144,-1.344 z m 31.497,-8.704 v 27.648 c 0,3.029 0.789,5.355 2.368,6.976 1.578,1.579 3.797,2.368 6.656,2.368 2.901,0 5.141,-0.789 6.72,-2.368 1.578,-1.621 2.368,-3.947 2.368,-6.976 v -27.648 h 9.024 v 27.584 c 0,3.797 -0.832,7.019 -2.496,9.664 -1.622,2.603 -3.819,4.565 -6.592,5.888 -2.731,1.323 -5.782,1.984 -9.152,1.984 -3.328,0 -6.358,-0.661 -9.088,-1.984 -2.688,-1.323 -4.822,-3.285 -6.4,-5.888 -1.579,-2.645 -2.368,-5.867 -2.368,-9.664 v -27.584 z m 55.441,8.704 c 4.224,0 7.637,1.344 10.24,4.032 2.602,2.645 3.904,6.357 3.904,11.136 v 20.8 h -8.96 v -19.584 c 0,-2.816 -0.704,-4.971 -2.112,-6.464 -1.408,-1.536 -3.328,-2.304 -5.76,-2.304 -2.475,0 -4.438,0.768 -5.888,2.304 -1.408,1.493 -2.112,3.648 -2.112,6.464 v 19.584 h -8.96 v -35.456 h 8.96 v 4.416 c 1.194,-1.536 2.709,-2.731 4.544,-3.584 1.877,-0.896 3.925,-1.344 6.144,-1.344 z m 27.208,-3.712 c -1.579,0 -2.901,-0.491 -3.968,-1.472 -1.024,-1.024 -1.536,-2.283 -1.536,-3.776 0,-1.493 0.512,-2.731 1.536,-3.712 1.067,-1.024 2.389,-1.536 3.968,-1.536 1.579,0 2.88,0.512 3.904,1.536 1.067,0.981 1.6,2.219 1.6,3.712 0,1.493 -0.533,2.752 -1.6,3.776 -1.024,0.981 -2.325,1.472 -3.904,1.472 z m 4.416,4.224 v 35.456 h -8.96 v -35.456 z"
     fill="white"
     id="path883"
     style="fill:#ffffff;fill-opacity:1" />
  <path
     d="m 245.17352,17.931317 -4.601,2.6958 -7.535,4.5884 c -0.919,0.1646 -1.962,0.2025 -2.955,0.2913 -0.221,-0.7546 -0.363,-1.6426 -0.088,-3.235 0.062,-0.7094 0.823,0.0383 1.404,2.595 -1.095,3.0722 -3.826,5.1956 -5.741,7.7925 l -5.523,5.4008 -3.569,3.6044 c -2.158,1.9223 -2.331,1.6693 -3.155,2.2365 -1.567,0.7811 -3.199,1.5241 -5.749,1.7228 -2.221,0.347 -4.65,0.6833 -6.295,0.9468 l -4.235,1.1046 -3.362,2.4263 c -1.096,1.5083 -1.189,1.5371 -1.687,3.4465 -0.495,1.8825 -1.031,3.4515 -1.41,5.0903 -0.492,1.9489 -0.921,3.3318 0.125,5.703 l 1.344,2.3582 3.928,4.1599 7.078,6.3802 3.805,2.1566 1.415,0.3595 1.41,-0.2488 0.89,-0.3804 0.443,-0.7651 c 0,0 0.164,-0.8019 -0.03,-1.8871 -0.156,-0.6822 -0.651,-1.5849 -1.32,-2.6232 -0.352,-0.5481 -0.72,-0.752 -2.056,-1.3294 -1.371,-0.2972 -2.584,-1.4892 -3.849,-0.3145 -0.264,0.2552 -0.596,0.476 -0.177,1.0783 0.496,0.5534 0.949,0.7032 1.327,0.1798 0.778,-1.0484 -0.117,-2.0968 -0.177,-3.1452 l -1.371,-1.8871 -1.927,-2.2125 c -0.488,-1.5587 -0.759,-2.2314 -1.352,-3.0443 -0.725,-1.0577 -0.367,-2.8754 -0.57,-4.3583 -0.806,-0.6746 -1.773,-1.0529 -2.831,-1.3479 -0.47,-0.0742 -0.914,0.1655 -2.018,0.5908 -1.377,0.8307 1.177,1.3243 2.106,1.3861 1.806,-0.1487 2.122,-0.2437 3.009,-0.8087 0.632,-0.533 1.541,-0.7006 2.358,-1.6438 0.409,-0.4949 0.427,-1.1163 -0.323,-2.6695 l -0.859,-1.9243 c -0.645,-0.4367 -1.736,-0.4958 -1.756,0.1052 0.493,1.1575 1.866,0.6562 2.88,0.8306 1.288,-0.0495 1.791,-0.0535 2.389,-0.8986 0.062,-0.6497 0.61,-1.0875 -0.812,-2.8701 -0.654,-0.5554 -0.571,-0.7893 -2.836,-2.046 l -4.404,0.423 -3.096,0.8088 -4.018,1.5911 -5.397,2.3364 c -1.866,1.2508 -3.204,2.144 -5.598,3.7524 -1.295,0.7886 -2.649,1.7574 -4.275,3.5527 -2.171,2.1314 -2.189,2.1076 -3.066,4.3133 -0.121,2.6244 -0.184,2.5564 0.084,3.8269 l 2.274,4.4404 3.362,5.3916 2.566,2.6959 2.831,1.1682 4.513,2.2465 3.627,1.7074 2.566,0.7189 1.327,-0.09 1.327,-0.7189 0.708,-0.9885 0.089,-1.0783 -1.062,-1.6175 -3.362,-2.9655 -3.008,-1.6175 -2.655,-0.5391 c -0.378,-0.0667 -0.757,-0.1479 -0.973,1.4378 0.384,0.7953 0.767,0.8978 1.15,0 1.372,-2.3333 0.708,-3.4212 0.708,-3.4212 -0.511,-0.7685 -0.745,-1.4247 -2.035,-2.5097 l -2.035,-1.7972 -1.592,-1.2581 c -0.703,-0.0679 -1.321,-0.2439 -2.34,0.0885 -0.769,0.2504 -0.797,0.2117 -1.908,1.4178 -0.219,0.6066 1.199,0.4887 1.943,0.5079 2.457,0.106 2.473,-1.4693 3.132,-2.4744 l 1.385,-2.685 1.327,-3.1451 c 0.477,-1.249 0.327,-1.553 0.232,-1.8983 -1.309,-2.6089 -1.788,-2.3609 -2.477,-2.9654 -1.1,-0.8609 -1.355,-1.1716 -1.117,-1.5164 0.967,-0.5964 1.064,-0.8062 2.919,-1.7973 2.583,-0.9338 2.143,-0.1506 3.097,0.1798 1.274,0.292 1.656,-0.5461 1.681,-0.5392 0.69,-1.267 0.78,-0.9468 0.896,-2.5723 l 0.077,-3.3585 c 0.035,-1.7397 -1.002,-2.9954 -1.504,-4.4931 -0.6,-1.1983 -0.286,-2.4432 -0.154,-3.4821 0.449,-1.6248 0.414,-2.3886 1.349,-4.875 2.633,-6.2128 3.694,-4.9873 3.694,-4.9873 1.315,1.5995 -0.902,5.2304 -1.88,6.3352 l -6.548,7.3686 c -1.681,1.7673 -1.279,1.184 -5.043,5.3018 -1.803,1.9509 -2.609,3.0922 -3.55,4.7096 -0.875,1.3736 -1.754,1.9874 -1.754,1.9874 -1.068,1.0407 -1.821,1.566 -2.393,2.0196 -1.654,1.4156 -2.234,2.4119 -2.831,3.4147 -0.926,1.6493 -1.837,3.3001 -1.947,5.0322 -0.177,1.6402 -0.563,3.0146 -0.442,5.0323 0.143,1.176 0.5,2.2649 0.265,3.5944 -0.838,1.9535 -2.246,2.1627 -2.919,2.1567 -0.725,0.097 -1.356,0.0279 -2.046,-0.3967 -2.875,-2.2682 0.799,-2.3313 2.046,-1.0411 2.542,3.2235 3.615,4.4202 4.356,5.5846 0.558,3.6549 0.377,3.7636 0.619,5.5714 0.1,1.0029 -0.005,1.9488 -0.552,2.7725 -0.37,0.4835 -0.599,1.0825 -1.238,1.3479 -0.409,0.314 -0.889,0.3746 -1.416,0.2696 -0.746,0.0085 -1.139,-0.341 -1.416,-0.8088 -1.149,-1.7968 -1.761,-2.4321 -3.627,-5.0771 -1.035,-1.253 -1.634,-2.8957 -2.433,-4.6279 -0.404,-1.0211 -1.188,-2.4033 -1.504,-3.7741 l -0.752,-4.2235 -0.885,-4.3134 c -0.349,-1.2329 -0.733,-1.9032 -0.854,-2.9018 -0.334,-0.9454 0.26,-2.0991 0.677,-3.2986 l 1.593,-2.9654 1.504,-2.606 2.212,-3.6843 2.388,-2.5161 c 1.432,-1.4581 2.765,-3.113 4.298,-4.9488 1.771,-1.0057 2.146,0.4558 2.146,0.4558 -0.056,0.6872 0.041,1.1003 -1.666,2.1566 l -3.539,1.8871 -4.601,2.0668 -4.866,1.7972 -3.185,0.2696 c -0.949,-0.2094 -0.943,-0.4093 -1.461,-1.3052 -0.285,-0.7635 -0.452,-0.8857 -0.302,-2.0405 0.069,-1.552 1.253,-0.8228 1.83,0.0318 0.268,0.6462 0.697,1.3562 0.464,2.5951 -1.649,1.3929 -1.794,2.7857 -4.955,4.1786 -2.108,1.4057 -1.788,4.0212 -6.879,5.477 -0.784,2.4568 -2.529,4.4856 -3.472,6.0701 -1.581,1.7219 -2.693,1.5918 -4.004,1.8871 -0.877,0.0974 -1.777,-0.1271 -2.632,-0.1798 -2.423,-0.197 -2.433,-0.7863 -2.433,-0.7863 0.61,-1.4811 0.907,-1.6229 0.885,-1.6399 1.02,-1.8113 0.89,-1.6774 1.283,-2.4263 l 2.311,-3.8586 3.174,-4.4086 c 0.906,-1.2258 1.464,-2.0582 3.362,-4.4032 l 3.628,-3.235 3.716,-3.3249 4.866,-3.5945 5.892,-3.9384 4.683,-3.0498 1.889,-1.7447 1.78,-1.3315 3.716,-1.6175 7.078,-3.864 5.574,-3.3249 4.778,-2.8755 6.105,-4.2235 6.812,-3.9539 5.309,-2.8756 5.574,-3.5045998 7.393,-5.0758"
     stroke="white"
     stroke-width="0.95967"
     id="path885"
     style="fill:none;fill-opacity:1;stroke:#ffffff;stroke-width:1.76;stroke-miterlimit:4;stroke-dasharray:none;stroke-opacity:1" />
  <path
     d="m 3.5515179,85.547117 8.0717001,-4.4367 6.0163,-1.9769 6.7241,-1.977 7.7858,-1.7972 7.432,-1.9769 4.7973,-1.7337 c 1.7094,-0.6586 2.6057,-0.8725 5.8197,-2.0405 l 5.3085,-1.0783 3.892902,-0.7189 3.7677,-1.1964 4.081,-1.278 3.83,-1.2998 3.425,-1.2163 4.184,-0.9404 2.501,-0.3594 c 1.888,-0.4792 3.883,-0.2557 5.553,-0.5129 2.717,-0.1052 4.168,-0.1296 4.168,-0.1296 l 5.27,0.2432 c 0,0 2.887,0.1597 4.096,0.7588 1.579,0.4839 2.822,0.7115 5.662,2.1566 l 5.132,1.4378 3.362,0.8986 4.424,1.977 3.716,2.5161 0.531,1.4378 -0.531,1.7972 -4.07,0.1797 -5.486,-0.3594 -4.423,-0.8987 c -3.175,-1.281 -2.747,-1.4444 -2.78,-2.767 0.481,-1.1108 0.669,-1.5276 0.833,-1.1868 l 0.531,1.4378 c -0.25,2.2077 -1.234,1.7234 -2.3,1.9769 -1.059,0.1763 -1.816,0.047 -2.655,0 l -2.477,-0.5392 -3.362,-0.7189 -2.831,-1.0783 c -0.436,-0.576 -1.247,0.1774 -1.239,-1.9769 0.184,-1.016 0.246,-1.1297 0.354,-1.6175 0.293,-1.2114 0.605,-1.8377 1.062,1.7972 0.183,1.0973 -0.246,1.8314 -1.062,2.3364 l -3.893,1.258 -3.185,0.7189 -6.724,-2.5161 c -1.23,-0.4958 -7.089,-2.8848 -2.618,-2.2688 0.884,0.2883 1.963,0.8311 3.989,1.7746 l 5.176,3.5495 3.185,1.4378 c 2.132,1.2477 3.279,1.7783 4.519,3.1396 1.59,1.7818 2.28,2.5378 3.267,3.6898 0.95,0.9121 1.19,1.2815 2.821,2.6859 l 3.892,4.493 1.604,3.245 1.946,3.9535 0.708,3.055999 -0.885,3.774004 -0.884,4.133 -0.531,4.134 -0.708,3.954 -1.239,1.977 -1.238,0.449 -1.151,-0.719 -1.415,-1.437 -0.885,-2.876 -0.708,-3.954 -0.265,-6.29 c -10e-4,-1.375 -0.331,-2.079004 0,-4.127004 l 1.15,-0.994999 c 0,0 2.26,-5.4187 1.681,-1.708 -1.047,2.175 -2.166,1.087 -2.588,1.199 -0.989,-0.7 -1.31,-0.945 -2.191,-1.949 l -1.237,-2.0353 -1.947,-2.606 c -0.825,-0.786 -1.072,-1.3517 -1.238,-1.8871 -0.048,-1.776 0.091,-2.5805 0.707,-0.8986 0.153,0.4024 0.429,1.2391 0.354,1.6175 -0.852,0.0924 -1.08,0.6596 -2.566,0.2696 l -4.423,-1.9769 c -3.041,-2.553 -5.403,-5.5232 -8.229,-7.6382 -1.617,-1.9245 -5.854,-6.1763 -2.3,-3.5047 l 6.547,5.9309 5.84,7.3686 1.858,1.977 c 0.348,0.576 0.807,0.8933 1.15,1.8871 0.527,1.6901 0.235,2.5661 0.088,4.583099 l -1.061,10.693004 -1.416,4.493 -3.097,5.122 c -2.045,2.377 -2.197,1.762 -3.273,2.606 l -3.805,0.54 -1.504,-0.629 -0.177,-1.798 0.089,-3.325 2.123,-3.774 2.08,-1.864 c 0.522,-0.41 0.832,-1.426 2.034,-0.135 0.772,0.936 2.955,4.235 -0.575,1.28 l -1.238,-1.797 c -0.44,-1.257 -0.445,-1.455 -0.62,-2.067 l -0.619,-6.47 1.106,-4.313003 c 3.976,-4.846 2.181,-1.376 1.991,-0.809 -0.845,1.347 -1.094,1.786 -1.239,2.067 -2.638,2.969003 -1.357,0.119999 -2.035,0.179999 l -8.67,-7.458799 c -1.298,-1.4677 -1.841,-2.8567 -3.236,-4.6892 l -2.636,-3.5 c -1.379,-1.7926 0.063,-0.44 2.067,1.5395 2.348,1.7216 3.158,4.2955 4.689,6.47 l 5.132,4.9425 2.389,3.234999 0.619,5.391004 0.531,4.943 -1.15,2.426 -2.655,4.313 -2.477,2.696 -1.769,1.079 -1.062,-0.36 -0.973,-1.348 -0.443,-2.246 0.177,-3.415 1.062,-2.786 1.239,-1.348 c 0.657,-0.495 1.959,-2.127 0.973,0.27 -0.149,1.3 -0.811,1.229 -1.312,0.861 -1.711,-1.904 -0.753,-0.951 -1.254,-1.49 -0.408,-0.749 -0.823,-1.455 -1.15,-2.696 l -0.149,-3.435 c -0.226,-1.040004 -0.146,-1.547004 -0.344,-2.384004 l 0.05,-1.01 c 0.414,-1.977999 0.289,-0.397999 1.504,0.898 0.528,1.027 0.485,1.732004 0.443,2.427004 -0.006,1.648 -0.285,1.712 -0.531,1.976 l -2.654,-1.258 -1.77,-1.437 -1.504,0.09 -2.123,0.988 -10.617302,-0.18 -3.7311,0.143 -4.0547,0.756 -6.7241,1.168 -3.893,-0.09 -4.3353,-0.359 -3.0081,0.988 -6.6357,2.516 -4.9546,2.876"
     stroke="white"
     stroke-width="0.95967"
     id="path887"
     style="fill:none;fill-opacity:1;stroke:#ffffff;stroke-width:1.76;stroke-miterlimit:4;stroke-dasharray:none;stroke-opacity:1" />
</svg>
