<svg viewBox="0 0 512 512.00078" xmlns="http://www.w3.org/2000/svg"><path d="m127.605469 220.273438c17.691406 14.617187 35.15625 24.210937 35.894531 24.613281 1.492188.8125 3.140625 1.222656 4.792969 1.222656 1.648437 0 3.296875-.40625 4.792969-1.222656.734374-.402344 18.199218-9.996094 35.894531-24.613281 25.179687-20.800782 37.949219-41.011719 37.949219-60.074219 0-28.273438-22.320313-51.273438-49.757813-51.273438-10.386719 0-20.507813 3.394531-28.878906 9.53125-8.371094-6.136719-18.492188-9.53125-28.878907-9.53125-27.4375 0-49.757812 23-49.757812 51.273438 0 19.0625 12.769531 39.273437 37.949219 60.074219zm11.808593-91.347657c8.1875 0 15.816407 3.429688 21.488282 9.648438 1.894531 2.082031 4.578125 3.265625 7.390625 3.265625s5.496093-1.183594 7.390625-3.265625c5.671875-6.21875 13.300781-9.648438 21.488281-9.648438 16.410156 0 29.753906 14.03125 29.753906 31.273438 0 24.433593-38.667969 52.5-58.625 64.378906-19.28125-11.550781-58.640625-40.101563-58.640625-64.378906-.003906-17.242188 13.347656-31.273438 29.753906-31.273438zm0 0"/><path d="m471.523438 158.386719c-37.964844-37.964844-92.710938-49.15625-140.574219-33.585938-7.601563-28.527343-22.546875-54.511719-43.601563-75.566406-65.648437-65.644531-172.460937-65.644531-238.113281 0-65.644531 65.648437-65.644531 172.464844 0 238.113281l8.121094 8.121094c1.953125 1.949219 4.511719 2.929688 7.074219 2.929688 2.558593 0 5.117187-.980469 7.070312-2.929688 3.90625-3.90625 3.90625-10.238281 0-14.148438l-8.121094-8.117187c-57.847656-57.847656-57.847656-151.976563 0-209.824219 57.851563-57.847656 151.976563-57.847656 209.824219 0 19.164063 19.164063 32.601563 42.949219 39.078125 69.050782-13.019531 6.472656-25.21875 15.121093-36.050781 25.957031-26.082031 26.082031-40.445313 60.757812-40.445313 97.644531 0 16.125 2.742188 31.828125 8.011719 46.578125l-54.785156 54.785156c-5.535157 5.535157-12.894531 8.582031-20.71875 8.582031-7.828125 0-15.1875-3.046874-20.722657-8.582031l-23.226562-23.226562c-3.90625-3.902344-10.238281-3.902344-14.144531 0-3.902344 3.90625-3.90625 10.238281 0 14.144531l23.230469 23.226562c7.058593 7.058594 15.746093 11.515626 24.859374 13.390626v117.070312c0 5.523438 4.480469 10 10.003907 10 5.523437 0 10-4.476562 10-10v-117.070312c9.117187-1.875 17.804687-6.332032 24.863281-13.390626l49.410156-49.410156c6.257813 11.445313 14.183594 22.066406 23.664063 31.550782l68.097656 68.09375c5.476563 5.476562 12.210937 9.242187 19.546875 11.039062v69.1875c0 5.519531 4.476562 10 10 10 5.527344 0 10.003906-4.480469 10.003906-10v-69.1875c7.335938-1.796875 14.070313-5.5625 19.546875-11.039062l68.097657-68.09375c26.082031-26.082032 40.445312-60.761719 40.445312-97.648438 0-36.882812-14.363281-71.5625-40.445312-97.644531zm-14.144532 181.148437-68.09375 68.09375c-4.117187 4.117188-9.589844 6.382813-15.410156 6.382813-5.816406 0-11.289062-2.265625-15.40625-6.382813l-68.09375-68.09375c-22.304688-22.304687-34.589844-51.960937-34.589844-83.503906s12.285156-61.195312 34.589844-83.5c23.023438-23.023438 53.261719-34.535156 83.5-34.535156 30.242188 0 60.480469 11.515625 83.503906 34.535156 22.304688 22.304688 34.589844 51.957031 34.589844 83.503906 0 31.539063-12.285156 61.195313-34.589844 83.5zm0 0"/><path d="m400.398438 203.292969c-9.515626 0-18.789063 3.050781-26.523438 8.566406-7.730469-5.515625-17.003906-8.566406-26.519531-8.566406-25.648438 0-46.511719 21.492187-46.511719 47.90625 0 17.761719 11.824219 36.535156 35.148438 55.800781 16.304687 13.472656 32.414062 22.320312 33.089843 22.691406 1.496094.8125 3.144531 1.222656 4.792969 1.222656 1.652344 0 3.300781-.40625 4.796875-1.222656.675781-.371094 16.785156-9.21875 33.089844-22.691406 23.324219-19.265625 35.148437-38.039062 35.148437-55.800781 0-26.414063-20.863281-47.90625-46.511718-47.90625zm-26.523438 106.070312c-17.726562-10.710937-53.03125-36.46875-53.03125-58.164062 0-15.386719 11.894531-27.902344 26.511719-27.902344 7.285156 0 14.078125 3.054687 19.128906 8.59375 1.894531 2.082031 4.578125 3.265625 7.390625 3.265625 2.816406 0 5.5-1.183594 7.394531-3.265625 5.050781-5.539063 11.84375-8.59375 19.128907-8.59375 14.617187 0 26.507812 12.519531 26.507812 27.902344 0 21.695312-35.304688 47.457031-53.03125 58.164062zm0 0"/><path d="m100.507812 310.328125c-3.90625-3.902344-10.238281-3.902344-14.144531 0-3.90625 3.90625-3.90625 10.238281 0 14.144531l.164063.167969c1.953125 1.953125 4.511718 2.929687 7.070312 2.929687 2.5625 0 5.121094-.976562 7.074219-2.929687 3.90625-3.90625 3.90625-10.238281 0-14.144531zm0 0"/></svg>