<svg id="Layer_1" enable-background="new 0 0 512 512" height="512" viewBox="0 0 512 512" width="512" xmlns="http://www.w3.org/2000/svg"><g><g><path d="m297.218 110.43v-15.97h28.182c8.86 0 16.069-7.209 16.069-16.07v-31.18c.001-26.032-21.182-47.21-47.219-47.21h-80.61c-26.048 0-47.24 21.178-47.24 47.21v31.18c0 8.861 7.218 16.07 16.09 16.07h25.943v17.344c-25.244 6.052-49.13 16.947-70.6 32.356-3.365 2.416-4.135 7.101-1.72 10.466 2.416 3.366 7.102 4.136 10.466 1.72 21.238-15.243 45.032-25.714 70.187-31.042.478-.053.943-.148 1.39-.287 12.336-2.515 24.991-3.803 37.83-3.803 103.601 0 187.887 84.289 187.887 187.893s-84.286 187.893-187.887 187.893c-103.586 0-187.859-84.288-187.859-187.893 0-48.76 18.576-94.955 52.305-130.075 2.869-2.988 2.773-7.735-.214-10.604-2.988-2.87-7.736-2.773-10.604.214-36.426 37.928-56.486 87.813-56.486 140.465-.001 111.876 91.001 202.893 202.858 202.893 111.873 0 202.887-91.017 202.887-202.893 0-97.751-69.486-179.574-161.655-198.677zm-114.728-30.97c-.591 0-1.09-.49-1.09-1.07v-31.18c0-17.761 14.463-32.21 32.24-32.21h80.61c17.766 0 32.22 14.449 32.22 32.21v31.18c0 .57-.5 1.07-1.069 1.07h-28.183v-1.292c0-24.486-19.921-44.407-44.407-44.407-24.47 0-44.378 19.921-44.378 44.407v1.292zm40.943 29.348v-30.64c0-16.215 13.179-29.407 29.378-29.407 16.215 0 29.407 13.192 29.407 29.407v29.74c-8.589-1.114-17.344-1.693-26.232-1.693-11-.001-21.875.877-32.553 2.593z"/><path d="m390.229 385.692c3.691 1.879 8.207.412 10.087-3.278 11.64-22.848 17.542-47.512 17.542-73.307 0-89.243-72.615-161.847-161.872-161.847-89.24 0-161.843 72.604-161.843 161.847s72.603 161.847 161.843 161.847c48.373 0 93.829-21.385 124.714-58.672 2.643-3.19 2.199-7.917-.991-10.56-3.189-2.642-7.919-2.199-10.56.992-28.027 33.835-69.273 53.24-113.164 53.24-80.969 0-146.843-65.875-146.843-146.847s65.875-146.847 146.844-146.847c80.985 0 146.872 65.875 146.872 146.847 0 23.406-5.352 45.779-15.907 66.498-1.882 3.691-.414 8.207 3.278 10.087z"/><path d="m268.203 198.686c4.143 0 7.5-3.358 7.5-7.5s-3.357-7.5-7.5-7.5h-23.414c-4.142 0-7.5 3.358-7.5 7.5s3.358 7.5 7.5 7.5z"/><path d="m133.844 301.607c-4.142 0-7.5 3.358-7.5 7.5s3.358 7.5 7.5 7.5h23.867c4.142 0 7.5-3.358 7.5-7.5s-3.358-7.5-7.5-7.5z"/><path d="m247.964 420.748c-4.142 0-7.5 3.358-7.5 7.5s3.358 7.5 7.5 7.5h20.239c4.143 0 7.5-3.358 7.5-7.5s-3.357-7.5-7.5-7.5z"/><path d="m381.048 301.607h-20.268c-4.143 0-7.5 3.358-7.5 7.5s3.357 7.5 7.5 7.5h20.268c4.143 0 7.5-3.358 7.5-7.5s-3.358-7.5-7.5-7.5z"/><path d="m282.448 338.611c1.28-.69 2.379-1.784 3.059-3.07l52.383-98.192c1.554-2.913 1.021-6.5-1.313-8.833-2.336-2.335-5.923-2.867-8.834-1.314l-98.163 52.385c-1.293.695-2.395 1.79-3.085 3.086l-52.382 98.163c-1.555 2.912-1.022 6.499 1.311 8.833 1.442 1.443 3.363 2.198 5.308 2.198 1.201 0 2.412-.288 3.525-.881l49.099-26.166 49.067-26.192c.008-.005.016-.012.025-.017zm-5.41-19.063-31.472-31.492 67.485-36.016zm-78.089 46.61 36.012-67.489 31.471 31.491z"/></g></g></svg>