<?xml version="1.0" encoding="iso-8859-1"?>
<!-- Generator: Adobe Illustrator 19.0.0, SVG Export Plug-In . SVG Version: 6.00 Build 0)  -->
<svg version="1.1" id="Capa_1" xmlns="http://www.w3.org/2000/svg" xmlns:xlink="http://www.w3.org/1999/xlink" x="0px" y="0px"
	 viewBox="0 0 508 508" style="enable-background:new 0 0 508 508;" xml:space="preserve">
<g>
	<g>
		<path d="M197.4,49.3c-81.6,0-148,66.4-148,148s66.4,148,148,148s148-66.4,148-148S279,49.3,197.4,49.3z M197.4,328.9
			c-72.5,0-131.6-59-131.6-131.6s59-131.6,131.6-131.6S329,124.7,329,197.3S269.9,328.9,197.4,328.9z"/>
	</g>
</g>
<g>
	<g>
		<path d="M90.5,205.6h16.4c0-54.4,44.3-98.7,98.7-98.7V90.5C142.1,90.5,90.5,142.1,90.5,205.6z"/>
	</g>
</g>
<g>
	<g>
		<path d="M496.4,449.9l11.6-11.6L390.3,320.5l-11.6,11.6l-20.6-20.6c23-32.3,36.6-71.7,36.6-114.3C394.7,88.5,306.2,0,197.4,0
			S0,88.5,0,197.4s88.5,197.4,197.4,197.4c42.6,0,82-13.6,114.2-36.6l20.6,20.6l-11.6,11.6L438.2,508l11.6-11.6l-106-106.1
			l46.5-46.5L496.4,449.9z M197.3,378.3c-99.7,0-180.9-81.2-180.9-180.9c0-99.8,81.2-180.9,180.9-180.9s180.9,81.2,180.9,180.9
			S297,378.3,197.3,378.3z M343.8,367l-19.1-19c8.4-7.1,16.2-14.9,23.3-23.3l19.1,19.1L343.8,367z"/>
	</g>
</g>
<g>
	<g>
		<rect x="385.728" y="385.71" transform="matrix(0.7071 -0.7071 0.7071 0.7071 -163.1575 393.9214)" width="16.4" height="16.4"/>
	</g>
</g>
<g>
	<g>
		<rect x="408.97" y="409.079" transform="matrix(0.7071 -0.7071 0.7071 0.7071 -172.8744 417.2019)" width="16.4" height="16.4"/>
	</g>
</g>
<g>
	<g>
		<rect x="432.209" y="432.182" transform="matrix(0.707 -0.7072 0.7072 0.707 -182.4045 440.4876)" width="16.4" height="16.4"/>
	</g>
</g>
<g>
</g>
<g>
</g>
<g>
</g>
<g>
</g>
<g>
</g>
<g>
</g>
<g>
</g>
<g>
</g>
<g>
</g>
<g>
</g>
<g>
</g>
<g>
</g>
<g>
</g>
<g>
</g>
<g>
</g>
</svg>
