<?xml version="1.0" encoding="UTF-8" standalone="no"?>
<svg
   xmlns:dc="http://purl.org/dc/elements/1.1/"
   xmlns:cc="http://creativecommons.org/ns#"
   xmlns:rdf="http://www.w3.org/1999/02/22-rdf-syntax-ns#"
   xmlns:svg="http://www.w3.org/2000/svg"
   xmlns="http://www.w3.org/2000/svg"
   xmlns:sodipodi="http://sodipodi.sourceforge.net/DTD/sodipodi-0.dtd"
   xmlns:inkscape="http://www.inkscape.org/namespaces/inkscape"
   version="1.1"
   id="svg833"
   width="1609"
   height="584"
   viewBox="0 0 1609 584"
   sodipodi:docname="1.svg"
   inkscape:version="1.0.1 (0767f8302a, 2020-10-17)">
  <metadata
     id="metadata839">
    <rdf:RDF>
      <cc:Work
         rdf:about="">
        <dc:format>image/svg+xml</dc:format>
        <dc:type
           rdf:resource="http://purl.org/dc/dcmitype/StillImage" />
        <dc:title></dc:title>
      </cc:Work>
    </rdf:RDF>
  </metadata>
  <defs
     id="defs837" />
  <sodipodi:namedview
     pagecolor="#ffffff"
     bordercolor="#666666"
     borderopacity="1"
     objecttolerance="10"
     gridtolerance="10"
     guidetolerance="10"
     inkscape:pageopacity="0"
     inkscape:pageshadow="2"
     inkscape:window-width="1362"
     inkscape:window-height="729"
     id="namedview835"
     showgrid="false"
     inkscape:zoom="0.20364584"
     inkscape:cx="187.74081"
     inkscape:cy="-398.51562"
     inkscape:window-x="0"
     inkscape:window-y="18"
     inkscape:window-maximized="0"
     inkscape:current-layer="g841"
     inkscape:document-rotation="0" />
  <g
     inkscape:groupmode="layer"
     inkscape:label="cabelo fundo"
     id="g841"
     style="opacity:0.988">
    <path
       style="fill:none;stroke:#1b212d;stroke-width:2.51339;stroke-linecap:butt;stroke-linejoin:miter;stroke-miterlimit:4;stroke-dasharray:none;stroke-opacity:0.996078"
       d="m 707.4518,294.63044 c 36.82635,3.35186 74.31735,4.69647 114.58385,0"
       id="path951"
       sodipodi:nodetypes="cc" />
    <path
       style="fill:none;stroke:#000000;stroke-width:1px;stroke-linecap:butt;stroke-linejoin:miter;stroke-opacity:1"
       d="m 775.16044,243.63194 4.34031,9.54866 c 1.034,2.28397 1.7753,4.49477 -1.7361,5.64238 -5.66981,4.26571 -13.03522,5.96798 -20.39943,7.37851 l -21.05044,-8.89761 -1.73612,-4.77433 5.8594,-9.54865"
       id="path2872"
       sodipodi:nodetypes="ccccccc" />
    <path
       style="fill:#8d4a37;fill-opacity:0.996078;stroke:none;stroke-width:1px;stroke-linecap:butt;stroke-linejoin:miter;stroke-opacity:1"
       d="M 763.70186,350.45304 C 669.29946,349.35662 637.10284,291.79116 610.24917,233.21519 l -14.73145,-89.00256 c 6.61027,-59.878034 31.30434,-85.933494 31.30434,-85.933494 15.51661,-18.96325 35.26312,-33.16787 63.83632,-37.44245 44.47476,-5.50613 90.33757,-7.681 140.56267,0.61381 22.9331,4.60388 44.1676,13.68602 60.76721,34.98721 18.38582,23.30473 31.57216,51.231044 34.37336,88.388744 l -6.463,87.23184 c -30.42616,92.8699 -56.93537,113.80302 -156.19676,118.39475 z"
       id="path849"
       sodipodi:nodetypes="cccccccccc" />
    <path
       style="fill:#1b212d;fill-opacity:0.996078;stroke:none;stroke-width:1px;stroke-linecap:butt;stroke-linejoin:miter;stroke-opacity:1"
       d="m 905.80356,194.942 -12.2762,0.1534 c -2.2759,-45.1945 -8.74711,-81.83903 -34.37341,-112.941204 -109.72805,-2.82412 -140.84176,-1.07668 -188.28649,-0.15345 -31.3716,34.694224 -36.999,74.044454 -41.7391,113.555054 h -9.2072 c -2.3265,-19.6842 -3.5799,-37.7832 -23.6471,-50.94633 1.47419,-39.13926 22.02548,-73.831204 30.548,-86.330334 15.96607,-19.89197 35.00107,-30.95874 54.48014,-35.81803 59.57183,-12.4862506 115.91945,-13.2952406 167.71935,1.62442 0,0 26.0662,6.58177 46.90381,32.92876 15.05752,18.19193 31.79676,49.157284 32.89606,87.134784 -17.41474,15.67113 -21.73666,31.85953 -23.01786,50.79293 z"
       id="path847"
       sodipodi:nodetypes="ccccccccccccc" />
    <path
       style="fill:#ffffff;fill-opacity:0.996078;stroke:none;stroke-width:1px;stroke-linecap:butt;stroke-linejoin:miter;stroke-opacity:1"
       d="m 672.71345,187.38786 c -3.48589,-3.92096 -3.71836,-12.55264 -1.08507,-19.63985 12.03339,-12.77711 45.33722,-16.68957 60.87266,0.75955 1.27585,1.47142 4.35998,9.89638 -0.1085,17.25268 -10.61687,14.06941 -48.39616,16.14816 -59.67909,1.62762 z"
       id="path853"
       sodipodi:nodetypes="ccccc" />
    <path
       style="opacity:0.995;fill:#ffffff;fill-opacity:0.996078;stroke:none;stroke-width:0.990868px;stroke-linecap:butt;stroke-linejoin:miter;stroke-opacity:1"
       d="m 855.80305,187.08121 c 3.4225,-3.92096 3.6507,-12.55264 1.0653,-19.63985 -11.8146,-12.77711 -44.513,-16.68957 -59.7659,0.75955 -1.2526,1.47142 -4.2808,9.89638 0.1065,17.25268 10.4239,14.06941 47.5163,16.14816 58.5941,1.62762 z"
       id="path853-6"
       sodipodi:nodetypes="ccccc" />
    <path
       style="fill:#1b212d;fill-opacity:0.996078;stroke:none;stroke-width:1px;stroke-linecap:butt;stroke-linejoin:miter;stroke-opacity:1"
       d="m 810.02245,159.45198 c -4.5183,8.79594 -5.6162,18.48481 2.4957,28.42895 10.6545,8.40208 18.6164,6.03349 25.8248,0.65104 13.0766,-13.32826 3.652,-30.12783 3.652,-30.12783 -13.4099,-3.49048 -24.3343,-2.38768 -31.9725,1.04784 z"
       id="path915"
       sodipodi:nodetypes="ccccc" />
    <path
       style="opacity:0.995;fill:#1b212d;fill-opacity:0.996078;stroke:none;stroke-width:1px;stroke-linecap:butt;stroke-linejoin:miter;stroke-opacity:1"
       d="m 687.9905,158.62703 c -4.5183,8.79594 -5.83321,20.00391 2.27869,29.94805 10.6545,8.40208 18.6164,6.03349 25.8248,0.65104 13.0766,-13.32826 3.86901,-29.6938 3.86901,-29.6938 -9.28662,-4.14152 -24.3343,-4.34081 -31.9725,-0.90529 z"
       id="path915-7"
       sodipodi:nodetypes="ccccc" />
    <path
       style="fill:#1b212d;fill-opacity:0.996078;stroke:none;stroke-width:1px;stroke-linecap:butt;stroke-linejoin:miter;stroke-opacity:1"
       d="m 807.57415,131.89822 c 7.9645,-4.45395 28.716,-4.41268 42.1731,2.41011 3.6253,1.89654 6.028,5.62695 0.706,7.71174 l -40.7988,-0.86806 c -2.6923,-0.2431 -5.7308,-1.61591 -5.8199,-4.12328 0.075,-1.62751 0.4333,-3.26802 3.7396,-5.13051 z"
       id="path932"
       sodipodi:nodetypes="cccccc" />
    <path
       style="opacity:0.995;fill:#1b212d;fill-opacity:0.996078;stroke:none;stroke-width:1.01581px;stroke-linecap:butt;stroke-linejoin:miter;stroke-opacity:1"
       d="m 724.49047,132.25778 c -8.21829,-4.45395 -29.63101,-4.41268 -43.51684,2.41011 -3.74077,1.89654 -6.22008,5.62695 -0.72845,7.71174 l 42.0987,-0.86806 c 2.77803,-0.2431 5.91343,-1.61591 6.00538,-4.12328 -0.0772,-1.62751 -0.44723,-3.26802 -3.85879,-5.13051 z"
       id="path932-8"
       sodipodi:nodetypes="cccccc" />
    <path
       style="fill:#8d4a37;fill-opacity:0.996078;stroke:none;stroke-width:0.948433px;stroke-linecap:butt;stroke-linejoin:miter;stroke-opacity:1"
       d="m 905.80356,194.942 c 0.1689,-15.72758 4.25582,-33.72831 12.84766,-44.47514 12.5213,-12.57792 21.668,-11.81096 32.6542,9.02165 2.5516,3.61697 10.33037,32.31913 -2.2062,54.03716 -8.1568,17.72169 -30.9458,25.8545 -40.88666,17.15744 z"
       id="path953"
       sodipodi:nodetypes="cccccc" />
    <path
       style="opacity:0.995;fill:#8d4a37;fill-opacity:0.996078;stroke:none;stroke-width:0.950303px;stroke-linecap:butt;stroke-linejoin:miter;stroke-opacity:1"
       d="m 619.92116,195.5558 c -0.16957,-15.72758 -4.2726,-33.72831 -12.89831,-44.47514 -12.57082,-12.57792 -21.75362,-11.81096 -32.78318,9.02165 -2.56168,3.61697 -10.37118,32.31913 2.2149,54.03716 8.189,17.72169 31.06805,25.8545 41.04808,17.15744 z"
       id="path953-0"
       sodipodi:nodetypes="cccccc" />
    <path
       style="fill:#1b212d;fill-opacity:0.996078;stroke:none;stroke-width:1px;stroke-linecap:butt;stroke-linejoin:miter;stroke-opacity:1"
       d="m 923.87452,206.11576 c -1.099,-15.89983 5.3124,-26.89629 16.2659,-32.83888 1.4579,-2.48621 -0.3032,-3.34366 -2.4552,-2.45524 -15.8054,8.44263 -17.2554,21.41859 -17.8004,34.68031 1.1253,2.45524 2.4552,2.65985 3.9897,0.61381 z"
       id="path970"
       sodipodi:nodetypes="ccccc" />
    <path
       style="opacity:0.995;fill:#1b212d;fill-opacity:0.996078;stroke:none;stroke-width:0.949;stroke-linecap:butt;stroke-linejoin:miter;stroke-miterlimit:4;stroke-dasharray:none;stroke-opacity:1"
       d="m 926.62572,188.745 c 3.5899,4.24796 7.1965,8.61652 9.2369,13.6681 0.7023,1.13573 2.3956,0.59464 2.4162,-0.53855 0.5344,-9.31502 -5.095,-12.34991 -10.7555,-14.78881 -1.1206,0.0222 -1.4198,0.5753 -0.8976,1.65926 z"
       id="path970-0"
       sodipodi:nodetypes="ccccc" />
    <path
       style="opacity:0.995;fill:#1b212d;fill-opacity:0.996078;stroke:none;stroke-width:1.03088px;stroke-linecap:butt;stroke-linejoin:miter;stroke-opacity:1"
       d="m 601.94031,205.25553 c 1.16803,-15.89983 -5.64554,-26.89629 -17.28595,-32.83888 -1.54933,-2.48621 0.32221,-3.34366 2.60917,-2.45524 16.79668,8.44263 18.33761,21.41859 18.91679,34.68031 -1.19587,2.45524 -2.60917,2.65985 -4.24001,0.61381 z"
       id="path970-3"
       sodipodi:nodetypes="ccccc" />
    <path
       style="opacity:0.995;fill:#1b212d;fill-opacity:0.996078;stroke:none;stroke-width:0.978304;stroke-linecap:butt;stroke-linejoin:miter;stroke-miterlimit:4;stroke-dasharray:none;stroke-opacity:1"
       d="m 599.01658,187.88477 c -3.81503,4.24796 -7.6478,8.61652 -9.81616,13.6681 -0.74634,1.13573 -2.54583,0.59464 -2.56772,-0.53855 -0.56791,-9.31502 5.41452,-12.34991 11.42999,-14.78881 1.19088,0.0222 1.50884,0.5753 0.95389,1.65926 z"
       id="path970-0-0"
       sodipodi:nodetypes="ccccc" />
    <path
       style="fill:#8d4a37;fill-opacity:0.996078;stroke:none;stroke-width:1px;stroke-linecap:butt;stroke-linejoin:miter;stroke-opacity:1"
       d="M 700.5382,339.02836 692.25179,392.123 C 558.18549,434.78887 524.36326,506.65204 508.10854,583.63202 l 501.94816,-0.6138 C 994.78475,494.30831 949.05172,425.17194 836.80415,393.04371 l -6.445,-51.867 c -58.1905,8.49883 -71.38963,8.95444 -129.82095,-2.14835 z"
       id="path1005"
       sodipodi:nodetypes="ccccccc" />
    <path
       style="fill:#b0c7ad;fill-opacity:0.996078;stroke:none;stroke-width:1px;stroke-linecap:butt;stroke-linejoin:miter;stroke-opacity:1"
       d="m 836.49725,389.97466 c 122.04554,34.94356 161.369,119.13182 173.55945,193.04356 l -501.94816,0.6138 c 14.19268,-94.20684 76.93823,-164.50487 184.69789,-194.89707 l -0.55464,3.38805 c -30.00054,11.78481 -41.58789,83.51882 4.35991,107.71584 33.98026,14.93658 77.27785,25.68888 137.98415,1.30848 49.3036,-26.87857 35.9069,-94.02844 2.2083,-108.10361 z"
       id="path899"
       sodipodi:nodetypes="ccccccccc" />
    <path
       style="fill:none;stroke:#ffffff;stroke-width:2.89134;stroke-linecap:butt;stroke-linejoin:miter;stroke-miterlimit:4;stroke-dasharray:none;stroke-opacity:1"
       d="m 875.41535,403.85458 c 17.23561,26.23513 22.08511,89.21067 -22.0972,120.30704 -51.7028,30.0231 -108.94875,29.3071 -167.16708,3.8844 C 626.2355,492.41849 642.16001,425.58633 656.59189,401.39933"
       id="path903"
       sodipodi:nodetypes="cccc" />
    <path
       style="fill:none;stroke:#ffffff;stroke-width:2.89134;stroke-linecap:butt;stroke-linejoin:miter;stroke-miterlimit:4;stroke-dasharray:none;stroke-opacity:1"
       d="m 886.27206,435.25607 c 19.1139,12.34529 42.40566,19.17798 74.65303,60.76416 14.6814,24.29179 26.1861,57.00309 34.72236,86.80609"
       id="path907"
       sodipodi:nodetypes="ccc" />
    <path
       style="opacity:0.995;fill:none;stroke:#ffffff;stroke-width:2.89134;stroke-linecap:butt;stroke-linejoin:miter;stroke-miterlimit:4;stroke-dasharray:none;stroke-opacity:1"
       d="m 887.53566,456.53867 c 19.1139,12.34529 28.08276,11.58246 60.33006,53.16871 14.68137,24.29174 23.11697,42.88544 31.65327,72.68844"
       id="path907-5"
       sodipodi:nodetypes="ccc" />
    <path
       style="opacity:0.995;fill:none;stroke:#ffffff;stroke-width:3.01006;stroke-linecap:butt;stroke-linejoin:miter;stroke-miterlimit:4;stroke-dasharray:none;stroke-opacity:1"
       d="m 644.70057,434.36212 c -20.7157,12.34529 -45.95954,19.17798 -80.90949,60.76413 -15.9118,24.29187 -28.38067,57.00317 -37.63237,86.80617"
       id="path907-3"
       sodipodi:nodetypes="ccc" />
    <path
       style="opacity:0.995;fill:none;stroke:#ffffff;stroke-width:3.01006;stroke-linecap:butt;stroke-linejoin:miter;stroke-miterlimit:4;stroke-dasharray:none;stroke-opacity:1"
       d="m 643.33107,455.64472 c -20.7157,12.34529 -30.4362,11.58246 -65.38612,53.16876 -15.9118,24.29174 -25.05436,42.88544 -34.30606,72.68844"
       id="path907-5-3"
       sodipodi:nodetypes="ccc" />
    <path
       style="fill:#000000;fill-opacity:0.996078;stroke:none;stroke-width:1px;stroke-linecap:butt;stroke-linejoin:miter;stroke-opacity:1"
       d="m 907.23096,543.22682 c 0.8729,-3.0292 1.7927,-5.1448 3.06902,-0.3069 l 0.3069,39.5908 c -2.01212,3.0584 -2.51842,1.0971 -3.37592,0.3069 z"
       id="path962"
       sodipodi:nodetypes="ccccc" />
    <path
       style="opacity:0.995;fill:#000000;fill-opacity:0.996078;stroke:none;stroke-width:1px;stroke-linecap:butt;stroke-linejoin:miter;stroke-opacity:1"
       d="m 621.8417,543.22112 c 0.8729,-3.0292 1.7927,-5.1448 3.069,-0.3069 l 0.3069,39.5908 c -2.0121,3.0584 -2.5184,1.0971 -3.3759,0.3069 z"
       id="path962-9"
       sodipodi:nodetypes="ccccc" />
    <path
       style="opacity:0.995;fill:#f06a4c;fill-opacity:0.996078;stroke:none;stroke-width:1.02643px;stroke-linecap:butt;stroke-linejoin:miter;stroke-opacity:1"
       d="m 1410.6573,271.11645 c 6.8925,-49.11347 7.9888,-103.31503 -57.0486,-151.12761 -55.1295,9.63548 -100.2125,33.6075 -143.7246,59.82134 -7.3949,61.74534 -3.3083,122.09823 31.2033,173.79676 54.2038,42.05708 110.4752,-0.49941 128.9922,-16.07314 10.1256,-11.81818 24.2799,-21.27974 40.5777,-66.41735 z"
       id="path979-0"
       sodipodi:nodetypes="cccccc" />
    <path
       style="fill:#ffffff;fill-opacity:1;stroke:none;stroke-width:1.02643px;stroke-linecap:butt;stroke-linejoin:miter;stroke-opacity:1"
       d="m 1320.0541,228.36727 c 10.835,-21.50627 29.2308,-32.08653 63.7408,-24.04426 4.8053,3.56212 4.6359,7.12422 3.5661,10.68634 -4.8027,17.88443 -17.397,27.65741 -36.5509,29.83268 -9.8348,0.74661 -21.0082,-2.83672 -29.1959,-10.90896 -2.191,-2.5368 -1.8934,-4.54988 -1.5601,-5.5658 z"
       id="path996"
       sodipodi:nodetypes="cccccc" />
    <path
       style="fill:#1b212d;fill-opacity:0.996078;stroke:none;stroke-width:1.02643px;stroke-linecap:butt;stroke-linejoin:miter;stroke-opacity:1"
       d="m 1328.3002,215.45461 c 9.4974,-9.52255 20.8159,-15.18392 35.6593,-14.02581 3.1554,1.66872 19.1746,24.1576 -5.9061,35.95507 -10.8987,3.63297 -28.3405,0.64325 -29.7532,-21.92926 z"
       id="path998"
       sodipodi:nodetypes="cccc" />
    <path
       style="fill:#1b212d;fill-opacity:0.996078;stroke:none;stroke-width:1.02643px;stroke-linecap:butt;stroke-linejoin:miter;stroke-opacity:1"
       d="m 1333.872,196.30826 c -27.5785,-7.11763 -6.2403,-20.03688 -6.2403,-20.03688 6.4579,-3.29053 27.9288,-3.7125 44.574,2.22632 5.0041,2.43273 11.8216,13.02565 4.9032,14.91634 -11.9533,3.17209 -26.9221,3.69356 -43.2369,2.89422 z"
       id="path1000"
       sodipodi:nodetypes="ccccc" />
    <path
       style="fill:#ffffff;fill-opacity:1;stroke:none;stroke-width:1.02643px;stroke-linecap:butt;stroke-linejoin:miter;stroke-opacity:1"
       d="m 1223.5013,206.84715 c 11.3435,-4.00699 30.6102,-1.66667 50.3429,16.83185 5.1026,9.16262 3.063,15.59579 -4.1158,20.10738 -24.3523,10.02382 -42.9225,-4.3306 -47.3575,-24.31511 -0.798,-7.06431 -0.4087,-10.75793 1.1304,-12.62412 z"
       id="path1002"
       sodipodi:nodetypes="ccccc" />
    <path
       style="fill:#1b212d;fill-opacity:0.996078;stroke:none;stroke-width:1.02643px;stroke-linecap:butt;stroke-linejoin:miter;stroke-opacity:1"
       d="m 1238.4088,205.37476 c -6.9435,6.55139 -7.5875,20.36896 1.7607,28.98097 16.0928,9.90429 27.5761,-1.34762 29.7673,-13.99 -7.9409,-7.22475 -19.2284,-14.49025 -31.528,-14.99097 z"
       id="path1004"
       sodipodi:nodetypes="cccc" />
    <path
       style="fill:#1b212d;fill-opacity:0.996078;stroke:none;stroke-width:1.02643px;stroke-linecap:butt;stroke-linejoin:miter;stroke-opacity:1"
       d="m 1230.5116,179.45315 c 12.794,-2.17802 25.5954,-4.43078 37.98,-2.51878 5.9518,0.93025 21.5872,13.41923 1.1031,20.30777 -14.7669,1.65118 -29.7827,2.05833 -45.3869,-0.47228 -6.3534,-2.55305 -3.5848,-7.86115 -1.4182,-12.27911 2.2548,-3.59246 5.0824,-3.75151 7.722,-5.0376 z"
       id="path913"
       sodipodi:nodetypes="cccccc" />
    <path
       style="fill:#ed5a39;fill-opacity:0.996078;stroke:none;stroke-width:1.02643px;stroke-linecap:butt;stroke-linejoin:miter;stroke-opacity:1"
       d="m 1365.6015,340.99715 c 0.365,33.71307 24.2426,51.02457 43.8274,68.08288 78.0758,27.8926 154.204,25.00976 206.0868,176.50548 l -585.9397,-2.258 c 16.735,-113.98558 89.5546,-139.47555 186.3289,-170.46928 10.124,-11.76806 43.3668,-39.5687 25.1825,-59.25129 39.6651,26.07076 72.3229,19.50217 124.5141,-12.60979 z"
       id="path2897"
       sodipodi:nodetypes="ccccccc" />
    <path
       style="fill:#1b212d;fill-opacity:0.996078;stroke:none;stroke-width:1.02643px;stroke-linecap:butt;stroke-linejoin:miter;stroke-opacity:1"
       d="m 1298.8855,464.73802 c 9.7651,-40.70248 42.68,-85.30835 69.004,-108.85117 10.4326,16.71849 21.1317,32.48931 33.915,45.79577 2.46,2.56067 4.9971,5.03007 7.6244,7.39741 8.3124,2.36981 17.5953,6.1023 25.7826,7.94859 162.0934,36.55263 174.5711,154.38989 180.3042,168.55689 l -585.9397,-2.258 c 9.493,-45.6646 16.4951,-96.46227 100.0203,-139.96433 l 73.3228,-22.75868 c 10.9413,-16.0351 34.428,-25.8361 41.9375,-45.68014 30.7595,30.80574 46.8647,46.04444 54.0289,89.81366 z"
       id="path2922"
       sodipodi:nodetypes="ccscscccccc" />
    <path
       style="fill:none;stroke:#ffffff;stroke-width:2.49739;stroke-linecap:butt;stroke-linejoin:miter;stroke-miterlimit:4;stroke-dasharray:none;stroke-opacity:1"
       d="m 1397.8028,389.3302 c -22.9834,40.79422 -50.5898,74.59273 -99.2154,76.58541 -33.6635,0.64864 -60.1232,-30.99216 -84.8608,-70.35171"
       id="path2928"
       sodipodi:nodetypes="ccc" />
    <path
       style="fill:#f4dab5;fill-opacity:0.996078;stroke:none;stroke-width:1.02643px;stroke-linecap:butt;stroke-linejoin:miter;stroke-opacity:1"
       d="m 1353.6087,119.98884 c 8.3472,7.40501 45.6372,33.29912 56.3418,80.25954 8.267,1.1939 18.1606,0.78856 27.4976,4.12004 30.7936,-47.88648 36.5059,-95.12251 16.9818,-138.241178 0,-6.92577 10.8807,-12.49841 0.6686,-21.2253 -94.7314,-77.9487 -189.1925,-29.460919 -219.3694,-14.95998 -37.3046,25.2883 -69.4127,53.69114 -100.8594,82.490498 -5.8803,4.96964 -9.8975,11.18018 -6.934,22.03944 7.2769,24.61618 17.0734,47.95712 31.4804,67.23149 3.7812,5.88805 8.5138,9.81584 15.2206,6.93735 -17.8149,54.63895 -32.8432,112.27575 -35.3544,183.3778 -0.4865,60.5282 3.5628,117.82017 -12.6074,189.53927 l 147.5069,0.6297 c 3.8655,-71.3464 -20.2543,-125.01742 -36.5616,-171.27802 -19.2482,-76.6133 -35.1216,-170.14664 -26.4755,-229.83991 15.7421,-11.06514 78.1663,-48.19704 142.464,-61.08074 z"
       id="path916"
       sodipodi:nodetypes="cccccccccccccccc" />
    <path
       style="fill:#f06a4c;fill-opacity:0.996078;stroke:none;stroke-width:1.02643px;stroke-linecap:butt;stroke-linejoin:miter;stroke-opacity:1"
       d="m 1409.9505,200.24838 c 17.5606,0.4616 49.1136,0.26129 47.5096,39.69959 -2.916,33.73624 -38.2504,34.85426 -46.8028,31.16848 z"
       id="path918"
       sodipodi:nodetypes="cccc" />
    <path
       style="fill:#1b212d;fill-opacity:0.996078;stroke:none;stroke-width:0.602915px;stroke-linecap:butt;stroke-linejoin:miter;stroke-opacity:0.996078"
       d="m 1420.4937,233.53351 c 3.5775,3.104 7.4375,5.96748 7.4263,12.12464 -0.068,1.91907 1.7016,0.64344 1.559,-0.36011 0.1448,-5.94069 -3.1255,-9.27919 -6.6072,-12.45645 -2.4649,-1.59196 -3.0475,0.27534 -2.3781,0.69192 z"
       id="path920"
       sodipodi:nodetypes="ccccc" />
    <path
       style="opacity:0.995;fill:#1b212d;fill-opacity:0.996078;stroke:none;stroke-width:1.02643px;stroke-linecap:butt;stroke-linejoin:miter;stroke-opacity:1"
       d="m 1420.1732,246.72442 c -0.2933,-8.28796 -1.1956,-16.60793 6.2404,-24.48951 2.3898,-2.37954 -1.1439,-2.87406 -2.1929,-1.4155 -7.3258,7.44294 -7.6618,15.6617 -7.5644,23.92854 0.8612,5.00936 3.7698,3.31661 3.5169,1.97647 z"
       id="path920-6"
       sodipodi:nodetypes="ccccc" />
    <path
       style="opacity:0.995;fill:#1b212d;fill-opacity:0.996078;stroke:none;stroke-width:0.602915px;stroke-linecap:butt;stroke-linejoin:miter;stroke-opacity:1"
       d="m 1410.6573,271.11645 c -4.4257,-2.78879 -15.1494,-5.26149 -15.1494,-5.26149 -1.7112,-0.27737 -1.43,0.88912 -0.7386,1.0746 1.0484,0.7307 9.4268,3.90156 14.333,6.44669 2.9332,-0.10156 2.3426,-2.30029 1.555,-2.2598 z"
       id="path920-2"
       sodipodi:nodetypes="ccccc" />
    <path
       style="fill:none;fill-opacity:0.996078;stroke:#1b212d;stroke-width:2.54823;stroke-linecap:butt;stroke-linejoin:miter;stroke-miterlimit:4;stroke-dasharray:none;stroke-opacity:0.996078"
       d="m 767.46959,183.07338 c -3.27655,21.99456 -6.43415,44.05919 -19.76328,60.13219 -6.60875,17.45264 20.97479,14.56569 33.51164,12.75531"
       id="path2876"
       sodipodi:nodetypes="ccc" />
    <path
       style="opacity:0.995;fill:none;fill-opacity:0.996078;stroke:#1b212d;stroke-width:2.43796;stroke-linecap:butt;stroke-linejoin:miter;stroke-miterlimit:4;stroke-dasharray:none;stroke-opacity:0.996078"
       d="m 1297.0717,232.35781 c 0.3701,15.75785 -31.5368,49.61372 -25.7772,59.12241 6.6615,5.9462 11.9854,4.81024 29.2495,6.5265"
       id="path2876-1"
       sodipodi:nodetypes="ccc" />
    <path
       style="fill:none;stroke:#1b212d;stroke-width:2.56608;stroke-linecap:butt;stroke-linejoin:miter;stroke-miterlimit:4;stroke-dasharray:none;stroke-opacity:0.996078"
       d="m 1330.9748,316.75217 c 2.089,1.82177 4.3948,2.83109 5.3487,8.90528"
       id="path2895"
       sodipodi:nodetypes="cc" />
    <path
       style="fill:#ffffff;fill-opacity:1;stroke:none;stroke-width:0.99895px;stroke-linecap:butt;stroke-linejoin:miter;stroke-opacity:1"
       d="m 1318.1027,459.08147 c 0.759,-4.4702 -2.3184,-43.9222 15.2253,-34.31856 8.3345,3.3727 18.7063,12.3555 20.3005,-2.83364 -1.0126,-15.93088 -7.2968,-40.88295 11.6428,-22.66914 10.0786,7.15329 13.4688,4.01941 14.0313,-3.46334 -1.6977,-11.32519 -4.1737,-21.4191 -7.4635,-30.22553 -0.3844,-1.44579 -2.7177,-2.20438 -1.7911,2.5188 3.0941,8.71083 4.8614,17.42165 5.9706,26.13248 1.8925,9.97324 -5.015,4.38072 -9.8517,0.6297 -12.3169,-11.96334 -19.5044,-10.01556 -17.9121,15.74245 0.6264,10.68329 5.3402,22.21399 -13.1355,11.01972 -6.531,-4.77098 -12.8613,-6.36715 -18.2107,7.55638 -1.6148,6.69764 -2.2797,13.88183 -1.9404,25.50279 -0.01,5.24238 1.1531,6.29708 3.1345,4.40789 z"
       id="path2932"
       sodipodi:nodetypes="cccccccccccccc" />
    <path
       style="fill:#ffffff;fill-opacity:1;stroke:none;stroke-width:0.99895px;stroke-linecap:butt;stroke-linejoin:miter;stroke-opacity:1"
       d="m 1247.0798,380.87018 c -1.3845,12.74163 -11.3492,40.95806 5.0664,21.5953 4.8877,-4.39379 8.1999,-3.24868 9.7105,4.23002 2.9182,8.84144 -8.5516,36.29882 8.866,20.25951 5.4527,-3.65459 9.4643,-2.05842 11.8213,5.5658 2.2576,8.9063 2.2513,17.4147 2.9554,26.04794 -1.2555,4.61184 -3.144,1.76825 -3.1664,0.22264 -0.5234,-7.78576 -0.1429,-15.21404 -2.7443,-23.82164 -3.2314,-7.73275 -4.9897,-5.3313 -7.8105,-3.5621 -7.5266,6.14734 -16.1997,9.55119 -14.7767,-6.2337 1.534,-14.75612 2.2028,-27.01034 -4.8553,-16.92003 -7.419,6.92114 -13.2715,9.59385 -12.8769,-4.67527 0.663,-7.96069 3.4946,-15.24895 5.4885,-22.48583 0.4631,-2.22359 2.5884,-3.10046 2.322,-0.22264 z"
       id="path2934"
       sodipodi:nodetypes="cccccccccccccc" />
    <path
       style="fill:#1b212d;fill-opacity:0.996078;stroke:none;stroke-width:0.99895px;stroke-linecap:butt;stroke-linejoin:miter;stroke-opacity:1"
       d="m 1312.5197,131.07709 c 20.1048,15.61854 42.9491,17.6666 66.7066,12.24475 -6.6678,-8.66305 -16.5119,-15.81261 -25.6176,-23.333 -14.0988,2.21024 -27.5221,6.91438 -41.089,11.08825 z"
       id="path2936"
       sodipodi:nodetypes="cccc" />
    <path
       style="fill:#1b212d;fill-opacity:0.996078;stroke:none;stroke-width:0.99895px;stroke-linecap:butt;stroke-linejoin:miter;stroke-opacity:1"
       d="m 1150.0787,176.62753 c 30.7971,-32.43209 74.4617,-82.485465 164.4931,-105.789338 4.2613,-1.20722 3.7475,-4.55091 -1.1941,-3.46334 -83.2989,17.94336 -130.9614,72.278048 -163.8962,104.844788 -2.3597,2.70418 -1.9677,6.15683 0.5972,4.40789 z"
       id="path2940"
       sodipodi:nodetypes="ccccc" />
    <path
       style="fill:#1b212d;fill-opacity:0.996078;stroke:none;stroke-width:0.99895px;stroke-linecap:butt;stroke-linejoin:miter;stroke-opacity:1"
       d="m 1227.0299,68.395682 c 5.1758,-2.23862 29.2963,-17.52517 43.48,-22.94613 50.119,-19.15521 112.0829,-42.6998905 176.6938,10.81268 2.6035,2.41182 5.383,0.77924 3.5887,-1.66974 -72.2552,-60.4122806 -151.7935,-31.6693 -223.3402,10.26809 -2.5809,1.42743 -2.0912,4.54227 -0.4223,3.5351 z"
       id="path2942"
       sodipodi:nodetypes="cscccc" />
    <path
       style="fill:#1b212d;fill-opacity:0.996078;stroke:none;stroke-width:1.01123px;stroke-linecap:butt;stroke-linejoin:miter;stroke-opacity:1"
       d="m 1357.2862,121.76989 c 33.9633,-9.79265 63.9687,-26.586035 93.3335,-47.027058 1.1824,-0.85527 0.9526,-3.27514 -2.0233,-1.62364 -29.3058,20.933793 -60.4906,36.027978 -94.9877,46.869648 z"
       id="path2944"
       sodipodi:nodetypes="ccccc" />
    <path
       style="fill:#1b212d;fill-opacity:0.996078;stroke:none;stroke-width:0.99895px;stroke-linecap:butt;stroke-linejoin:miter;stroke-opacity:1"
       d="m 1391.2955,108.93495 c 27.9761,28.58389 36.97,50.84581 43.8848,72.41532 0.7794,3.28897 2.9037,2.60525 2.6868,0.31484 -0.7214,-5.16215 -8.0112,-39.22938 -43.8848,-74.30441 z"
       id="path2946"
       sodipodi:nodetypes="ccccc" />
    <path
       style="fill:#1b212d;fill-opacity:0.996078;stroke:none;stroke-width:0.99895px;stroke-linecap:butt;stroke-linejoin:miter;stroke-opacity:1"
       d="m 1421.2975,111.71227 c 15.7301,5.23103 31.1897,10.74196 38.735,25.42406 1.6864,3.74828 -1.0404,4.49191 -1.7911,3.06978 -8.7124,-16.36841 -24.2534,-19.32664 -38.4365,-24.9518 -3.0518,-1.35197 -1.0508,-4.20899 1.4926,-3.54204 z"
       id="path2948"
       sodipodi:nodetypes="ccccc" />
    <path
       style="fill:#1b212d;fill-opacity:0.996078;stroke:none;stroke-width:1.11641px;stroke-linecap:butt;stroke-linejoin:miter;stroke-opacity:1"
       d="m 1177.027,210.3538 c 11.3476,-9.82623 22.5472,-20.00265 34.748,-27.81208 2.5505,-1.68975 -0.8553,-3.84678 -1.8909,-2.73154 -12.9038,7.22739 -24.0562,17.90434 -35.2208,28.55705 -0.8471,1.69345 0.6002,3.70812 2.3637,1.98657 z"
       id="path2952"
       sodipodi:nodetypes="ccccc" />
    <path
       style="fill:#1b212d;fill-opacity:0.996078;stroke:none;stroke-width:0.99895px;stroke-linecap:butt;stroke-linejoin:miter;stroke-opacity:1"
       d="m 1201.7253,367.42613 c -9.4443,-57.04347 -7.9837,-114.72587 -11.0452,-172.1433 l -4.222,4.00736 c -25.5755,110.14452 -24.9839,199.58948 -15.7805,272.35103 0.4289,3.85896 3.7846,3.44187 3.284,-0.15743 -12.3423,-74.3153 -4.2002,-170.89994 14.3296,-263.37135 2.3141,53.00984 -1.8547,107.24061 10.4488,158.36915 z"
       id="path2954"
       sodipodi:nodetypes="cccccccc" />
    <path
       style="fill:#1b212d;fill-opacity:0.996078;stroke:none;stroke-width:0.99895px;stroke-linecap:butt;stroke-linejoin:miter;stroke-opacity:1"
       d="m 1192.5799,412.57165 c 25.618,88.77729 26.8177,123.12256 28.2869,158.06866 0.2759,2.2022 -2.9561,3.6413 -2.531,-0.2631 1.034,-25.5153 -12.8989,-107.78522 -29.1334,-156.0245 -1.4928,-4.95678 2.3945,-5.66876 3.3775,-1.78106 z"
       id="path2956"
       sodipodi:nodetypes="ccccc" />
    <path
       style="opacity:0.995;fill:#1b212d;fill-opacity:0.996078;stroke:none;stroke-width:1px;stroke-linecap:butt;stroke-linejoin:miter;stroke-opacity:1"
       d="m 449.00181,400.50623 -398.439291,-0.8681 c -42.472434,-48.76 -22.598424,-75.7827 -8.680604,-98.0907 17.713364,-19.9626 26.547294,-44.8583 23.437614,-76.3892 -8.31902,-30.9983 -7.71304,-59.2267 17.36117,-79.86148 36.121111,-23.4177 35.717581,-42.21201 39.930741,-59.028056 4.00818,-21.87911 14.8025,-24.75702 24.30567,-31.25014 30.06432,-9.93874 35.65974,-16.51513 45.13909,-26.04178 15.23601,-11.38274 42.98826,-18.28492 78.12535,-10.41672 22.33405,9.64077 39.9636,22.9004 76.38924,21.70149 19.06948,2.59205 35.24037,9.40021 41.66685,30.38208 3.08186,12.80059 -0.0819,33.561096 30.38209,59.028026 11.18307,8.955 22.57916,17.615 19.0973,46.87518 -2.31337,21.1724 -0.19367,36.0605 14.75701,52.0836 12.04123,16.2038 15.44067,30.6714 7.81254,46.8752 -7.37936,9.542 -11.90658,22.1841 6.94448,44.271 11.14478,29.206 5.34789,56.1532 -18.22925,80.7296 z"
       id="path3090"
       sodipodi:nodetypes="ccccccccccccccccc" />
    <path
       style="fill:#e18258;fill-opacity:0.988235;stroke:none;stroke-width:1px;stroke-linecap:butt;stroke-linejoin:miter;stroke-opacity:1"
       d="m 310.67189,328.87291 11.06137,85.37673 c 49.65728,12.12534 114.15386,5.2345 134.98325,59.89611 l 26.04178,105.03521 H 33.103485 l 14.757014,-92.88238 c 9.996,-55.26126 78.111531,-65.33263 147.136071,-72.917 l 8.91304,-83.07945 z"
       id="path3146"
       sodipodi:nodetypes="ccccccccc" />
    <path
       style="fill:#a53f33;fill-opacity:0.988235;stroke:none;stroke-width:1px;stroke-linecap:butt;stroke-linejoin:miter;stroke-opacity:1"
       d="m 39.179905,488.0347 c 119.578265,3.07481 223.852745,10.68407 427.953315,-11.28477 3.03157,36.01593 1.44919,72.32013 29.51402,106.77133 l -486.981365,-0.868 c 15.72399,-19.0318 26.85764,-47.8181 29.51403,-94.61856 z"
       id="path3148"
       sodipodi:nodetypes="ccccc" />
    <path
       style="fill:#251f2b;fill-opacity:0.988235;stroke:none;stroke-width:1.01464px;stroke-linecap:butt;stroke-linejoin:miter;stroke-opacity:1"
       d="m 163.69377,491.43247 -16.62025,-74.99086 -19.09731,4.02148 10.41672,70.62632 z"
       id="path3150"
       sodipodi:nodetypes="ccccc" />
    <path
       style="opacity:0.988;fill:#251f2b;fill-opacity:0.988235;stroke:none;stroke-width:0.993549px;stroke-linecap:butt;stroke-linejoin:miter;stroke-opacity:1"
       d="m 336.97724,487.71954 16.83945,-70.97053 19.34917,3.80588 -10.5541,66.83998 z"
       id="path3150-1"
       sodipodi:nodetypes="ccccc" />
    <path
       style="fill:#1e2029;fill-opacity:0.988235;stroke:none;stroke-width:1px;stroke-linecap:butt;stroke-linejoin:miter;stroke-opacity:1"
       d="m 54.129749,501.89362 6.75192,-0.1535 c 1.42835,-0.026 2.40346,2.4808 -0.30691,2.4553 l -6.75192,-0.307 c -1.21322,-0.4964 -0.32476,-2.0251 0.30691,-1.9948 z"
       id="path3167"
       sodipodi:nodetypes="ccccc" />
    <path
       style="opacity:0.988;fill:#1e2029;fill-opacity:0.988235;stroke:none;stroke-width:1.31063px;stroke-linecap:butt;stroke-linejoin:miter;stroke-opacity:1"
       d="m 74.328159,502.84302 11.59818,-0.1534 c 2.45356,-0.026 4.12857,2.48084 -0.5272,2.45524 l -11.59818,-0.30694 c -2.08401,-0.4964 -0.55786,-2.0252 0.5272,-1.9949 z"
       id="path3167-1"
       sodipodi:nodetypes="ccccc" />
    <path
       style="opacity:0.988;fill:#1e2029;fill-opacity:0.988235;stroke:none;stroke-width:1.31063px;stroke-linecap:butt;stroke-linejoin:miter;stroke-opacity:1"
       d="m 101.12949,503.60262 11.59818,-0.1535 c 2.45356,-0.026 4.12857,2.48084 -0.5272,2.45534 l -11.59818,-0.3069 c -2.084021,-0.4965 -0.55786,-2.02524 0.5272,-1.99494 z"
       id="path3167-1-8"
       sodipodi:nodetypes="ccccc" />
    <path
       style="opacity:0.988;fill:#1e2029;fill-opacity:0.988235;stroke:none;stroke-width:1.31063px;stroke-linecap:butt;stroke-linejoin:miter;stroke-opacity:1"
       d="m 128.25635,506.40206 11.59818,0.1534 c 2.45356,0.026 4.12857,-2.48084 -0.5272,-2.45524 l -11.59818,0.3069 c -2.08402,0.4964 -0.55786,2.02524 0.5272,1.99494 z"
       id="path3167-1-8-3"
       sodipodi:nodetypes="ccccc" />
    <path
       style="opacity:0.988;fill:#1e2029;fill-opacity:0.988235;stroke:none;stroke-width:1.31063px;stroke-linecap:butt;stroke-linejoin:miter;stroke-opacity:1"
       d="m 155.3832,504.25362 11.59818,-0.1534 c 2.45356,-0.026 4.12857,2.48084 -0.5272,2.45524 l -11.59818,-0.3069 c -2.08402,-0.4964 -0.55786,-2.02524 0.5272,-1.99494 z"
       id="path3167-1-8-3-3"
       sodipodi:nodetypes="ccccc"
       inkscape:transform-center-x="22.352532"
       inkscape:transform-center-y="-0.86805948" />
    <path
       style="opacity:0.988;fill:#1e2029;fill-opacity:0.988235;stroke:none;stroke-width:1.47784px;stroke-linecap:butt;stroke-linejoin:miter;stroke-opacity:1"
       d="m 182.19053,505.29516 11.5566,-1.00054 c 2.44536,-0.2029 4.33776,2.85974 -0.30901,3.15074 l -11.59726,0.4167 c -2.12284,-0.4848 -0.73543,-2.5299 0.34967,-2.5669 z"
       id="path3167-1-8-3-3-8"
       sodipodi:nodetypes="ccccc"
       inkscape:transform-center-x="22.364413"
       inkscape:transform-center-y="0.30078565" />
    <path
       style="opacity:0.988;fill:#1e2029;fill-opacity:0.988235;stroke:none;stroke-width:1.47784px;stroke-linecap:butt;stroke-linejoin:miter;stroke-opacity:1"
       d="m 209.22076,504.44092 11.5566,-1.0005 c 2.44536,-0.2029 4.33776,2.85974 -0.30901,3.15084 l -11.59726,0.4166 c -2.12284,-0.4848 -0.73543,-2.52994 0.34967,-2.56694 z"
       id="path3167-1-8-3-3-8-2"
       sodipodi:nodetypes="ccccc"
       inkscape:transform-center-x="22.364413"
       inkscape:transform-center-y="0.30078565" />
    <path
       style="opacity:0.988;fill:#1e2029;fill-opacity:0.988235;stroke:none;stroke-width:1.67786px;stroke-linecap:butt;stroke-linejoin:miter;stroke-opacity:1"
       d="m 235.21944,503.83462 12.93481,-1.1523 c 2.73699,-0.2337 4.85507,3.29344 -0.34586,3.62874 l -12.98032,0.4798 c -2.376,-0.5584 -0.82314,-2.91364 0.39137,-2.95624 z"
       id="path3167-1-8-3-3-8-2-3"
       sodipodi:nodetypes="ccccc"
       inkscape:transform-center-x="25.031536"
       inkscape:transform-center-y="0.34640612" />
    <path
       style="opacity:0.988;fill:#1e2029;fill-opacity:0.988235;stroke:none;stroke-width:1.67786px;stroke-linecap:butt;stroke-linejoin:miter;stroke-opacity:1"
       d="m 262.48843,502.58792 12.98095,-0.3632 c 2.74614,-0.067 4.64572,3.58274 -0.56597,3.60094 l -12.98547,-0.3108 c -2.33763,-0.70184 -0.64436,-2.95834 0.57049,-2.92694 z"
       id="path3167-1-8-3-3-8-2-3-2"
       sodipodi:nodetypes="ccccc"
       inkscape:transform-center-x="25.027703"
       inkscape:transform-center-y="-1.065237" />
    <path
       style="opacity:0.988;fill:#1e2029;fill-opacity:0.988235;stroke:none;stroke-width:1.67786px;stroke-linecap:butt;stroke-linejoin:miter;stroke-opacity:1"
       d="m 289.28594,501.39542 12.98095,-0.36327 c 2.74614,-0.0668 4.64572,3.58267 -0.56597,3.60087 l -12.98547,-0.3107 c -2.33763,-0.7019 -0.64436,-2.9583 0.57049,-2.9269 z"
       id="path3167-1-8-3-3-8-2-3-2-8"
       sodipodi:nodetypes="ccccc"
       inkscape:transform-center-x="25.027703"
       inkscape:transform-center-y="-1.065237" />
    <path
       style="opacity:0.988;fill:#1e2029;fill-opacity:0.988235;stroke:none;stroke-width:1.67786px;stroke-linecap:butt;stroke-linejoin:miter;stroke-opacity:1"
       d="m 316.21961,500.49 12.94697,-1.00647 c 2.73945,-0.20284 4.81765,3.34789 -0.38673,3.62449 l -12.9849,0.3336 c -2.36956,-0.5851 -0.79026,-2.92273 0.42466,-2.95162 z"
       id="path3167-1-8-3-3-8-2-3-2-8-4"
       sodipodi:nodetypes="ccccc"
       inkscape:transform-center-x="25.037825"
       inkscape:transform-center-y="0.056676791" />
    <path
       style="opacity:0.988;fill:#1e2029;fill-opacity:0.988235;stroke:none;stroke-width:1.67786px;stroke-linecap:butt;stroke-linejoin:miter;stroke-opacity:1"
       d="m 343.03107,498.71704 12.94697,-1.00647 c 2.73945,-0.20284 4.81765,3.34793 -0.38673,3.62452 l -12.9849,0.33353 c -2.36956,-0.58508 -0.79026,-2.92269 0.42466,-2.95158 z"
       id="path3167-1-8-3-3-8-2-3-2-8-4-2"
       sodipodi:nodetypes="ccccc"
       inkscape:transform-center-x="25.037825"
       inkscape:transform-center-y="0.056676791" />
    <path
       style="opacity:0.988;fill:#1e2029;fill-opacity:0.988235;stroke:none;stroke-width:1.67786px;stroke-linecap:butt;stroke-linejoin:miter;stroke-opacity:1"
       d="m 370.59196,496.98093 12.94697,-1.00648 c 2.73945,-0.20284 4.81765,3.34794 -0.38673,3.62453 l -12.9849,0.33354 c -2.36956,-0.58509 -0.79026,-2.92271 0.42466,-2.95159 z"
       id="path3167-1-8-3-3-8-2-3-2-8-4-2-2"
       sodipodi:nodetypes="ccccc"
       inkscape:transform-center-x="25.037825"
       inkscape:transform-center-y="0.056676791" />
    <path
       style="opacity:0.988;fill:#1e2029;fill-opacity:0.988235;stroke:none;stroke-width:1.67786px;stroke-linecap:butt;stroke-linejoin:miter;stroke-opacity:1"
       d="m 397.28268,495.47147 12.87313,-1.70869 c 2.72437,-0.35144 4.99249,3.08113 -0.18916,3.64019 l -12.94758,1.03881 c -2.39786,-0.45544 -0.94795,-2.87544 0.26361,-2.97031 z"
       id="path3167-1-8-3-3-8-2-3-2-8-4-2-2-1"
       sodipodi:nodetypes="ccccc"
       inkscape:transform-center-x="24.97818"
       inkscape:transform-center-y="1.4522822" />
    <path
       style="opacity:0.988;fill:#1e2029;fill-opacity:0.988235;stroke:none;stroke-width:1.60584px;stroke-linecap:butt;stroke-linejoin:miter;stroke-opacity:1"
       d="m 424.87022,492.55676 11.79166,-1.70869 c 2.4955,-0.35144 4.57307,3.08113 -0.17327,3.64019 l -11.85985,1.03881 c -2.19642,-0.45544 -0.86831,-2.87544 0.24146,-2.97031 z"
       id="path3167-1-8-3-3-8-2-3-2-8-4-2-2-1-0"
       sodipodi:nodetypes="ccccc"
       inkscape:transform-center-x="22.879763"
       inkscape:transform-center-y="1.4522822" />
    <path
       style="opacity:0.988;fill:#1e2029;fill-opacity:0.988235;stroke:none;stroke-width:1.28568px;stroke-linecap:butt;stroke-linejoin:miter;stroke-opacity:1"
       d="m 450.26105,489.08452 7.55846,-1.70869 c 1.59961,-0.35144 2.93134,3.08114 -0.11107,3.64019 l -7.60217,1.03881 c -1.4079,-0.45544 -0.55658,-2.87543 0.15478,-2.97031 z"
       id="path3167-1-8-3-3-8-2-3-2-8-4-2-2-1-0-6"
       sodipodi:nodetypes="ccccc"
       inkscape:transform-center-x="14.665934"
       inkscape:transform-center-y="1.4522822" />
    <path
       style="fill:#1b212d;fill-opacity:0.996078;stroke:none;stroke-width:1px;stroke-linecap:butt;stroke-linejoin:miter;stroke-opacity:1"
       d="m 385.88777,583.48086 c -0.31171,-11.0327 -1.84286,-21.1492 -3.5265,-31.3587 -0.74653,-2.0742 -2.92097,-1.0245 -2.60418,1.3021 0.51706,10.1582 1.83268,20.4597 3.47224,30.0566 z"
       id="path3394"
       sodipodi:nodetypes="ccccc" />
    <path
       style="opacity:0.988;fill:#1b212d;fill-opacity:0.996078;stroke:none;stroke-width:0.949302px;stroke-linecap:butt;stroke-linejoin:miter;stroke-opacity:1"
       d="m 111.69308,582.50366 c 2.63903,-9.6578 3.85861,-18.8126 4.95599,-28.0849 -0.16691,-1.9808 -2.54241,-1.5912 -2.85697,0.5058 -2.20812,8.9475 -3.99162,18.9785 -4.96827,27.7081 z"
       id="path3394-4"
       sodipodi:nodetypes="ccccc" />
  </g>
  <g
     inkscape:groupmode="layer"
     id="layer1"
     inkscape:label="rostomenina">
    <path
       style="opacity:0.995;fill:#e38b65;fill-opacity:0.996078;stroke:none;stroke-width:1px;stroke-linecap:butt;stroke-linejoin:miter;stroke-opacity:1"
       d="m 156.38343,245.6171 c 10.96388,54.4323 34.1087,100.19624 101.27878,96.9821 75.19861,4.61584 94.89324,-71.26464 107.98707,-104.24749 l 1.88505,-52.88806 c -43.16278,-2.35775 -86.41857,-5.25286 -139.75757,-66.40655 -16.26781,60.41445 -43.8068,66.98193 -77.53143,68.24798 z"
       id="path2958"
       sodipodi:nodetypes="ccccccc" />
    <path
       style="opacity:0.995;fill:#fef4ec;fill-opacity:0.996078;stroke:none;stroke-width:1px;stroke-linecap:butt;stroke-linejoin:miter;stroke-opacity:1"
       d="m 282.59445,232.15009 c 0.20829,11.68953 2.68549,22.26855 22.89078,22.53122 25.75282,-2.72426 36.83771,-27.72259 38.18565,-30.41927 -23.54515,-9.61876 -42.7486,-3.19537 -61.07643,7.88805 z"
       id="path2960"
       sodipodi:nodetypes="cccc" />
    <path
       style="opacity:0.995;fill:#1b212d;fill-opacity:0.996078;stroke:none;stroke-width:1px;stroke-linecap:butt;stroke-linejoin:miter;stroke-opacity:1"
       d="m 282.59445,232.15009 c 1.26961,-3.25629 4.13282,-7.69311 9.84204,-11.80646 10.38156,-7.47966 28.03827,-12.99278 56.15989,-5.53919 5.70142,1.42121 7.23523,9.49929 -0.65105,10.7965 -18.36782,-6.14297 -37.85028,-9.56902 -65.35088,6.54915 z"
       id="path2977"
       sodipodi:nodetypes="csccc" />
    <path
       style="opacity:0.995;fill:#fef4ec;fill-opacity:0.996078;stroke:none;stroke-width:1.00383px;stroke-linecap:butt;stroke-linejoin:miter;stroke-opacity:1"
       d="m 239.40612,231.45385 c -0.20989,11.68953 -2.70609,22.26855 -23.06636,22.53122 -25.95036,-2.72426 -37.12028,-27.72259 -38.47855,-30.41927 23.72575,-9.61876 43.0765,-3.19537 61.54491,7.88805 z"
       id="path2960-7"
       sodipodi:nodetypes="cccc" />
    <path
       style="opacity:0.995;fill:#1b212d;fill-opacity:0.996078;stroke:none;stroke-width:1.00383px;stroke-linecap:butt;stroke-linejoin:miter;stroke-opacity:1"
       d="m 239.40612,231.45385 c -1.27935,-3.25629 -4.16452,-7.69311 -9.91753,-11.80646 -10.46119,-7.47966 -28.25334,-12.99278 -56.59067,-5.53919 -5.74515,1.42121 -7.29072,9.49929 0.65605,10.7965 18.50871,-6.14297 38.14061,-9.56902 65.85215,6.54915 z"
       id="path2977-4"
       sodipodi:nodetypes="csccc" />
    <path
       style="opacity:0.995;fill:#1b212d;fill-opacity:0.996078;stroke:none;stroke-width:1px;stroke-linecap:butt;stroke-linejoin:miter;stroke-opacity:1"
       d="m 295.54099,194.64269 c 18.9376,-3.20554 37.44885,-2.44292 53.16284,5.37556 0.93149,0.46347 1.64323,0.99779 1.74193,1.78592 -40.20973,-2.52317 -48.03024,-0.50115 -53.16865,0.65105 -6.51189,0.42066 -7.74163,-6.83524 -1.73612,-7.81253 z"
       id="path2997"
       sodipodi:nodetypes="csccc" />
    <path
       style="opacity:0.995;fill:#1b212d;fill-opacity:0.996078;stroke:none;stroke-width:1.0064px;stroke-linecap:butt;stroke-linejoin:miter;stroke-opacity:1"
       d="m 225.75184,194.55458 c -19.18096,-3.20554 -37.93011,-2.44292 -53.84605,5.37556 -0.94346,0.46347 -1.66434,0.99779 -1.76431,1.78592 40.72648,-2.52317 48.64749,-0.50115 53.85193,0.65105 6.59558,0.42066 7.84112,-6.83524 1.75843,-7.81253 z"
       id="path2997-2"
       sodipodi:nodetypes="csccc" />
    <path
       style="opacity:0.995;fill:#e38a65;fill-opacity:0.992157;stroke:none;stroke-width:1px;stroke-linecap:butt;stroke-linejoin:miter;stroke-opacity:1"
       d="m 367.53433,185.46365 c 14.97592,-1.37821 31.39044,5.43411 30.59909,28.21193 -2.53958,20.51176 -21.06656,25.6341 -34.93938,24.52268 z"
       id="path3014"
       sodipodi:nodetypes="cccc" />
    <path
       style="opacity:0.995;fill:#1c222d;fill-opacity:0.996078;stroke:none;stroke-width:1px;stroke-linecap:butt;stroke-linejoin:miter;stroke-opacity:1"
       d="m 369.70448,221.92214 c 0.57457,-8.04547 0.37327,-16.36249 6.51045,-22.46104 3.17828,-3.28897 -1.2506,-3.60884 -2.71269,-1.95313 -6.42534,5.07287 -6.6223,13.82614 -6.83597,22.56955 -0.1308,3.28312 2.52576,3.53465 3.03821,1.84462 z"
       id="path3018"
       sodipodi:nodetypes="ccccc" />
    <path
       style="opacity:0.995;fill:#1c222d;fill-opacity:0.996078;stroke:none;stroke-width:0.568559px;stroke-linecap:butt;stroke-linejoin:miter;stroke-opacity:1"
       d="m 371.07961,210.86702 c 3.11628,3.31521 5.52404,5.04707 5.75997,10.05652 0.17629,2.64403 3.04539,0.60961 2.90522,-0.66104 0.29612,-4.74506 -4.74244,-9.83155 -6.96039,-11.55787 -1.31033,-1.30746 -2.21332,1.29446 -1.7048,2.16239 z"
       id="path3018-7"
       sodipodi:nodetypes="ccccc" />
    <path
       style="opacity:0.995;fill:#e38a65;fill-opacity:0.992157;stroke:none;stroke-width:1.00443px;stroke-linecap:butt;stroke-linejoin:miter;stroke-opacity:1"
       d="m 156.32175,186.43702 c -15.10905,-1.37821 -31.36258,7.27554 -30.56419,30.05336 2.56214,20.51176 21.25383,25.6341 35.24998,24.52268 z"
       id="path3014-2"
       sodipodi:nodetypes="cccc" />
    <path
       style="opacity:0.995;fill:#1c222d;fill-opacity:0.996078;stroke:none;stroke-width:1.00443px;stroke-linecap:butt;stroke-linejoin:miter;stroke-opacity:1"
       d="m 151.56283,222.9327 c -0.57968,-8.04547 -0.37658,-16.36249 -6.56833,-22.46104 -3.20653,-3.28897 1.26172,-3.60884 2.73681,-1.95313 6.48246,5.07287 6.68117,13.82614 6.89674,22.56955 0.13197,3.28312 -2.5482,3.53465 -3.06522,1.84462 z"
       id="path3018-0"
       sodipodi:nodetypes="ccccc" />
    <path
       style="opacity:0.995;fill:#1c222d;fill-opacity:0.996078;stroke:none;stroke-width:0.571081px;stroke-linecap:butt;stroke-linejoin:miter;stroke-opacity:1"
       d="m 150.17548,211.87758 c -3.14399,3.31521 -5.57315,5.04707 -5.81117,10.05652 -0.17786,2.64403 -3.07247,0.60961 -2.93106,-0.66104 -0.29875,-4.74506 4.78461,-9.83155 7.02228,-11.55787 1.32197,-1.30746 2.23299,1.29446 1.71995,2.16239 z"
       id="path3018-7-7"
       sodipodi:nodetypes="ccccc" />
    <path
       style="opacity:0.995;fill:#1b212f;fill-opacity:0.996078;stroke:none;stroke-width:1px;stroke-linecap:butt;stroke-linejoin:miter;stroke-opacity:1"
       d="m 289.5917,225.4588 c 0.3512,6.91141 2.82727,20.1649 20.61641,18.66328 20.18301,-2.15028 18.56101,-16.37857 16.49313,-24.73969 -13.00211,-1.76811 -25.26267,0.91309 -37.10954,6.07641 z"
       id="path3056"
       sodipodi:nodetypes="cccc" />
    <path
       style="opacity:0.995;fill:#1b212f;fill-opacity:0.996078;stroke:none;stroke-width:0.98469px;stroke-linecap:butt;stroke-linejoin:miter;stroke-opacity:1"
       d="m 233.37671,225.50642 c -2.02249,8.00205 -3.63448,19.52566 -19.55548,18.24197 -20.47849,-2.99954 -16.93311,-15.7276 -16.40137,-24.32263 12.59824,-1.76933 24.47796,0.91374 35.95685,6.08066 z"
       id="path3056-0"
       sodipodi:nodetypes="cccc" />
    <path
       style="opacity:0.995;fill:none;fill-opacity:0.996078;stroke:#1b212d;stroke-width:2.25474;stroke-linecap:butt;stroke-linejoin:miter;stroke-miterlimit:4;stroke-dasharray:none;stroke-opacity:0.996078"
       d="m 253.75349,232.89042 c 11.02915,10.64621 6.22127,32.78088 -8.14007,45.76697 -6.64067,13.59825 15.43385,10.69784 28.03138,9.28728"
       id="path2876-3"
       sodipodi:nodetypes="ccc" />
    <path
       style="fill:#1c222d;fill-opacity:1;stroke:none;stroke-width:0.915037px;stroke-linecap:butt;stroke-linejoin:miter;stroke-opacity:1"
       d="m 235.17264,316.97405 c 14.06469,0.92224 28.25037,0.39952 42.657,-2.76215 1.9357,-0.76786 3.5997,2.98304 1.54182,4.29668 -25.71391,4.01384 -19.63399,3.46856 -43.42791,2.45524 -2.4652,-1.32992 -2.41234,-3.88747 -0.77091,-3.98977 z"
       id="path1939"
       sodipodi:nodetypes="ccccc" />
    <path
       style="fill:#1c222d;fill-opacity:1;stroke:none;stroke-width:1.05988px;stroke-linecap:butt;stroke-linejoin:miter;stroke-opacity:1"
       d="m 733.67932,298.40897 c 19.8448,3.10829 43.84258,4.65253 61.94103,0.0289 2.63961,-0.68237 4.64962,2.83089 1.81417,4.05317 -35.44586,4.37315 -32.66746,2.47059 -64.03046,-0.52275 -3.2261,-1.43658 -1.93084,-3.529 0.27526,-3.55933 z"
       id="path1939-2"
       sodipodi:nodetypes="ccccc" />
    <path
       style="fill:#1c222d;fill-opacity:1;stroke:none;stroke-width:1.03691px;stroke-linecap:butt;stroke-linejoin:miter;stroke-opacity:1"
       d="m 1271.4364,324.23508 c 17.9915,1.01227 36.2193,0.57936 54.879,-2.4929 2.5265,-0.75608 4.4504,3.00795 1.7364,4.30941 -33.2134,3.85313 -25.383,3.34612 -55.8507,2.18087 -3.0878,-1.34649 -2.8762,-3.90545 -0.7647,-3.99738 z"
       id="path1939-2-4"
       sodipodi:nodetypes="ccccc" />
  </g>
  <g
     inkscape:groupmode="layer"
     id="layer2"
     inkscape:label="franja">
    <path
       style="opacity:0.988;fill:#1f2633;fill-opacity:0.996078;stroke:none;stroke-width:1px;stroke-linecap:butt;stroke-linejoin:miter;stroke-opacity:1"
       d="m 367.53433,185.46365 c -43.70668,-2.84503 -85.03316,10.25731 -139.75757,-66.40655 -2.90293,11.79513 -16.82909,75.43394 -77.69133,66.40655 l 7.4402,-119.548536 204.77854,0.15797 z"
       id="path3110"
       sodipodi:nodetypes="cccccc" />
    <path
       style="opacity:0.988;fill:#fef4eb;fill-opacity:1;stroke:none;stroke-width:1px;stroke-linecap:butt;stroke-linejoin:miter;stroke-opacity:1"
       d="M 226.54914,111.69137 C 219.6004,99.000757 214.32925,85.535864 211.14109,71.109594 c -0.44529,-1.98167 -4.24172,-2.86019 -3.68926,0.86806 1.60836,15.94768 5.92533,30.270186 14.75701,41.883866 2.41745,3.02314 6.08968,2.0302 4.3403,-2.17015 z"
       id="path3118"
       sodipodi:nodetypes="ccccc" />
    <path
       style="opacity:0.988;fill:#fef4eb;fill-opacity:1;stroke:none;stroke-width:1px;stroke-linecap:butt;stroke-linejoin:miter;stroke-opacity:1"
       d="m 147.48125,178.9532 c -23.83129,-73.11684 45.64964,-115.823296 46.61126,-117.966756 1.6624,-1.9096 0.93612,-3.87244 -2.14834,-2.76214 -3.25042,1.84753 -74.03931,41.523109 -50.74996,121.147496 0.95037,4.14255 7.58721,2.68763 6.28704,-0.4186 z"
       id="path3120"
       sodipodi:nodetypes="ccccc" />
    <path
       style="opacity:0.988;fill:#fef4eb;fill-opacity:1;stroke:none;stroke-width:1px;stroke-linecap:butt;stroke-linejoin:miter;stroke-opacity:1"
       d="m 365.92308,181.97261 c 28.7691,-3.75868 45.70665,6.34246 60.3069,19.18158 2.66785,2.4379 -0.71962,5.03464 -2.28317,3.40229 -21.78906,-19.5276 -38.1728,-18.10087 -56.41248,-19.09283 -3.67667,0.12264 -3.30996,-3.1463 -1.61125,-3.49104 z"
       id="path3122"
       sodipodi:nodetypes="ccccc" />
    <path
       style="opacity:0.988;fill:#fef4eb;fill-opacity:1;stroke:none;stroke-width:1px;stroke-linecap:butt;stroke-linejoin:miter;stroke-opacity:1"
       d="m 123.84214,155.36878 c -14.544,15.98273 -35.706061,24.61437 -24.245531,78.87468 14.906641,45.33454 -0.0436,59.93406 -11.96931,77.64706 -11.82848,20.86501 -25.9517,40.33926 -11.6624,77.03324 3.68499,7.8839 -2.81121,5.05693 -4.36794,1.11912 -14.42348,-35.04698 -0.49309,-58.93683 12.04057,-83.67666 11.14431,-16.40491 23.720741,-31.52091 11.0486,-69.36062 -0.33396,-25.82085 -17.72546,-47.1964 26.328981,-84.58514 2.05434,-1.57741 7.60873,-1.20853 2.82703,2.94832 z"
       id="path3124"
       sodipodi:nodetypes="ccccccccc" />
    <path
       style="opacity:0.988;fill:#fef4eb;fill-opacity:1;stroke:none;stroke-width:1px;stroke-linecap:butt;stroke-linejoin:miter;stroke-opacity:1"
       d="m 130.41155,265.61287 c 3.37958,36.93747 -7.82564,62.63912 -19.6058,87.28811 -7.46992,18.75373 0.46177,33.70125 3.24431,38.58051 3.25494,3.91758 7.16774,2.64608 4.56822,-2.91109 -6.78604,-9.84145 -7.60831,-21.17384 -1.30209,-34.28835 19.74717,-37.27978 19.43511,-64.45476 17.88145,-89.04115 0.10249,-4.2751 -5.67563,-6.42194 -4.78609,0.37197 z"
       id="path3126"
       sodipodi:nodetypes="ccccccc" />
    <path
       style="opacity:0.988;fill:#fef4eb;fill-opacity:1;stroke:none;stroke-width:1px;stroke-linecap:butt;stroke-linejoin:miter;stroke-opacity:1"
       d="m 169.61678,318.25758 c 4.01961,16.77841 2.14121,31.74204 -1.30209,46.22417 -1.71451,5.38546 -3.75471,11.80146 -2.17015,22.13552 3.02193,4.13391 -1.45417,8.25796 -3.47224,3.90627 -3.80393,-6.98248 -4.58072,-14.43067 -0.86806,-22.56955 4.11404,-16.20164 7.11147,-34.23229 3.79776,-48.71984 -0.4631,-6.18247 3.39569,-5.74677 4.01478,-0.97657 z"
       id="path3128"
       sodipodi:nodetypes="ccccccc" />
    <path
       style="opacity:0.988;fill:#fef4eb;fill-opacity:1;stroke:none;stroke-width:1px;stroke-linecap:butt;stroke-linejoin:miter;stroke-opacity:1"
       d="m 346.96235,393.22045 c 2.10328,-11.46575 3.23883,-22.7971 -4.91049,-32.83888 -7.12757,-8.49944 -7.59444,-18.66405 -9.20716,-28.5422 0.0251,-4.5482 -3.52876,-4.49227 -3.68286,-0.3069 0.18423,12.01218 0.55675,23.96363 9.51406,33.14578 5.89534,10.74688 4.16751,18.44449 3.06906,26.39386 -0.83899,2.76899 2.60986,7.29317 5.21739,2.14834 z"
       id="path3130"
       sodipodi:nodetypes="ccccccc" />
    <path
       style="opacity:0.988;fill:#fef4eb;fill-opacity:1;stroke:none;stroke-width:1px;stroke-linecap:butt;stroke-linejoin:miter;stroke-opacity:1"
       d="m 384.14237,392.97879 c 5.1148,-12.59366 5.89731,-27.12298 -0.54254,-41.44984 -5.51097,-10.639 -12.84558,-19.28856 -12.36985,-36.4585 3.58232,-15.29601 7.02598,-30.50536 6.07642,-42.96895 -0.31132,-4.52951 2.90308,-2.85339 3.03821,0 3.27268,16.09502 -1.46887,28.98435 -3.47224,42.96895 -1.91596,13.39087 3.69311,21.13797 8.46358,29.51402 11.1199,17.97926 6.12802,34.05996 3.36373,49.26238 -0.75332,3.9851 -5.59377,2.78363 -4.55731,-0.86806 z"
       id="path3132"
       sodipodi:nodetypes="ccccccccc" />
    <path
       style="opacity:0.988;fill:#fef4eb;fill-opacity:1;stroke:none;stroke-width:1px;stroke-linecap:butt;stroke-linejoin:miter;stroke-opacity:1"
       d="m 430.59407,390.61175 c 5.93349,-11.5601 5.47314,-28.38874 -2.91561,-46.49616 -6.90657,-14.93606 -5.42614,-29.87213 -3.06905,-44.80819 7.287,-41.57099 -17.99208,-54.10419 -25.47315,-62.9156 -3.63479,-3.27678 1.5482,-5.51036 3.37596,-3.06905 14.40812,16.57859 35.37854,25.77459 28.2353,66.59846 -2.60132,15.34527 -3.72993,30.69054 3.37595,46.03581 2.73964,12.85541 11.30545,22.5566 0.46037,47.10997 -4.00301,4.82477 -4.69032,-0.41863 -3.98977,-2.45524 z"
       id="path3134"
       sodipodi:nodetypes="ccccccccc" />
    <path
       style="fill:#fef4eb;fill-opacity:1;stroke:none;stroke-width:1px;stroke-linecap:butt;stroke-linejoin:miter;stroke-opacity:1"
       d="m 263.79099,50.714044 c 56.32665,5.12754 113.0322,25.1576 120.30691,122.148336 0.12711,3.86234 4.29451,4.14663 4.23902,0.2995 -5.29607,-69.1631 -33.37565,-120.765506 -122.17937,-127.387726 -4.82368,-0.32329 -5.05601,4.52488 -2.36656,4.93989 z"
       id="path3116"
       sodipodi:nodetypes="ccccc" />
  </g>
</svg>
