<?xml version="1.0" encoding="UTF-8" standalone="no"?>
<svg
   xmlns:dc="http://purl.org/dc/elements/1.1/"
   xmlns:cc="http://creativecommons.org/ns#"
   xmlns:rdf="http://www.w3.org/1999/02/22-rdf-syntax-ns#"
   xmlns:svg="http://www.w3.org/2000/svg"
   xmlns="http://www.w3.org/2000/svg"
   xmlns:sodipodi="http://sodipodi.sourceforge.net/DTD/sodipodi-0.dtd"
   xmlns:inkscape="http://www.inkscape.org/namespaces/inkscape"
   width="328"
   height="254"
   viewBox="0 0 328 254"
   fill="none"
   version="1.1"
   id="svg58"
   sodipodi:docname="logoicone.svg"
   inkscape:version="1.0.1 (3bc2e813f5, 2020-09-07)">
  <metadata
     id="metadata64">
    <rdf:RDF>
      <cc:Work
         rdf:about="">
        <dc:format>image/svg+xml</dc:format>
        <dc:type
           rdf:resource="http://purl.org/dc/dcmitype/StillImage" />
        <dc:title></dc:title>
      </cc:Work>
    </rdf:RDF>
  </metadata>
  <defs
     id="defs62" />
  <sodipodi:namedview
     pagecolor="#ffffff"
     bordercolor="#666666"
     borderopacity="1"
     objecttolerance="10"
     gridtolerance="10"
     guidetolerance="10"
     inkscape:pageopacity="0"
     inkscape:pageshadow="2"
     inkscape:window-width="1366"
     inkscape:window-height="705"
     id="namedview60"
     showgrid="false"
     inkscape:zoom="2.1181102"
     inkscape:cx="138.03346"
     inkscape:cy="127"
     inkscape:window-x="-8"
     inkscape:window-y="-8"
     inkscape:window-maximized="1"
     inkscape:current-layer="svg58" />
  <path
     d="M85.152 197.448C80.9707 197.448 77.1307 196.467 73.632 194.504C70.1333 192.541 67.36 189.832 65.312 186.376C63.264 182.877 62.24 178.931 62.24 174.536C62.24 170.184 63.264 166.28 65.312 162.824C67.36 159.325 70.1333 156.595 73.632 154.632C77.1307 152.669 80.9707 151.688 85.152 151.688C89.376 151.688 93.216 152.669 96.672 154.632C100.171 156.595 102.923 159.325 104.928 162.824C106.976 166.28 108 170.184 108 174.536C108 178.931 106.976 182.877 104.928 186.376C102.923 189.832 100.171 192.541 96.672 194.504C93.1733 196.467 89.3333 197.448 85.152 197.448ZM85.152 189.448C87.84 189.448 90.208 188.851 92.256 187.656C94.304 186.419 95.904 184.669 97.056 182.408C98.208 180.147 98.784 177.523 98.784 174.536C98.784 171.549 98.208 168.947 97.056 166.728C95.904 164.467 94.304 162.739 92.256 161.544C90.208 160.349 87.84 159.752 85.152 159.752C82.464 159.752 80.0747 160.349 77.984 161.544C75.936 162.739 74.336 164.467 73.184 166.728C72.032 168.947 71.456 171.549 71.456 174.536C71.456 177.523 72.032 180.147 73.184 182.408C74.336 184.669 75.936 186.419 77.984 187.656C80.0747 188.851 82.464 189.448 85.152 189.448ZM134.314 161.032C138.538 161.032 141.951 162.376 144.554 165.064C147.157 167.709 148.458 171.421 148.458 176.2V197H139.498V177.416C139.498 174.6 138.794 172.445 137.386 170.952C135.978 169.416 134.058 168.648 131.626 168.648C129.151 168.648 127.189 169.416 125.738 170.952C124.33 172.445 123.626 174.6 123.626 177.416V197H114.666V161.544H123.626V165.96C124.821 164.424 126.335 163.229 128.17 162.376C130.047 161.48 132.095 161.032 134.314 161.032ZM165.811 152.328V179.976C165.811 183.005 166.6 185.331 168.179 186.952C169.757 188.531 171.976 189.32 174.835 189.32C177.736 189.32 179.976 188.531 181.555 186.952C183.133 185.331 183.923 183.005 183.923 179.976V152.328H192.947V179.912C192.947 183.709 192.115 186.931 190.451 189.576C188.829 192.179 186.632 194.141 183.859 195.464C181.128 196.787 178.077 197.448 174.707 197.448C171.379 197.448 168.349 196.787 165.619 195.464C162.931 194.141 160.797 192.179 159.219 189.576C157.64 186.931 156.851 183.709 156.851 179.912V152.328H165.811ZM221.252 161.032C225.476 161.032 228.889 162.376 231.492 165.064C234.094 167.709 235.396 171.421 235.396 176.2V197H226.436V177.416C226.436 174.6 225.732 172.445 224.324 170.952C222.916 169.416 220.996 168.648 218.564 168.648C216.089 168.648 214.126 169.416 212.676 170.952C211.268 172.445 210.564 174.6 210.564 177.416V197H201.604V161.544H210.564V165.96C211.758 164.424 213.273 163.229 215.108 162.376C216.985 161.48 219.033 161.032 221.252 161.032ZM248.46 157.32C246.881 157.32 245.559 156.829 244.492 155.848C243.468 154.824 242.956 153.565 242.956 152.072C242.956 150.579 243.468 149.341 244.492 148.36C245.559 147.336 246.881 146.824 248.46 146.824C250.039 146.824 251.34 147.336 252.364 148.36C253.431 149.341 253.964 150.579 253.964 152.072C253.964 153.565 253.431 154.824 252.364 155.848C251.34 156.829 250.039 157.32 248.46 157.32ZM252.876 161.544V197H243.916V161.544H252.876Z"
     fill="white"
     id="path52"
     style="fill:#008080" />
  <path
     d="M284.622 23.59L280.021 26.2858L272.486 30.8742C271.567 31.0388 270.524 31.0767 269.531 31.1655C269.31 30.4109 269.168 29.5229 269.443 27.9305C269.505 27.2211 270.266 27.9688 270.847 30.5255C269.752 33.5977 267.021 35.7211 265.106 38.318L259.583 43.7188L256.014 47.3232C253.856 49.2455 253.683 48.9925 252.859 49.5597C251.292 50.3408 249.66 51.0838 247.11 51.2825C244.889 51.6295 242.46 51.9658 240.815 52.2293L236.58 53.3339L233.218 55.7602C232.122 57.2685 232.029 57.2973 231.531 59.2067C231.036 61.0892 230.5 62.6582 230.121 64.297C229.629 66.2459 229.2 67.6288 230.246 70L231.59 72.3582L235.518 76.5181L242.596 82.8983L246.401 85.0549L247.816 85.4144L249.226 85.1656L250.116 84.7852L250.559 84.0201C250.559 84.0201 250.723 83.2182 250.529 82.133C250.373 81.4508 249.878 80.5481 249.209 79.5098C248.857 78.9617 248.489 78.7578 247.153 78.1804C245.782 77.8832 244.569 76.6912 243.304 77.8659C243.04 78.1211 242.708 78.3419 243.127 78.9442C243.623 79.4976 244.076 79.6474 244.454 79.124C245.232 78.0756 244.337 77.0272 244.277 75.9788L242.906 74.0917L240.979 71.8792C240.491 70.3205 240.22 69.6478 239.627 68.8349C238.902 67.7772 239.26 65.9595 239.057 64.4766C238.251 63.802 237.284 63.4237 236.226 63.1287C235.756 63.0545 235.312 63.2942 234.208 63.7195C232.831 64.5502 235.385 65.0438 236.314 65.1056C238.12 64.9569 238.436 64.8619 239.323 64.2969C239.955 63.7639 240.864 63.5963 241.681 62.6531C242.09 62.1582 242.108 61.5368 241.358 59.9836L240.499 58.0593C239.854 57.6226 238.763 57.5635 238.743 58.1645C239.236 59.322 240.609 58.8207 241.623 58.9951C242.911 58.9456 243.414 58.9416 244.012 58.0965C244.074 57.4468 244.622 57.009 243.2 55.2264C242.546 54.671 242.629 54.4371 240.364 53.1804L235.96 53.6034L232.864 54.4122L228.846 56.0033L223.449 58.3397C221.583 59.5905 220.245 60.4837 217.851 62.0921C216.556 62.8807 215.202 63.8495 213.576 65.6448C211.405 67.7762 211.387 67.7524 210.51 69.9581C210.389 72.5825 210.326 72.5145 210.594 73.785L212.868 78.2254L216.23 83.617L218.796 86.3129L221.627 87.4811L226.14 89.7276L229.767 91.435L232.333 92.1539L233.66 92.0639L234.987 91.345L235.695 90.3565L235.784 89.2782L234.722 87.6607L231.36 84.6952L228.352 83.0777L225.697 82.5386C225.319 82.4719 224.94 82.3907 224.724 83.9764C225.108 84.7717 225.491 84.8742 225.874 83.9764C227.246 81.6431 226.582 80.5552 226.582 80.5552C226.071 79.7867 225.837 79.1305 224.547 78.0455L222.512 76.2483L220.92 74.9902C220.217 74.9223 219.599 74.7463 218.58 75.0787C217.811 75.3291 217.783 75.2904 216.672 76.4965C216.453 77.1031 217.871 76.9852 218.615 77.0044C221.072 77.1104 221.088 75.5351 221.747 74.53L223.132 71.845L224.459 68.6999C224.936 67.4509 224.786 67.1469 224.691 66.8016C223.382 64.1927 222.903 64.4407 222.214 63.8362C221.114 62.9753 220.859 62.6646 221.097 62.3198C222.064 61.7234 222.161 61.5136 224.016 60.5225C226.599 59.5887 226.159 60.3719 227.113 60.7023C228.387 60.9943 228.769 60.1562 228.794 60.1631C229.484 58.8961 229.574 59.2163 229.69 57.5908L229.767 54.2323C229.802 52.4926 228.765 51.2369 228.263 49.7392C227.663 48.5409 227.977 47.296 228.109 46.2571C228.558 44.6323 228.523 43.8685 229.458 41.3821C232.091 35.1693 233.152 36.3948 233.152 36.3948C234.467 37.9943 232.25 41.6252 231.272 42.73L224.724 50.0986C223.043 51.8659 223.445 51.2826 219.681 55.4004C217.878 57.3513 217.072 58.4926 216.131 60.11C215.256 61.4836 214.377 62.0974 214.377 62.0974C213.309 63.1381 212.556 63.6634 211.984 64.117C210.33 65.5326 209.75 66.5289 209.153 67.5317C208.227 69.181 207.316 70.8318 207.206 72.5639C207.029 74.2041 206.643 75.5785 206.764 77.5962C206.907 78.7722 207.264 79.8611 207.029 81.1906C206.191 83.1441 204.783 83.3533 204.11 83.3473C203.385 83.4443 202.754 83.3752 202.064 82.9506C199.189 80.6824 202.863 80.6193 204.11 81.9095C206.652 85.133 207.725 86.3297 208.466 87.4941C209.024 91.149 208.843 91.2577 209.085 93.0655C209.185 94.0684 209.08 95.0143 208.533 95.838C208.163 96.3215 207.934 96.9205 207.295 97.1859C206.886 97.4999 206.406 97.5605 205.879 97.4555C205.133 97.464 204.74 97.1145 204.463 96.6467C203.314 94.8499 202.702 94.2146 200.836 91.5696C199.801 90.3166 199.202 88.6739 198.403 86.9417C197.999 85.9206 197.215 84.5384 196.899 83.1676L196.147 78.9441L195.262 74.6307C194.913 73.3978 194.529 72.7275 194.408 71.7289C194.074 70.7835 194.668 69.6298 195.085 68.4303L196.678 65.4649L198.182 62.8589L200.394 59.1746L202.782 56.6585C204.214 55.2004 205.547 53.5455 207.08 51.7097C208.851 50.704 209.226 52.1655 209.226 52.1655C209.17 52.8527 209.267 53.2658 207.56 54.3221L204.021 56.2092L199.42 58.276L194.554 60.0732L191.369 60.3428C190.42 60.1334 190.426 59.9335 189.908 59.0376C189.623 58.2741 189.456 58.1519 189.606 56.9971C189.675 55.4451 190.859 56.1743 191.436 57.0289C191.704 57.6751 192.133 58.3851 191.9 59.624C190.251 61.0169 190.106 62.4097 186.945 63.8026C184.837 65.2083 185.157 67.8238 180.066 69.2796C179.282 71.7364 177.537 73.7652 176.594 75.3497C175.013 77.0716 173.901 76.9415 172.59 77.2368C171.713 77.3342 170.813 77.1097 169.958 77.057C167.535 76.86 167.525 76.2707 167.525 76.2707C168.135 74.7896 168.432 74.6478 168.41 74.6308C169.43 72.8195 169.3 72.9534 169.693 72.2045L172.004 68.3459L175.178 63.9373C176.084 62.7115 176.642 61.8791 178.54 59.5341L182.168 56.2991L185.884 52.9742L190.75 49.3797L196.642 45.4413L201.325 42.3915L203.214 40.6468L204.994 39.3153L208.71 37.6978L215.788 33.8338L221.362 30.5089L226.14 27.6334L232.245 23.4099L239.057 19.456L244.366 16.5804L249.94 13.0758L257.333 8"
     stroke="white"
     stroke-width="0.95967"
     id="path54"
     style="fill:#008b8b;stroke:#ffffff;stroke-opacity:1" />
  <path
     d="M43 91.2058L51.0717 86.7691L57.088 84.7922L63.8121 82.8152L71.5979 81.018L79.0299 79.0411L83.8272 77.3074C85.5366 76.6488 86.4329 76.4349 89.6469 75.2669L94.9554 74.1886L98.8483 73.4697L102.616 72.2733L106.697 70.9953L110.527 69.6955L113.952 68.4792L118.136 67.5388L120.637 67.1794C122.525 66.7002 124.52 66.9237 126.19 66.6665C128.907 66.5613 130.358 66.5369 130.358 66.5369L135.628 66.7801C135.628 66.7801 138.515 66.9398 139.724 67.5389C141.303 68.0228 142.546 68.2504 145.386 69.6955L150.518 71.1333L153.88 72.0319L158.304 74.0089L162.02 76.525L162.551 77.9628L162.02 79.76L157.95 79.9397L152.464 79.5803L148.041 78.6816C144.866 77.4006 145.294 77.2372 145.261 75.9146C145.742 74.8038 145.93 74.387 146.094 74.7278L146.625 76.1656C146.375 78.3733 145.391 77.889 144.325 78.1425C143.266 78.3188 142.509 78.1895 141.67 78.1425L139.193 77.6033L135.831 76.8844L133 75.8061C132.564 75.2301 131.753 75.9835 131.761 73.8292C131.945 72.8132 132.007 72.6995 132.115 72.2117C132.408 71.0003 132.72 70.374 133.177 74.0089C133.36 75.1062 132.931 75.8403 132.115 76.3453L128.222 77.6033L125.037 78.3222L118.313 75.8061C117.083 75.3103 111.224 72.9213 115.695 73.5373C116.579 73.8256 117.658 74.3684 119.684 75.3119L124.86 78.8614L128.045 80.2992C130.177 81.5469 131.324 82.0775 132.564 83.4388C134.154 85.2206 134.844 85.9766 135.831 87.1286C136.781 88.0407 137.021 88.4101 138.652 89.8145L142.544 94.3075L144.148 97.5525L146.094 101.506L146.802 104.562L145.917 108.336L145.033 112.469L144.502 116.603L143.794 120.557L142.555 122.534L141.317 122.983L140.166 122.264L138.751 120.827L137.866 117.951L137.158 113.997L136.893 107.707C136.892 106.332 136.562 105.628 136.893 103.58L138.043 102.585C138.043 102.585 140.303 97.1663 139.724 100.877C138.677 103.052 137.558 101.964 137.136 102.076C136.147 101.376 135.826 101.131 134.945 100.127L133.708 98.0917L131.761 95.4857C130.936 94.6997 130.689 94.134 130.523 93.5986C130.475 91.8226 130.614 91.0181 131.23 92.7C131.383 93.1024 131.659 93.9391 131.584 94.3175C130.732 94.4099 130.504 94.9771 129.018 94.5871L124.595 92.6102C121.554 90.0572 119.192 87.087 116.366 84.972C114.749 83.0475 110.512 78.7957 114.066 81.4673L120.613 87.3982L126.453 94.7668L128.311 96.7438C128.659 97.3198 129.118 97.6371 129.461 98.6309C129.988 100.321 129.696 101.197 129.549 103.214L128.488 113.907L127.072 118.4L123.975 123.522C121.93 125.899 121.778 125.284 120.702 126.128L116.897 126.668L115.393 126.039L115.216 124.241L115.305 120.916L117.428 117.142L119.508 115.278C120.03 114.868 120.34 113.852 121.542 115.143C122.314 116.079 124.497 119.378 120.967 116.423L119.729 114.626C119.289 113.369 119.284 113.171 119.109 112.559L118.49 106.089L119.596 101.776C123.572 96.93 121.777 100.4 121.587 100.967C120.742 102.314 120.493 102.753 120.348 103.034C117.71 106.003 118.991 103.154 118.313 103.214L109.643 95.7552C108.345 94.2875 107.802 92.8985 106.407 91.066L103.771 87.566C102.392 85.7734 103.834 87.126 105.838 89.1055C108.186 90.8271 108.996 93.401 110.527 95.5755L115.659 100.518L118.048 103.753L118.667 109.144L119.198 114.087L118.048 116.513L115.393 120.826L112.916 123.522L111.147 124.601L110.085 124.241L109.112 122.893L108.669 120.647L108.846 117.232L109.908 114.446L111.147 113.098C111.804 112.603 113.106 110.971 112.12 113.368C111.971 114.668 111.309 114.597 110.808 114.229C109.097 112.325 110.055 113.278 109.554 112.739C109.146 111.99 108.731 111.284 108.404 110.043L108.255 106.608C108.029 105.568 108.109 105.061 107.911 104.224L107.961 103.214C108.375 101.236 108.25 102.816 109.465 104.112C109.993 105.139 109.95 105.844 109.908 106.539C109.902 108.187 109.623 108.251 109.377 108.515L106.723 107.257L104.953 105.82L103.449 105.91L101.326 106.898L90.7087 106.718L86.9776 106.861L82.9229 107.617L76.1988 108.785L72.3058 108.695L67.9705 108.336L64.9624 109.324L58.3267 111.84L53.3721 114.716"
     stroke="white"
     stroke-width="0.95967"
     id="path56"
     style="fill:#008080" />
</svg>
