<?xml version="1.0" encoding="UTF-8" standalone="no"?>
<svg
   xmlns:dc="http://purl.org/dc/elements/1.1/"
   xmlns:cc="http://creativecommons.org/ns#"
   xmlns:rdf="http://www.w3.org/1999/02/22-rdf-syntax-ns#"
   xmlns:svg="http://www.w3.org/2000/svg"
   xmlns="http://www.w3.org/2000/svg"
   xmlns:sodipodi="http://sodipodi.sourceforge.net/DTD/sodipodi-0.dtd"
   xmlns:inkscape="http://www.inkscape.org/namespaces/inkscape"
   version="1.1"
   id="svg10"
   width="900"
   height="1312"
   viewBox="0 0 900 1312"
   sodipodi:docname="Arvore.svg"
   inkscape:version="1.0.1 (3bc2e813f5, 2020-09-07)">
  <metadata
     id="metadata16">
    <rdf:RDF>
      <cc:Work
         rdf:about="">
        <dc:format>image/svg+xml</dc:format>
        <dc:type
           rdf:resource="http://purl.org/dc/dcmitype/StillImage" />
        <dc:title></dc:title>
      </cc:Work>
    </rdf:RDF>
  </metadata>
  <defs
     id="defs14" />
  <sodipodi:namedview
     pagecolor="#ffffff"
     bordercolor="#666666"
     borderopacity="1"
     objecttolerance="10"
     gridtolerance="10"
     guidetolerance="10"
     inkscape:pageopacity="0"
     inkscape:pageshadow="2"
     inkscape:window-width="1366"
     inkscape:window-height="705"
     id="namedview12"
     showgrid="false"
     inkscape:zoom="0.57991379"
     inkscape:cx="376.9758"
     inkscape:cy="355.51982"
     inkscape:window-x="-8"
     inkscape:window-y="-8"
     inkscape:window-maximized="1"
     inkscape:current-layer="g18" />
  <g
     inkscape:groupmode="layer"
     inkscape:label="Image"
     id="g18"
     style="display:inline">
    <path
       style="fill:#94c83d;fill-opacity:1;stroke:none;stroke-width:1px;stroke-linecap:butt;stroke-linejoin:miter;stroke-opacity:1"
       d="M 383.60108,958.01694 C 154.25448,894.19899 -412.87389,485.80078 385.32548,0.97813679 743.99402,294.83103 442.08266,634.94844 383.60108,958.01694 Z"
       id="path909-8"
       sodipodi:nodetypes="ccc" />
    <path
       style="fill:#94c83d;fill-opacity:1;stroke:none;stroke-width:1px;stroke-linecap:butt;stroke-linejoin:miter;stroke-opacity:1"
       d="M 481.10599,962.21198 C 710.4526,898.39403 1277.581,489.99582 479.3816,5.1731827 151.70884,367.72916 386.67906,655.64882 481.10599,962.21198 Z"
       id="path909"
       sodipodi:nodetypes="ccc" />
    <path
       style="fill:#8d7041;fill-opacity:1;stroke:none;stroke-width:1px;stroke-linecap:butt;stroke-linejoin:miter;stroke-opacity:1"
       d="M 436.52045,102.42379 495.658,1310.171 363.97026,1312 c 9.94324,-320.79723 42.24383,-760.13374 52.85965,-1031.61457 2.04024,-52.17546 5.68796,-103.31667 7.09869,-141.22638 0.96607,-25.9606 4.47077,-62.17722 12.59185,-36.73526 z"
       id="path22"
       sodipodi:nodetypes="cccssc" />
    <path
       style="fill:#8d7041;fill-opacity:1;stroke:none;stroke-width:1px;stroke-linecap:butt;stroke-linejoin:miter;stroke-opacity:1"
       d="M 393.84387,724.28253 226.79554,584.05948 84.133829,571.86617 193.87361,560.89219 89.011152,467.00372 397.50186,638.92937 c 39.63274,28.45105 -2.43866,56.90211 -3.65799,85.35316 z"
       id="path847"
       sodipodi:nodetypes="ccccccc" />
    <path
       style="fill:#8d7041;fill-opacity:1;stroke:none;stroke-width:1.04449px;stroke-linecap:butt;stroke-linejoin:miter;stroke-opacity:1"
       d="m 447.73252,531.71491 c 0,0 316.72231,-234.95999 256.69833,-214.63913 -60.02399,20.32087 -259.25254,146.05621 -259.25254,146.05621 z"
       id="path849" />
    <path
       style="fill:#8d7041;fill-opacity:1;stroke:none;stroke-width:1px;stroke-linecap:butt;stroke-linejoin:miter;stroke-opacity:1"
       d="m 451.90257,847.43494 368.7071,-292.6394 -9.75465,-1.21933 -139.00372,76.81784 23.16729,-137.78438 -57.30855,160.95167 -170.70632,96.32714 z"
       id="path851"
       sodipodi:nodetypes="cccccccc" />
    <path
       style="fill:#c3dc79;fill-opacity:1;stroke:none;stroke-width:1px;stroke-linecap:butt;stroke-linejoin:miter;stroke-opacity:1"
       d="m 685.26394,506.02231 c -26.6997,4.69787 -50.96634,3.5564 -53.65056,-49.3829 43.62724,-1.29333 57.08325,18.2211 53.65056,49.3829 z"
       id="path855"
       sodipodi:nodetypes="ccc" />
    <path
       style="fill:#68912b;fill-opacity:1;stroke:none;stroke-width:1px;stroke-linecap:butt;stroke-linejoin:miter;stroke-opacity:1"
       d="m 810.85502,553.57621 c -49.81743,-45.13183 -35.37854,-79.14237 -1.21933,-109.73978 38.67631,32.67484 42.18106,68.93861 1.21933,109.73978 z"
       id="path857"
       sodipodi:nodetypes="ccc" />
    <path
       style="fill:#c3dc79;fill-opacity:1;stroke:none;stroke-width:1px;stroke-linecap:butt;stroke-linejoin:miter;stroke-opacity:1"
       d="m 648.68402,377.3829 c 55.04165,-22.71365 77.16335,19.80391 90.84015,59.13754 -49.94988,5.67989 -104.60765,3.67875 -90.84015,-59.13754 z"
       id="path861"
       sodipodi:nodetypes="ccc" />
    <path
       style="fill:#68912b;fill-opacity:1;stroke:none;stroke-width:1px;stroke-linecap:butt;stroke-linejoin:miter;stroke-opacity:1"
       d="m 667.26091,333.48699 c -49.81743,-45.13183 -35.37854,-79.14237 -1.21933,-109.73978 38.67631,32.67484 42.18106,68.93861 1.21933,109.73978 z"
       id="path857-0"
       sodipodi:nodetypes="ccc" />
    <path
       style="fill:#c3dc79;fill-opacity:1;stroke:none;stroke-width:1px;stroke-linecap:butt;stroke-linejoin:miter;stroke-opacity:1"
       d="m 563.94052,392.62454 c -23.60093,-19.21934 -38.77231,-41.46586 -6.09666,-71.94052 32.44692,22.6732 28.78349,47.64574 6.09666,71.94052 z"
       id="path895"
       sodipodi:nodetypes="ccc" />
    <path
       style="fill:#69922c;fill-opacity:1;stroke:none;stroke-width:1px;stroke-linecap:butt;stroke-linejoin:miter;stroke-opacity:1"
       d="m 444.75093,220.08922 c 87.55849,22.07955 82.76592,-66.39944 82.60967,-68.58736 -90.09484,-4.20603 -79.78506,41.42955 -82.60967,68.58736 z"
       id="path897"
       sodipodi:nodetypes="ccc" />
    <path
       style="fill:#c3dc79;fill-opacity:1;stroke:none;stroke-width:1px;stroke-linecap:butt;stroke-linejoin:miter;stroke-opacity:1"
       d="m 315.80669,234.72119 c 13.5625,64.43815 51.59895,67.37768 96.63197,52.73606 -10.26778,-40.09151 -24.87768,-75.72812 -96.63197,-52.73606 z"
       id="path899"
       sodipodi:nodetypes="ccc" />
    <path
       style="fill:#6e972d;fill-opacity:1;stroke:none;stroke-width:1px;stroke-linecap:butt;stroke-linejoin:miter;stroke-opacity:1"
       d="m 248.74349,552.35688 c -61.42547,-56.51316 -21.59417,-79.27406 0.60967,-107.91078 37.19802,35.97026 48.05602,71.94052 -0.60967,107.91078 z"
       id="path901"
       sodipodi:nodetypes="ccc" />
    <path
       style="fill:#c3dc79;fill-opacity:1;stroke:none;stroke-width:1px;stroke-linecap:butt;stroke-linejoin:miter;stroke-opacity:1"
       d="m 107.30112,472.49071 c 38.35023,-22.72931 62.20106,-54.20848 15.24164,-109.13012 -64.441061,46.39092 -35.482661,78.42107 -15.24164,109.13012 z"
       id="path903"
       sodipodi:nodetypes="ccc" />
    <path
       style="fill:#c3dc79;fill-opacity:1;stroke:none;stroke-width:1px;stroke-linecap:butt;stroke-linejoin:miter;stroke-opacity:1"
       d="m 107.30112,575.52416 c 3.85365,30.50466 -1.71061,56.00605 -49.382904,59.13755 -4.351019,-43.23911 16.447822,-58.04794 49.382904,-59.13755 z"
       id="path905"
       sodipodi:nodetypes="ccc" />
    <path
       style="fill:#c3dc79;fill-opacity:1;stroke:none;stroke-width:1px;stroke-linecap:butt;stroke-linejoin:miter;stroke-opacity:1"
       d="m 688.31227,667.58364 c 16.59292,60.06542 56.60184,74.37238 102.42379,54.8699 -13.29162,-70.33146 -58.65139,-69.56378 -102.42379,-54.8699 z"
       id="path907"
       sodipodi:nodetypes="ccc" />
  </g>
</svg>
