<?xml version="1.0" encoding="UTF-8" standalone="no"?>
<svg
   xmlns:dc="http://purl.org/dc/elements/1.1/"
   xmlns:cc="http://creativecommons.org/ns#"
   xmlns:rdf="http://www.w3.org/1999/02/22-rdf-syntax-ns#"
   xmlns:svg="http://www.w3.org/2000/svg"
   xmlns="http://www.w3.org/2000/svg"
   xmlns:sodipodi="http://sodipodi.sourceforge.net/DTD/sodipodi-0.dtd"
   xmlns:inkscape="http://www.inkscape.org/namespaces/inkscape"
   version="1.1"
   id="svg833"
   width="511"
   height="534"
   viewBox="0 0 511 534"
   sodipodi:docname="imagemextra1.svg"
   inkscape:version="1.0.1 (3bc2e813f5, 2020-09-07)">
  <metadata
     id="metadata839">
    <rdf:RDF>
      <cc:Work
         rdf:about="">
        <dc:format>image/svg+xml</dc:format>
        <dc:type
           rdf:resource="http://purl.org/dc/dcmitype/StillImage" />
        <dc:title></dc:title>
      </cc:Work>
    </rdf:RDF>
  </metadata>
  <defs
     id="defs837" />
  <sodipodi:namedview
     pagecolor="#ffffff"
     bordercolor="#666666"
     borderopacity="1"
     objecttolerance="10"
     gridtolerance="10"
     guidetolerance="10"
     inkscape:pageopacity="0"
     inkscape:pageshadow="2"
     inkscape:window-width="1366"
     inkscape:window-height="705"
     id="namedview835"
     showgrid="false"
     inkscape:zoom="0.35355339"
     inkscape:cx="40.167296"
     inkscape:cy="220.31136"
     inkscape:window-x="-8"
     inkscape:window-y="240"
     inkscape:window-maximized="1"
     inkscape:current-layer="g841"
     inkscape:document-rotation="0"
     showguides="false" />
  <g
     inkscape:groupmode="layer"
     id="layer1"
     inkscape:label="mancah">
    <path
       style="opacity:1;fill:#cf988d;fill-opacity:1;stroke:none;stroke-width:1.08914px;stroke-linecap:butt;stroke-linejoin:miter;stroke-opacity:1"
       d="M 361.27503,40.474344 C 161.73776,-82.252366 -50.687665,101.46954 20.725029,240.56431 96.596994,293.61017 285.69889,522.18153 301.82392,523.22724 349.6683,520.03655 359.84694,510.3578 428.04504,458.32494 583.96993,316.6301 429.47615,94.216514 361.27503,40.474344 Z"
       id="path949"
       sodipodi:nodetypes="ccccc" />
  </g>
  <g
     inkscape:groupmode="layer"
     inkscape:label="personagem"
     id="g841"
     style="opacity:1">
    <path
       style="fill:#9c5937;fill-opacity:0.996078;stroke:none;stroke-width:1.0391px;stroke-linecap:butt;stroke-linejoin:miter;stroke-opacity:1"
       d="M 207.90533,415.44073 C 86.080134,435.04245 85.878334,493.58589 74.536634,530.92087 c 124.587406,-0.60786 249.167576,-0.65251 373.749996,-0.87155 -15.1469,-49.3122 -28.4638,-99.28882 -136.2063,-114.98211 -35.7868,-4.83188 -70.2473,-3.47266 -104.175,0.37352 z"
       id="path1239"
       sodipodi:nodetypes="ccccc" />
    <path
       style="fill:#23679c;fill-opacity:1;stroke:none;stroke-width:1px;stroke-linecap:butt;stroke-linejoin:miter;stroke-opacity:1"
       d="m 330.09973,447.9836 c -6.0855,-30.06332 -9.5173,-40.89673 -16.8799,-3.68286 4.0463,-46.57182 -17.9249,-65.08589 -52.4807,-70.58824 -45.2245,8.65683 -45.4226,38.02171 -49.7186,73.96419 -0.4812,-23.88999 0.1918,-44.68342 -17.8006,0.61381 -5.0412,-55.93805 16.6307,-77.93557 44.0952,-91.17004 10.8544,-5.23049 34.5001,-6.85099 50.4349,0.2685 47.495,21.22012 47.3543,52.87359 42.3497,90.59464 z"
       id="path1249"
       sodipodi:nodetypes="cccccssc" />
    <path
       style="fill:#1b212d;fill-opacity:0.996078;stroke:none;stroke-width:1px;stroke-linecap:butt;stroke-linejoin:miter;stroke-opacity:1"
       d="m 218.30923,391.84029 c -57.7179,1.95394 -78.8997,-18.66482 -94.6185,-44.27103 -18.466,-30.31637 -48.881796,-34.49249 -43.402996,-117.18803 -8.1527,-50.56773 5.9691,-83.10367 32.118196,-105.90326 9.7051,-31.485696 23.0435,-61.722466 84.2018,-75.521156 41.0331,-23.024044 86.8865,-31.587322 145.834,-0.86806 31.9599,9.76015 65.0791,16.6668 76.3892,77.257286 25.5059,30.70623 35.9801,35.39463 29.5141,105.03519 7.7904,30.91851 -7.0805,92.10178 -31.2502,108.50743 -18.9531,31.73199 -44.9746,57.70461 -107.6394,53.81969 z"
       id="path1241"
       sodipodi:nodetypes="ccccccccccc" />
    <path
       style="opacity:0.995;fill:#ae633e;fill-opacity:0.996078;stroke:none;stroke-width:1.04917px;stroke-linecap:butt;stroke-linejoin:miter;stroke-opacity:1"
       d="m 364.08773,164.07211 c -22.6951,-63.07704 -164.482,-74.493876 -198.8956,-1.6342 -4.8106,20.46657 -16.0433,122.96629 26.0907,175.09885 22.6518,16.8221 46.6058,29.50671 69.9968,29.34218 35.0891,-0.24682 67.2834,-20.72554 78.8916,-30.07005 35.9364,-48.16705 38.2045,-126.21476 23.9165,-172.73678 z"
       id="path979-0"
       sodipodi:nodetypes="cccscc" />
    <path
       style="fill:#ffffff;fill-opacity:1;stroke:none;stroke-width:1.04917px;stroke-linecap:butt;stroke-linejoin:miter;stroke-opacity:1"
       d="m 185.39943,193.83687 c 10.2144,-7.2239 30.1746,-10.72809 55.2144,1.11441 7.7253,7.25918 7.5197,14.033 1.6196,20.49816 -21.5225,16.87072 -44.2151,8.65307 -54.3616,-9.17671 -2.816,-6.53223 -3.4806,-10.18826 -2.4724,-12.43586 z"
       id="path1002"
       sodipodi:nodetypes="ccccc" />
    <path
       style="fill:#1b212d;fill-opacity:0.996078;stroke:none;stroke-width:1.04917px;stroke-linecap:butt;stroke-linejoin:miter;stroke-opacity:1"
       d="m 199.90613,187.97898 c -5.0821,8.34989 -1.7821,21.78446 10.0372,27.24952 18.9415,4.69171 27.2274,-9.51725 25.8121,-22.28705 -10.014,-4.55535 -23.3906,-8.15146 -35.8493,-4.96247 z"
       id="path1004"
       sodipodi:nodetypes="cccc" />
    <path
       style="fill:#ae633e;fill-opacity:0.996078;stroke:none;stroke-width:0.745405px;stroke-linecap:butt;stroke-linejoin:miter;stroke-opacity:1"
       d="m 367.92443,201.85713 c 10.1604,0.58852 28.427,0.70802 27.0979,36.61749 -2.0305,30.70285 -22.4952,31.38313 -27.4084,27.94386 z"
       id="path918"
       sodipodi:nodetypes="cccc" />
    <path
       style="fill:#1b212d;fill-opacity:0.996078;stroke:none;stroke-width:0.616271px;stroke-linecap:butt;stroke-linejoin:miter;stroke-opacity:0.996078"
       d="m 376.30103,232.0192 c 3.7378,3.104 7.7707,5.96748 7.759,12.12464 -0.071,1.91907 1.7778,0.64344 1.6289,-0.36011 0.1512,-5.94069 -3.2656,-9.27919 -6.9032,-12.45645 -2.5753,-1.59196 -3.184,0.27534 -2.4847,0.69192 z"
       id="path920"
       sodipodi:nodetypes="ccccc" />
    <path
       style="opacity:0.995;fill:#1b212d;fill-opacity:0.996078;stroke:none;stroke-width:1.04917px;stroke-linecap:butt;stroke-linejoin:miter;stroke-opacity:1"
       d="m 375.96623,245.21011 c -0.3065,-8.28796 -1.2492,-16.60793 6.5199,-24.48951 2.4969,-2.37954 -1.1951,-2.87406 -2.2911,-1.4155 -7.654,7.44294 -8.005,15.6617 -7.9033,23.92854 0.8998,5.00936 3.9387,3.31661 3.6745,1.97647 z"
       id="path920-6"
       sodipodi:nodetypes="ccccc" />
    <path
       style="opacity:0.995;fill:none;fill-opacity:0.996078;stroke:#1b212d;stroke-width:2.16558;stroke-linecap:butt;stroke-linejoin:miter;stroke-miterlimit:4;stroke-dasharray:none;stroke-opacity:0.996078"
       d="m 261.24533,216.65508 c -0.3025,15.20953 25.7806,47.88733 21.0723,57.06514 -5.4456,5.7393 -9.7978,4.64286 -23.9108,6.2994"
       id="path2876-1"
       sodipodi:nodetypes="ccc" />
    <path
       style="opacity:0.988;fill:#ffffff;fill-opacity:1;stroke:none;stroke-width:1.04695px;stroke-linecap:butt;stroke-linejoin:miter;stroke-opacity:1"
       d="m 343.21523,195.49276 c -10.1709,-7.2239 -30.0464,-10.72809 -54.9799,1.11441 -7.6924,7.25918 -7.4877,14.033 -1.6126,20.49816 21.431,16.87072 44.0273,8.65307 54.1306,-9.17671 2.8042,-6.53223 3.4659,-10.18826 2.4619,-12.43586 z"
       id="path1002-0"
       sodipodi:nodetypes="ccccc" />
    <path
       style="opacity:0.988;fill:#1b212d;fill-opacity:0.996078;stroke:none;stroke-width:1.04695px;stroke-linecap:butt;stroke-linejoin:miter;stroke-opacity:1"
       d="m 328.77013,189.63487 c 5.0606,8.34989 1.7746,21.78446 -9.9945,27.24952 -18.861,4.69171 -27.1118,-9.51725 -25.7024,-22.28705 9.9714,-4.55535 23.2912,-8.15146 35.6969,-4.96247 z"
       id="path1004-21"
       sodipodi:nodetypes="cccc" />
    <path
       style="fill:#1b212d;fill-opacity:0.996078;stroke:none;stroke-width:1px;stroke-linecap:butt;stroke-linejoin:miter;stroke-opacity:1"
       d="m 281.39173,184.4306 c -1.2333,-6.36914 0.4562,-11.80386 1.9313,-12.42036 23.5456,-9.28653 60.4353,-0.95735 61.6606,6.31646 0.074,0.43821 -0.2915,1.49983 -1.2002,1.35617 -27.9617,-3.43019 -61.2557,8.62209 -62.3917,4.74773 z"
       id="path1184"
       sodipodi:nodetypes="ccscc" />
    <path
       style="opacity:0.988;fill:#1b212d;fill-opacity:0.996078;stroke:none;stroke-width:0.957761px;stroke-linecap:butt;stroke-linejoin:miter;stroke-opacity:1"
       d="m 246.03443,183.78364 c 1.1313,-6.36914 -0.4185,-11.80386 -1.7716,-12.42036 -21.5985,-9.28653 -55.4376,-0.95735 -56.5616,6.31646 -0.068,0.43821 0.2674,1.49983 1.1009,1.35617 25.6495,-3.43019 56.1902,8.62209 57.2323,4.74773 z"
       id="path1184-1"
       sodipodi:nodetypes="ccscc"
       inkscape:transform-center-x="53.748634" />
    <path
       style="opacity:0.988;fill:#ae633e;fill-opacity:0.996078;stroke:none;stroke-width:0.792884px;stroke-linecap:butt;stroke-linejoin:miter;stroke-opacity:1"
       d="m 167.07703,201.54254 c -11.4959,0.58852 -32.1636,0.70802 -30.6598,36.61749 2.2974,30.70285 25.4522,31.38313 31.0112,27.94386 z"
       id="path918-0"
       sodipodi:nodetypes="cccc" />
    <path
       style="opacity:0.988;fill:#1b212d;fill-opacity:0.996078;stroke:none;stroke-width:0.655526px;stroke-linecap:butt;stroke-linejoin:miter;stroke-opacity:0.996078"
       d="m 157.59943,231.70461 c -4.2291,3.104 -8.7922,5.96748 -8.7789,12.12464 0.08,1.91907 -2.0115,0.64344 -1.8431,-0.36011 -0.171,-5.94069 3.6949,-9.27919 7.8106,-12.45645 2.9139,-1.59196 3.6026,0.27534 2.8114,0.69192 z"
       id="path920-0"
       sodipodi:nodetypes="ccccc" />
    <path
       style="opacity:0.995;fill:#1b212d;fill-opacity:0.996078;stroke:none;stroke-width:1.116px;stroke-linecap:butt;stroke-linejoin:miter;stroke-opacity:1"
       d="m 157.97823,244.89552 c 0.3468,-8.28796 1.4134,-16.60793 -7.3769,-24.48951 -2.8251,-2.37954 1.3522,-2.87406 2.5922,-1.4155 8.6602,7.44294 9.0573,15.6617 8.9422,23.92854 -1.0181,5.00936 -4.4564,3.31661 -4.1575,1.97647 z"
       id="path920-6-3"
       sodipodi:nodetypes="ccccc" />
    <path
       style="fill:#9c5937;fill-opacity:0.996078;stroke:none;stroke-width:0.970769px;stroke-linecap:butt;stroke-linejoin:miter;stroke-opacity:1"
       d="m 305.93753,356.86989 6.2035,60.64015 -96.87,0.37203 4.7719,-62.50028 c 22.0444,6.48744 41.7458,15.10585 85.8946,1.4881 z"
       id="path1237"
       sodipodi:nodetypes="ccccc" />
    <path
       style="fill:#1b212d;fill-opacity:0.996078;stroke:none;stroke-width:1px;stroke-linecap:butt;stroke-linejoin:miter;stroke-opacity:1"
       d="m 165.19213,162.43791 c 40.884,-11.03784 73.5683,-17.54755 107.2094,-31.79446 13.395,-5.6437 19.6067,-3.99722 27.3146,0.92072 19.2521,16.92829 40.7561,23.53879 64.3716,32.50794 l 1.7361,-1.5191 c -19.734,-44.34695 -62.0635,-47.52192 -96.7733,-51.17455 -42.3489,-4.45652 -109.3495,14.44446 -103.8584,51.05945 z"
       id="path1247"
       sodipodi:nodetypes="cccccsc" />
    <path
       style="fill:#194a6f;fill-opacity:1;stroke:none;stroke-width:1px;stroke-linecap:butt;stroke-linejoin:miter;stroke-opacity:1"
       d="m 74.536634,530.92087 c 15.0084,-74.55285 48.599196,-99.92525 118.529896,-113.014 l 0.1534,30.38363 c 3.5127,-8.42426 8.9525,-26.68011 14.3467,-26.79384 4.4204,0.46644 2.7633,15.36999 3.4539,26.18003 -1.3587,29.92999 -0.40726,82.76929 -0.40726,82.76929 9.75555,0.25624 93.74866,-0.36618 103.10676,0.0341 0,0 -2.0805,-77.32395 -0.066,-89.65159 2.4024,-8.70093 4.3975,-20.33462 7.5204,-20.23375 3.8818,-0.009 7.1025,17.22245 8.9255,27.38885 l 1.9253,-29.6675 c 61.7292,12.48417 101.7079,44.0145 116.2616,111.73322 -124.52606,0.26059 -248.85516,0.41836 -373.750196,0.87156 z"
       id="path1251"
       sodipodi:nodetypes="ccccccscccccc" />
    <path
       style="fill:#cacaca;fill-opacity:1;stroke:none;stroke-width:1px;stroke-linecap:butt;stroke-linejoin:miter;stroke-opacity:1"
       d="m 211.02053,447.67669 c 8.8867,8.90641 24.6846,32.29973 51.9193,34.70132 21.3511,-2.03772 38.8978,-17.35947 50.4219,-33.2458 l 0.3583,81.34787 -103.10676,-0.0341 z"
       id="path1261"
       sodipodi:nodetypes="cccccc" />
    <path
       style="fill:#1c222d;fill-opacity:1;stroke:none;stroke-width:1.05988px;stroke-linecap:butt;stroke-linejoin:miter;stroke-opacity:1"
       d="m 234.20403,308.9415 c 18.5345,3.29308 37.5035,5.45307 57.2281,4.77703 2.712,-0.42913 4.249,3.55162 1.2761,4.4982 -34.9123,-0.39993 -27.4976,-0.90464 -58.9515,-5.93644 -3.0382,-1.72922 -1.7535,-3.5161 0.4473,-3.33879 z"
       id="path1939-2-4"
       sodipodi:nodetypes="ccccc" />
    <path
       style="fill:#1c222d;fill-opacity:1;stroke:none;stroke-width:0.188678px;stroke-linecap:butt;stroke-linejoin:miter;stroke-opacity:1"
       d="m 232.75563,303.85674 c -2.2158,2.66933 -4.2285,5.4859 -5.8701,8.57157 -0.1682,0.44388 -0.9875,0.44808 -0.8849,-0.0665 3.1793,-5.36799 2.366,-4.13328 6.0308,-8.69589 0.5673,-0.36789 0.9507,-0.13869 0.7242,0.1908 z"
       id="path1939-2-4-4-5"
       sodipodi:nodetypes="ccccc" />
  </g>
</svg>
